STARTFONT 2.1
COMMENT
COMMENT Converted from OpenType font "montserrat_regular.ttf" by "otf2bdf 3.0".
COMMENT
FONT -FreeType-Montserrat Thin-Medium-R-Normal--89-640-100-100-P-438-ISO10646-1
SIZE 64 100 100
FONTBOUNDINGBOX 151 114 -15 -23
STARTPROPERTIES 19
FOUNDRY "FreeType"
FAMILY_NAME "Montserrat Thin"
WEIGHT_NAME "Medium"
SLANT "R"
SETWIDTH_NAME "Normal"
ADD_STYLE_NAME ""
PIXEL_SIZE 89
POINT_SIZE 640
RESOLUTION_X 100
RESOLUTION_Y 100
SPACING "P"
AVERAGE_WIDTH 438
CHARSET_REGISTRY "ISO10646"
CHARSET_ENCODING "1"
FONT_ASCENT 86
FONT_DESCENT 22
COPYRIGHT "Copyright 2011 The Montserrat Project Authors (https://github.com/JulietaUla/Montserrat)"
_OTF_FONTFILE "montserrat_regular.ttf"
_OTF_PSNAME "Montserrat-Thin"
ENDPROPERTIES
CHARS 969
STARTCHAR 0000
ENCODING 0
SWIDTH 0 0
DWIDTH 0 0
BBX 0 0 0 0
BITMAP
ENDCHAR
STARTCHAR 000D
ENCODING 13
SWIDTH 247 0
DWIDTH 22 0
BBX 0 0 0 0
BITMAP
ENDCHAR
STARTCHAR 0020
ENCODING 32
SWIDTH 247 0
DWIDTH 22 0
BBX 0 0 0 0
BITMAP
ENDCHAR
STARTCHAR 0021
ENCODING 33
SWIDTH 236 0
DWIDTH 21 0
BBX 5 62 8 0
BITMAP
30
30
30
30
30
30
30
30
30
30
30
30
30
30
30
30
30
30
30
30
30
30
30
30
30
30
30
30
30
30
30
30
20
20
20
20
20
20
20
20
20
20
20
20
20
00
00
00
00
00
00
00
00
00
00
00
00
00
78
F8
78
70
ENDCHAR
STARTCHAR 0022
ENCODING 34
SWIDTH 326 0
DWIDTH 29 0
BBX 15 22 7 40
BITMAP
C002
C002
C002
C002
C002
C002
C002
C002
C002
C002
C002
C002
C002
C002
C002
C002
C002
C002
C002
C002
C002
C002
ENDCHAR
STARTCHAR 0023
ENCODING 35
SWIDTH 675 0
DWIDTH 60 0
BBX 54 62 3 0
BITMAP
00001000002000
00003000002000
00003000006000
00003000006000
00003000006000
00003000006000
00003000006000
00003000006000
00002000006000
00006000004000
0000600000C000
0000600000C000
0000600000C000
0000600000C000
0000600000C000
0000600000C000
0000400000C000
0000C000008000
1FFFFFFFFFFFFC
1FFFFFFFFFFFFC
0000C000018000
0000C000018000
0000C000018000
0000C000018000
00008000018000
00008000010000
00018000010000
00018000030000
00018000030000
00018000030000
00018000030000
00018000030000
00010000030000
00010000020000
00030000020000
00030000060000
00030000060000
00030000060000
00030000060000
00030000060000
00020000060000
00020000040000
FFFFFFFFFFFFF0
000600000C0000
000600000C0000
000600000C0000
000600000C0000
000600000C0000
000400000C0000
00040000080000
000C0000080000
000C0000180000
000C0000180000
000C0000180000
000C0000180000
000C0000180000
000C0000180000
00080000180000
00180000100000
00180000300000
00180000300000
00180000300000
ENDCHAR
STARTCHAR 0024
ENCODING 36
SWIDTH 596 0
DWIDTH 53 0
BBX 43 84 5 -11
BITMAP
000006000000
000006000000
000006000000
000006000000
000006000000
000006000000
000006000000
000006000000
000006000000
000006000000
000006000000
0003FFFE0000
001FE63FC000
007C0601F000
00E006003C00
018006000F00
030006000380
060006000000
0C0006000000
0C0006000000
180006000000
180006000000
300006000000
300006000000
300006000000
300006000000
300006000000
300006000000
300006000000
300006000000
300006000000
180006000000
180006000000
0C0006000000
0E0006000000
070006000000
038006000000
01E006000000
007806000000
001F06000000
0003F6000000
00007F000000
000007F00000
0000067E0000
00000607C000
00000600F000
000006003C00
000006000E00
000006000700
000006000380
000006000180
0000060000C0
0000060000C0
000006000060
000006000060
000006000060
000006000060
000006000060
000006000060
000006000060
000006000060
000006000060
000006000040
4000060000C0
E000060001C0
700006000180
380006000300
1E0006000600
070006001C00
01E006007800
007C0601E000
001FF7FF8000
0001FFFC0000
000006000000
000006000000
000006000000
000006000000
000006000000
000006000000
000006000000
000006000000
000006000000
000006000000
000006000000
ENDCHAR
STARTCHAR 0025
ENCODING 37
SWIDTH 798 0
DWIDTH 71 0
BBX 63 62 4 0
BITMAP
007FE00000001800
01E0F00000001800
03801C0000003000
06000E0000006000
0C00070000006000
180003000000C000
1800018000018000
3000018000018000
300000C000030000
600000C000060000
600000C0000C0000
60000060000C0000
4000006000180000
4000006000300000
C000006000300000
C000006000600000
C000006000C00000
C000006000C00000
4000006001800000
4000006003000000
6000006003000000
6000004006000000
600000C00C000000
600000C00C000000
3000008018000000
3000018030000000
1800038030000000
1C00030060000000
0E000600C0000000
07000C00C007FC00
03C03801801FFF00
00FFF00300380380
003F8006006000C0
0000000600C00060
0000000C01800030
0000001803000030
0000001803000018
0000003002000018
000000600600000C
000000600600000C
000000C00400000C
000001800C000004
000001800C000004
000003000C000006
000006000C000006
000006000C000006
00000C000C000006
000018000C000006
000018000C000006
000030000C000004
000060000400000C
0000C0000600000C
0000C0000600000C
0001800006000018
0003000003000018
0003000003000030
0006000001800030
000C000000C00060
000C0000006000C0
0018000000380380
00300000001FBF00
003000000007FC00
ENDCHAR
STARTCHAR 0026
ENCODING 38
SWIDTH 630 0
DWIDTH 56 0
BBX 51 63 5 -1
BITMAP
0000FFF0000000
0003C078000000
000E000E000000
001C0007000000
00380003800000
00300001800000
00600000C00000
00600000C00000
00400000C00000
00C00000C00000
00C00000400000
00C00000C00000
00C00000C00000
00C00000C00000
00C00000C00000
00600001800000
00600001800000
00600003000000
00300006000000
0038000C000000
00180018000000
000C0030000000
000600E0000000
00070180000000
00038700000000
0001CE00000000
0000F800000000
0000E000000000
0001F000000000
00071800000000
000E0C00000000
00380600000000
00700300000000
00C00180000000
038001C0000000
070000E0000000
0E000070000400
0C000038000C00
18000018000C00
3000000C000800
20000006000800
60000003001800
60000001801800
C0000000C01000
C0000000603000
C0000000703000
C0000000386000
C00000001C6000
C00000000EC000
C000000007C000
C0000000038000
60000000018000
6000000003C000
60000000066000
300000000C3000
18000000181800
0C000000300C00
06000000E00E00
03800003800700
00E0000F000380
003F01F80001C0
0007FFC00000E0
00000000000040
ENDCHAR
STARTCHAR 0027
ENCODING 39
SWIDTH 180 0
DWIDTH 16 0
BBX 2 22 7 40
BITMAP
C0
C0
C0
C0
C0
C0
C0
C0
C0
C0
C0
C0
C0
C0
C0
C0
C0
C0
C0
C0
C0
C0
ENDCHAR
STARTCHAR 0028
ENCODING 40
SWIDTH 303 0
DWIDTH 27 0
BBX 11 83 11 -17
BITMAP
0020
0060
00C0
00C0
0180
0180
0300
0300
0200
0600
0600
0400
0C00
0C00
0800
1800
1800
1000
1000
3000
3000
3000
2000
6000
6000
6000
6000
6000
4000
4000
C000
C000
C000
C000
C000
C000
C000
C000
C000
C000
C000
C000
C000
C000
C000
C000
C000
C000
C000
C000
C000
C000
C000
4000
4000
6000
6000
6000
6000
6000
2000
2000
3000
3000
3000
1000
1800
1800
0800
0800
0C00
0C00
0400
0600
0200
0300
0300
0100
0180
0080
00C0
0040
0060
ENDCHAR
STARTCHAR 0029
ENCODING 41
SWIDTH 303 0
DWIDTH 27 0
BBX 12 83 5 -17
BITMAP
C000
6000
2000
3000
1000
1800
1800
0C00
0C00
0400
0600
0600
0200
0300
0300
0100
0180
0180
0180
0080
00C0
00C0
00C0
00C0
0040
0040
0060
0060
0060
0060
0060
0060
0020
0020
0020
0030
0030
0030
0030
0030
0030
0030
0030
0030
0030
0030
0030
0030
0030
0020
0020
0020
0060
0060
0060
0060
0060
0060
0040
00C0
00C0
00C0
00C0
0080
0080
0180
0180
0100
0300
0300
0200
0200
0600
0400
0C00
0C00
0800
1800
1000
3000
2000
6000
4000
ENDCHAR
STARTCHAR 002A
ENCODING 42
SWIDTH 348 0
DWIDTH 31 0
BBX 26 30 3 36
BITMAP
000C0000
000C0000
000C0000
000C0000
000C0000
000C0000
000C0000
800C0040
E00C01C0
780C0700
1C0C1E00
070C3800
01CCE000
00FF8000
003F0000
001E0000
007F8000
01EDE000
078C7000
0E0C1C00
380C0700
F00C03C0
C00C00C0
000C0000
000C0000
000C0000
000C0000
000C0000
000C0000
000C0000
ENDCHAR
STARTCHAR 002B
ENCODING 43
SWIDTH 551 0
DWIDTH 49 0
BBX 36 36 7 13
BITMAP
0000600000
0000600000
0000600000
0000600000
0000600000
0000600000
0000600000
0000600000
0000600000
0000600000
0000600000
0000600000
0000600000
0000600000
0000600000
0000600000
0000600000
FFFFFFFFF0
FFFFFFFFF0
0000600000
0000600000
0000600000
0000600000
0000600000
0000600000
0000600000
0000600000
0000600000
0000600000
0000600000
0000600000
0000600000
0000600000
0000600000
0000600000
0000600000
ENDCHAR
STARTCHAR 002C
ENCODING 44
SWIDTH 180 0
DWIDTH 16 0
BBX 4 16 6 -12
BITMAP
F0
F0
F0
F0
30
30
30
60
60
60
60
40
C0
C0
C0
80
ENDCHAR
STARTCHAR 002D
ENCODING 45
SWIDTH 371 0
DWIDTH 33 0
BBX 22 1 6 23
BITMAP
FFFFFC
ENDCHAR
STARTCHAR 002E
ENCODING 46
SWIDTH 180 0
DWIDTH 16 0
BBX 4 4 6 0
BITMAP
F0
F0
F0
F0
ENDCHAR
STARTCHAR 002F
ENCODING 47
SWIDTH 292 0
DWIDTH 26 0
BBX 31 84 -2 -9
BITMAP
00000006
00000006
00000006
0000000C
0000000C
00000008
00000018
00000018
00000010
00000030
00000030
00000020
00000060
00000060
00000040
000000C0
000000C0
00000180
00000180
00000180
00000300
00000300
00000300
00000600
00000600
00000400
00000C00
00000C00
00000800
00001800
00001800
00001000
00003000
00003000
00002000
00006000
00006000
0000C000
0000C000
0000C000
00018000
00018000
00018000
00030000
00030000
00020000
00060000
00060000
00040000
000C0000
000C0000
00080000
00180000
00180000
00100000
00300000
00300000
00600000
00600000
00600000
00C00000
00C00000
00C00000
01800000
01800000
01000000
03000000
03000000
02000000
06000000
06000000
04000000
0C000000
0C000000
18000000
18000000
18000000
30000000
30000000
30000000
60000000
60000000
40000000
C0000000
ENDCHAR
STARTCHAR 0030
ENCODING 48
SWIDTH 641 0
DWIDTH 57 0
BBX 48 62 5 0
BITMAP
00007FFE0000
0001F81F8000
00078001E000
001E00007800
003800001C00
007000000E00
00C000000700
01C000000380
038000000180
0300000000C0
060000000060
060000000060
0C0000000030
0C0000000030
180000000018
180000000018
30000000000C
30000000000C
30000000000C
600000000004
600000000006
600000000006
600000000006
600000000006
400000000002
C00000000002
C00000000003
C00000000003
C00000000003
C00000000003
C00000000003
C00000000003
C00000000003
C00000000003
C00000000003
C00000000003
400000000002
400000000006
600000000006
600000000006
600000000006
600000000006
200000000004
30000000000C
30000000000C
300000000008
180000000018
180000000018
0C0000000030
0C0000000030
060000000060
060000000060
0300000000C0
018000000180
01C000000380
00E000000700
007000000E00
003800001C00
000E00007000
00078001E000
0001FE7F8000
00003FFC0000
ENDCHAR
STARTCHAR 0031
ENCODING 49
SWIDTH 337 0
DWIDTH 30 0
BBX 18 62 1 0
BITMAP
FFFFC0
0000C0
0000C0
0000C0
0000C0
0000C0
0000C0
0000C0
0000C0
0000C0
0000C0
0000C0
0000C0
0000C0
0000C0
0000C0
0000C0
0000C0
0000C0
0000C0
0000C0
0000C0
0000C0
0000C0
0000C0
0000C0
0000C0
0000C0
0000C0
0000C0
0000C0
0000C0
0000C0
0000C0
0000C0
0000C0
0000C0
0000C0
0000C0
0000C0
0000C0
0000C0
0000C0
0000C0
0000C0
0000C0
0000C0
0000C0
0000C0
0000C0
0000C0
0000C0
0000C0
0000C0
0000C0
0000C0
0000C0
0000C0
0000C0
0000C0
0000C0
0000C0
ENDCHAR
STARTCHAR 0032
ENCODING 50
SWIDTH 551 0
DWIDTH 49 0
BBX 43 62 2 0
BITMAP
000FFFF80000
007F807E0000
01F000078000
07800000E000
0E0000007000
180000003800
700000001800
E00000000C00
400000000600
000000000600
000000000600
000000000300
000000000300
000000000300
000000000300
000000000300
000000000300
000000000300
000000000300
000000000300
000000000200
000000000600
000000000600
000000000C00
000000000C00
000000001800
000000001800
000000003000
000000006000
00000000E000
00000001C000
000000018000
000000030000
000000060000
0000000C0000
000000180000
000000300000
000000600000
000000C00000
000001800000
000003000000
000006000000
00000C000000
000018000000
000030000000
000060000000
0000C0000000
000180000000
000300000000
000600000000
000C00000000
001800000000
003000000000
006000000000
00C000000000
018000000000
030000000000
060000000000
0C0000000000
180000000000
3FFFFFFFFFE0
3FFFFFFFFFE0
ENDCHAR
STARTCHAR 0033
ENCODING 51
SWIDTH 540 0
DWIDTH 48 0
BBX 42 62 2 0
BITMAP
3FFFFFFFFE00
000000000600
000000000C00
000000001800
000000003800
000000003000
000000006000
00000000C000
00000001C000
000000018000
000000030000
000000060000
0000000E0000
0000000C0000
000000180000
000000300000
000000700000
000000600000
000000C00000
000001800000
000003800000
000003000000
000006000000
00000C000000
000018000000
000018000000
000030000000
000060000000
00007FF00000
000000FE0000
000000078000
00000000E000
000000003000
000000001800
000000000C00
000000000600
000000000600
000000000300
000000000100
000000000180
000000000180
000000000180
000000000080
0000000000C0
0000000000C0
0000000000C0
000000000080
000000000080
000000000180
000000000180
000000000180
000000000300
000000000300
C00000000600
600000000600
700000000C00
1C0000001800
0E0000007000
03C00000E000
00F800078000
003FE3FE0000
0007FFF00000
ENDCHAR
STARTCHAR 0034
ENCODING 52
SWIDTH 641 0
DWIDTH 57 0
BBX 52 62 4 0
BITMAP
00000000180000
00000000300000
00000000600000
00000000C00000
00000001800000
00000003800000
00000003000000
00000006000000
0000000C000000
00000018000000
00000030000000
00000070000000
00000060000000
000000C0000000
00000180000000
00000300000000
00000600000000
00000E00000000
00000C00000000
00001800000000
00003000000000
00006000000000
0000C000000000
0000C000000000
00018000000000
00030000000000
000600000C0000
000C00000C0000
001C00000C0000
001800000C0000
003000000C0000
006000000C0000
00C000000C0000
018000000C0000
038000000C0000
030000000C0000
060000000C0000
0C0000000C0000
180000000C0000
300000000C0000
700000000C0000
600000000C0000
FFFFFFFFFFFFF0
FFFFFFFFFFFFF0
000000000C0000
000000000C0000
000000000C0000
000000000C0000
000000000C0000
000000000C0000
000000000C0000
000000000C0000
000000000C0000
000000000C0000
000000000C0000
000000000C0000
000000000C0000
000000000C0000
000000000C0000
000000000C0000
000000000C0000
000000000C0000
ENDCHAR
STARTCHAR 0035
ENCODING 53
SWIDTH 540 0
DWIDTH 48 0
BBX 42 62 3 0
BITMAP
01FFFFFFFE00
018000000000
010000000000
010000000000
030000000000
030000000000
030000000000
030000000000
030000000000
030000000000
030000000000
020000000000
020000000000
060000000000
060000000000
060000000000
060000000000
060000000000
060000000000
040000000000
040000000000
040000000000
0C0000000000
0C0000000000
0C0000000000
0C0000000000
0C0000000000
0FFFFFC00000
00007FFC0000
0000001F8000
00000003C000
000000007000
000000003800
000000000C00
000000000600
000000000600
000000000300
000000000100
000000000180
000000000180
000000000180
0000000000C0
0000000000C0
0000000000C0
0000000000C0
0000000000C0
0000000000C0
000000000080
000000000180
000000000180
000000000180
000000000300
000000000300
C00000000600
600000000600
300000000C00
1C0000001800
0E0000007000
03C00000E000
00F800078000
003FE3FE0000
0003FFF00000
ENDCHAR
STARTCHAR 0036
ENCODING 54
SWIDTH 585 0
DWIDTH 52 0
BBX 44 62 5 0
BITMAP
00001FFFE000
0000FE01FC00
0003C0000F00
000F00000200
001C00000000
007000000000
00E000000000
01C000000000
018000000000
030000000000
060000000000
060000000000
0C0000000000
080000000000
180000000000
100000000000
300000000000
300000000000
200000000000
600000000000
600000000000
600000000000
600000000000
400000000000
400000000000
C00000000000
C0003FFC0000
C001FFFF8000
C0078001E000
C01E00003800
C03800001C00
C06000000600
C0C000000300
C18000000180
C300000000C0
C600000000C0
C60000000060
4C0000000060
6C0000000030
680000000030
780000000030
780000000030
780000000030
380000000010
380000000010
380000000030
180000000030
180000000030
180000000030
0C0000000030
0C0000000060
060000000060
0600000000C0
0300000000C0
018000000180
00C000000300
006000000700
003800000E00
001C00003800
00078000F000
0001FE3FC000
00003FFE0000
ENDCHAR
STARTCHAR 0037
ENCODING 55
SWIDTH 562 0
DWIDTH 50 0
BBX 43 62 3 0
BITMAP
FFFFFFFFFFE0
C00000000060
C00000000060
C000000000C0
C000000000C0
C00000000180
C00000000180
C00000000380
C00000000300
C00000000300
C00000000600
C00000000600
C00000000C00
C00000000C00
000000001800
000000001800
000000003000
000000003000
000000006000
000000006000
000000006000
00000000C000
00000000C000
000000018000
000000018000
000000030000
000000030000
000000060000
000000060000
0000000C0000
0000000C0000
0000001C0000
000000180000
000000180000
000000300000
000000300000
000000600000
000000600000
000000C00000
000000C00000
000001800000
000001800000
000003800000
000003000000
000003000000
000006000000
000006000000
00000C000000
00000C000000
000018000000
000018000000
000030000000
000030000000
000060000000
000060000000
0000E0000000
0000C0000000
0000C0000000
000180000000
000180000000
000300000000
000300000000
ENDCHAR
STARTCHAR 0038
ENCODING 56
SWIDTH 618 0
DWIDTH 55 0
BBX 46 62 5 0
BITMAP
0003FFFE0000
000FC01FC000
007C0000F000
00E000003800
01C000000E00
030000000700
060000000380
0C0000000180
0C00000000C0
1800000000C0
180000000060
300000000060
300000000060
300000000060
300000000020
300000000020
300000000060
300000000060
300000000060
180000000060
1800000000C0
0C00000000C0
0C0000000180
060000000380
030000000700
01C000000E00
00E000003800
003C0001E000
000FF03F8000
0000FFFC0000
001FF07FC000
00780000F000
01E000001C00
038000000700
0E0000000380
1C00000001C0
1800000000E0
300000000060
600000000030
600000000010
400000000018
C00000000018
C00000000018
C00000000008
C0000000000C
C0000000000C
C0000000000C
C00000000008
C00000000018
C00000000018
600000000018
600000000030
600000000030
300000000060
1800000000E0
1C00000001C0
0E0000000380
038000000700
01E000001C00
007C0000F800
001FF8FFC000
0003FFFE0000
ENDCHAR
STARTCHAR 0039
ENCODING 57
SWIDTH 585 0
DWIDTH 52 0
BBX 44 62 3 0
BITMAP
0007FFF00000
003F00FC0000
0078000F0000
01C00001C000
03800000E000
060000003000
0C0000001800
180000000C00
180000000600
300000000600
300000000300
600000000300
600000000180
600000000180
C000000001C0
C000000000C0
C000000000C0
C000000000E0
C000000000E0
C000000000E0
C000000000E0
4000000001B0
6000000001B0
600000000130
600000000330
300000000330
300000000630
180000000C30
0C0000001C10
0E0000003810
070000007010
03C00000E010
00F000038010
003E001E0010
000FFFF80030
0000FF800030
000000000030
000000000030
000000000030
000000000030
000000000030
000000000020
000000000060
000000000060
000000000060
0000000000C0
0000000000C0
000000000080
000000000180
000000000100
000000000300
000000000600
000000000E00
000000000C00
000000001800
000000007000
00000000E000
00000003C000
0600000F0000
0780003C0000
01FF1FF00000
003FFF800000
ENDCHAR
STARTCHAR 003A
ENCODING 58
SWIDTH 180 0
DWIDTH 16 0
BBX 4 46 6 0
BITMAP
F0
F0
F0
F0
00
00
00
00
00
00
00
00
00
00
00
00
00
00
00
00
00
00
00
00
00
00
00
00
00
00
00
00
00
00
00
00
00
00
00
00
00
00
F0
F0
F0
F0
ENDCHAR
STARTCHAR 003B
ENCODING 59
SWIDTH 180 0
DWIDTH 16 0
BBX 4 58 6 -12
BITMAP
F0
F0
F0
F0
00
00
00
00
00
00
00
00
00
00
00
00
00
00
00
00
00
00
00
00
00
00
00
00
00
00
00
00
00
00
00
00
00
00
00
00
00
00
F0
F0
F0
F0
30
30
30
60
60
60
60
40
C0
C0
C0
80
ENDCHAR
STARTCHAR 003C
ENCODING 60
SWIDTH 551 0
DWIDTH 49 0
BBX 36 32 7 15
BITMAP
0000000030
00000000F0
00000007C0
0000001F00
0000007800
000003E000
00000F0000
00007C0000
0001F00000
0007800000
003E000000
00F0000000
07C0000000
1F00000000
7800000000
E000000000
E000000000
7C00000000
0F00000000
03C0000000
00F8000000
001E000000
0007C00000
0000F00000
00003E0000
00000F8000
000001E000
0000007C00
0000000F00
00000003E0
00000000F0
0000000010
ENDCHAR
STARTCHAR 003D
ENCODING 61
SWIDTH 551 0
DWIDTH 49 0
BBX 36 21 7 21
BITMAP
FFFFFFFFF0
FFFFFFFFF0
0000000000
0000000000
0000000000
0000000000
0000000000
0000000000
0000000000
0000000000
0000000000
0000000000
0000000000
0000000000
0000000000
0000000000
0000000000
0000000000
0000000000
0000000000
FFFFFFFFF0
ENDCHAR
STARTCHAR 003E
ENCODING 62
SWIDTH 551 0
DWIDTH 49 0
BBX 36 32 7 15
BITMAP
C000000000
F000000000
3C00000000
0F80000000
03E0000000
007C000000
001F000000
0003C00000
0000F80000
00001E0000
000007C000
000001F000
0000003C00
0000000F80
00000001E0
0000000070
0000000070
00000003E0
0000000F00
0000007C00
000001E000
00000F8000
00003E0000
0000F00000
0007C00000
001E000000
00F8000000
03E0000000
0F00000000
7C00000000
E000000000
8000000000
ENDCHAR
STARTCHAR 003F
ENCODING 63
SWIDTH 551 0
DWIDTH 49 0
BBX 39 62 2 0
BITMAP
000FFFF000
007F00FE00
03E0000780
07000001C0
1C00000060
3800000030
6000000018
C00000001C
000000000C
0000000006
0000000006
0000000006
0000000006
0000000002
0000000002
0000000002
0000000006
0000000006
0000000006
0000000006
000000000C
000000000C
0000000018
0000000018
0000000030
0000000060
00000000E0
00000001C0
0000000380
0000000600
0000000C00
0000001800
0000003000
0000006000
000000C000
0000018000
0000038000
0000030000
0000060000
0000060000
0000060000
0000040000
00000C0000
00000C0000
00000C0000
0000000000
0000000000
0000000000
0000000000
0000000000
0000000000
0000000000
0000000000
0000000000
0000000000
0000000000
0000000000
0000000000
00001E0000
00001E0000
00001E0000
00001E0000
ENDCHAR
STARTCHAR 0040
ENCODING 64
SWIDTH 1023 0
DWIDTH 91 0
BBX 81 80 5 -18
BITMAP
00000001FFFFE000000000
0000001FF003FE00000000
000000FC00000FC0000000
000003C0000001F0000000
00000F000000003C000000
00003C000000000F000000
0000700000000003800000
0001C00000000000E00000
0003800000000000700000
0006000000000000380000
000C0000000000000C0000
0018000000000000060000
0030000000000000030000
0060000000000000018000
00C000000000000001C000
01C000000000000000C000
018000001FFC0006006000
03000000FF7F8006003000
07000003C001E006003000
0600000E00003806001800
0C00003800001C06001800
0C00007000000606000C00
180000E000000306000C00
180001C000000186000600
18000180000000C6000600
3000030000000066000200
3000060000000026000300
3000060000000036000300
60000C0000000016000300
60000C000000001E000180
600018000000000E000180
600018000000000E000180
600018000000000E000180
400010000000000E000180
C000300000000006000180
C000300000000006000080
C000300000000006000080
C000300000000006000080
C000300000000006000080
C000300000000006000080
C000300000000006000080
C000300000000006000080
C000300000000006000080
C000300000000006000080
C00010000000000E000180
400018000000000E000180
600018000000000E000180
600018000000001E000180
60000C000000001E000180
60000C0000000016000100
6000060000000036000300
3000060000000066000300
3000030000000066000300
30000180000000C6000600
180001C000000186000600
180000E000000306000C00
1800007000000606000C00
0C00003800001C03001800
0C00000E00003803003800
06000007C001E001807000
07000001FE3F8000FBC000
030000003FFE00007F8000
0180000000000000000000
01C0000000000000000000
00C0000000000000000000
0060000000000000000000
0030000000000000000000
0018000000000000000000
000C000000000000000000
0007000000000000000000
0003800000000000000000
0001C00000000000000000
0000700000000000000000
00003C0000000000000000
00000F00000000C0000000
000003E0000003C0000000
000000FC00003F00000000
0000001FF007F800000000
00000001FFFFC000000000
0000000002800000000000
ENDCHAR
STARTCHAR 0041
ENCODING 65
SWIDTH 686 0
DWIDTH 61 0
BBX 59 62 1 0
BITMAP
0000000E00000000
0000000E00000000
0000001B00000000
0000001B00000000
0000003980000000
0000003180000000
00000030C0000000
00000060C0000000
0000006060000000
000000C060000000
000000C060000000
0000018030000000
0000018030000000
0000030018000000
0000030018000000
000006000C000000
000006000C000000
00000C0006000000
00000C0006000000
00000C0003000000
0000180003000000
0000180001800000
0000300001800000
0000300001800000
0000600000C00000
0000600000C00000
0000C00000600000
0000C00000600000
0001800000300000
0001800000300000
0003000000180000
0003000000180000
00070000000C0000
00060000000C0000
0006000000060000
000C000000060000
000C000000070000
0018000000030000
0018000000030000
0030000000018000
0030000000018000
006000000000C000
007FFFFFFFFFC000
00C0000000006000
00C0000000006000
01C0000000003000
0180000000003000
0180000000001800
0300000000001800
0300000000000C00
0600000000000C00
0600000000000C00
0C00000000000600
0C00000000000600
1800000000000300
1800000000000300
3000000000000180
3000000000000180
60000000000000C0
60000000000000C0
E000000000000060
C000000000000060
ENDCHAR
STARTCHAR 0042
ENCODING 66
SWIDTH 742 0
DWIDTH 66 0
BBX 49 62 12 0
BITMAP
FFFFFFFF000000
C000007FE00000
C00000007C0000
C00000000E0000
C0000000038000
C000000001C000
C000000000E000
C0000000006000
C0000000003000
C0000000003000
C0000000001800
C0000000001800
C0000000001800
C0000000001800
C0000000000800
C0000000000800
C0000000000800
C0000000001800
C0000000001800
C0000000001800
C0000000001800
C0000000003000
C0000000003000
C0000000006000
C000000000E000
C000000001C000
C0000000038000
C00000000E0000
C0000000780000
C000003FE00000
FFFFFFFFF00000
C0000001FE0000
C0000000078000
C000000001E000
C0000000007000
C0000000001800
C0000000000C00
C0000000000600
C0000000000600
C0000000000300
C0000000000300
C0000000000300
C0000000000100
C0000000000180
C0000000000180
C0000000000180
C0000000000180
C0000000000180
C0000000000180
C0000000000100
C0000000000300
C0000000000300
C0000000000600
C0000000000600
C0000000000C00
C0000000001C00
C0000000003800
C0000000006000
C000000003C000
C00000001F0000
FFFFFFFFFC0000
FFFFFFFFC00000
ENDCHAR
STARTCHAR 0043
ENCODING 67
SWIDTH 708 0
DWIDTH 63 0
BBX 53 62 5 0
BITMAP
000000FFFF8000
00000FF00FF000
00003E00003C00
0000F000000F00
0003C0000001C0
000700000000E0
000E0000000030
00380000000018
00700000000000
00E00000000000
01C00000000000
01800000000000
03000000000000
06000000000000
06000000000000
0C000000000000
0C000000000000
18000000000000
18000000000000
30000000000000
30000000000000
20000000000000
60000000000000
60000000000000
60000000000000
40000000000000
C0000000000000
C0000000000000
C0000000000000
C0000000000000
C0000000000000
C0000000000000
C0000000000000
C0000000000000
C0000000000000
40000000000000
40000000000000
60000000000000
60000000000000
60000000000000
30000000000000
30000000000000
30000000000000
18000000000000
18000000000000
0C000000000000
0C000000000000
06000000000000
07000000000000
03000000000000
01800000000000
00C00000000000
00600000000000
00300000000008
001C0000000018
000E0000000070
000780000000E0
0001C000000380
0000F800000F00
00003F00007C00
000007FE7FE000
0000007FFF0000
ENDCHAR
STARTCHAR 0044
ENCODING 68
SWIDTH 821 0
DWIDTH 73 0
BBX 56 62 12 0
BITMAP
FFFFFFFE000000
C00000FFE00000
C0000000FC0000
C00000000F0000
C000000003C000
C000000000E000
C0000000003800
C0000000001C00
C0000000000E00
C0000000000300
C0000000000180
C00000000000C0
C00000000000E0
C0000000000060
C0000000000030
C0000000000030
C0000000000018
C0000000000008
C000000000000C
C000000000000C
C0000000000006
C0000000000006
C0000000000006
C0000000000002
C0000000000003
C0000000000003
C0000000000003
C0000000000003
C0000000000003
C0000000000003
C0000000000003
C0000000000003
C0000000000003
C0000000000003
C0000000000003
C0000000000003
C0000000000003
C0000000000003
C0000000000002
C0000000000006
C0000000000006
C0000000000006
C000000000000C
C000000000000C
C0000000000018
C0000000000018
C0000000000030
C0000000000030
C0000000000060
C00000000000C0
C00000000001C0
C0000000000380
C0000000000700
C0000000000E00
C0000000001C00
C0000000007000
C000000000E000
C0000000038000
C00000001F0000
C0000001F80000
FFFFFFFFC00000
FFFFFFFC000000
ENDCHAR
STARTCHAR 0045
ENCODING 69
SWIDTH 663 0
DWIDTH 59 0
BBX 41 62 12 0
BITMAP
FFFFFFFFFF00
C00000000000
C00000000000
C00000000000
C00000000000
C00000000000
C00000000000
C00000000000
C00000000000
C00000000000
C00000000000
C00000000000
C00000000000
C00000000000
C00000000000
C00000000000
C00000000000
C00000000000
C00000000000
C00000000000
C00000000000
C00000000000
C00000000000
C00000000000
C00000000000
C00000000000
C00000000000
C00000000000
C00000000000
C00000000000
FFFFFFFFF000
C00000000000
C00000000000
C00000000000
C00000000000
C00000000000
C00000000000
C00000000000
C00000000000
C00000000000
C00000000000
C00000000000
C00000000000
C00000000000
C00000000000
C00000000000
C00000000000
C00000000000
C00000000000
C00000000000
C00000000000
C00000000000
C00000000000
C00000000000
C00000000000
C00000000000
C00000000000
C00000000000
C00000000000
C00000000000
FFFFFFFFFF80
FFFFFFFFFF80
ENDCHAR
STARTCHAR 0046
ENCODING 70
SWIDTH 618 0
DWIDTH 55 0
BBX 40 62 12 0
BITMAP
FFFFFFFFFF
C000000000
C000000000
C000000000
C000000000
C000000000
C000000000
C000000000
C000000000
C000000000
C000000000
C000000000
C000000000
C000000000
C000000000
C000000000
C000000000
C000000000
C000000000
C000000000
C000000000
C000000000
C000000000
C000000000
C000000000
C000000000
C000000000
C000000000
C000000000
C000000000
C000000000
FFFFFFFFF0
FFFFFFFFF0
C000000000
C000000000
C000000000
C000000000
C000000000
C000000000
C000000000
C000000000
C000000000
C000000000
C000000000
C000000000
C000000000
C000000000
C000000000
C000000000
C000000000
C000000000
C000000000
C000000000
C000000000
C000000000
C000000000
C000000000
C000000000
C000000000
C000000000
C000000000
C000000000
ENDCHAR
STARTCHAR 0047
ENCODING 71
SWIDTH 765 0
DWIDTH 68 0
BBX 54 62 5 0
BITMAP
000000FFFF8000
000007F00FF000
00003E00003E00
0000F000000780
0003C0000001C0
00070000000070
000E0000000038
0038000000001C
00700000000000
00E00000000000
01C00000000000
01800000000000
03000000000000
06000000000000
06000000000000
0C000000000000
0C000000000000
18000000000000
18000000000000
30000000000000
30000000000000
20000000000000
60000000000000
60000000000000
60000000000000
40000000000000
C0000000000000
C0000000000000
C0000000000000
C0000000000000
C0000000000000
C0000000000000
C000000000000C
C000000000000C
C000000000000C
4000000000000C
4000000000000C
6000000000000C
6000000000000C
6000000000000C
3000000000000C
3000000000000C
3000000000000C
1800000000000C
1800000000000C
0C00000000000C
0C00000000000C
0600000000000C
0700000000000C
0300000000000C
0180000000000C
00C0000000000C
0060000000000C
0030000000000C
001C000000001C
000E0000000038
000780000000E0
0001E0000001C0
0000F800000F00
00001F00007C00
000007FE7FF000
0000007FFF0000
ENDCHAR
STARTCHAR 0048
ENCODING 72
SWIDTH 810 0
DWIDTH 72 0
BBX 49 62 12 0
BITMAP
C0000000000180
C0000000000180
C0000000000180
C0000000000180
C0000000000180
C0000000000180
C0000000000180
C0000000000180
C0000000000180
C0000000000180
C0000000000180
C0000000000180
C0000000000180
C0000000000180
C0000000000180
C0000000000180
C0000000000180
C0000000000180
C0000000000180
C0000000000180
C0000000000180
C0000000000180
C0000000000180
C0000000000180
C0000000000180
C0000000000180
C0000000000180
C0000000000180
C0000000000180
C0000000000180
FFFFFFFFFFFF80
C0000000000180
C0000000000180
C0000000000180
C0000000000180
C0000000000180
C0000000000180
C0000000000180
C0000000000180
C0000000000180
C0000000000180
C0000000000180
C0000000000180
C0000000000180
C0000000000180
C0000000000180
C0000000000180
C0000000000180
C0000000000180
C0000000000180
C0000000000180
C0000000000180
C0000000000180
C0000000000180
C0000000000180
C0000000000180
C0000000000180
C0000000000180
C0000000000180
C0000000000180
C0000000000180
C0000000000180
ENDCHAR
STARTCHAR 0049
ENCODING 73
SWIDTH 281 0
DWIDTH 25 0
BBX 2 62 12 0
BITMAP
C0
C0
C0
C0
C0
C0
C0
C0
C0
C0
C0
C0
C0
C0
C0
C0
C0
C0
C0
C0
C0
C0
C0
C0
C0
C0
C0
C0
C0
C0
C0
C0
C0
C0
C0
C0
C0
C0
C0
C0
C0
C0
C0
C0
C0
C0
C0
C0
C0
C0
C0
C0
C0
C0
C0
C0
C0
C0
C0
C0
C0
C0
ENDCHAR
STARTCHAR 004A
ENCODING 74
SWIDTH 472 0
DWIDTH 42 0
BBX 31 62 0 0
BITMAP
03FFFFFE
00000006
00000006
00000006
00000006
00000006
00000006
00000006
00000006
00000006
00000006
00000006
00000006
00000006
00000006
00000006
00000006
00000006
00000006
00000006
00000006
00000006
00000006
00000006
00000006
00000006
00000006
00000006
00000006
00000006
00000006
00000006
00000006
00000006
00000006
00000006
00000006
00000006
00000006
00000006
00000006
00000006
00000006
00000006
00000006
00000006
00000006
00000006
00000006
00000006
00000006
0000000C
4000000C
C000000C
60000018
30000018
18000030
0C000070
070000E0
03C003C0
00FE7F00
001FF800
ENDCHAR
STARTCHAR 004B
ENCODING 75
SWIDTH 686 0
DWIDTH 61 0
BBX 48 62 12 0
BITMAP
C0000000001C
C00000000030
C00000000070
C000000000E0
C000000001C0
C00000000380
C00000000700
C00000000E00
C00000001C00
C00000003800
C00000007000
C0000000E000
C0000001C000
C00000038000
C00000070000
C000000E0000
C000001C0000
C00000380000
C00000700000
C00000600000
C00000C00000
C00001800000
C00003000000
C00006000000
C0000C000000
C00018000000
C00030000000
C00060000000
C000E0000000
C001E0000000
C00330000000
C00618000000
C00C0C000000
C01806000000
C03007000000
C06003800000
C0C001C00000
C18000E00000
C30000600000
C60000300000
CC0000180000
D800000C0000
F80000060000
F00000070000
E00000038000
C0000001C000
C0000000C000
C00000006000
C00000003000
C00000001800
C00000000C00
C00000000600
C00000000700
C00000000380
C000000001C0
C000000000C0
C00000000060
C00000000030
C00000000018
C0000000000C
C0000000000E
C00000000007
ENDCHAR
STARTCHAR 004C
ENCODING 76
SWIDTH 573 0
DWIDTH 51 0
BBX 39 62 12 0
BITMAP
C000000000
C000000000
C000000000
C000000000
C000000000
C000000000
C000000000
C000000000
C000000000
C000000000
C000000000
C000000000
C000000000
C000000000
C000000000
C000000000
C000000000
C000000000
C000000000
C000000000
C000000000
C000000000
C000000000
C000000000
C000000000
C000000000
C000000000
C000000000
C000000000
C000000000
C000000000
C000000000
C000000000
C000000000
C000000000
C000000000
C000000000
C000000000
C000000000
C000000000
C000000000
C000000000
C000000000
C000000000
C000000000
C000000000
C000000000
C000000000
C000000000
C000000000
C000000000
C000000000
C000000000
C000000000
C000000000
C000000000
C000000000
C000000000
C000000000
C000000000
FFFFFFFFFE
FFFFFFFFFE
ENDCHAR
STARTCHAR 004D
ENCODING 77
SWIDTH 945 0
DWIDTH 84 0
BBX 61 62 12 0
BITMAP
C000000000000018
C000000000000018
E000000000000038
E000000000000038
F000000000000078
D8000000000000D8
D8000000000000D8
CC00000000000198
CC00000000000198
C600000000000318
C600000000000218
C300000000000618
C180000000000C18
C180000000000C18
C0C0000000001818
C0C0000000001818
C060000000003018
C060000000002018
C030000000006018
C01800000000C018
C01800000000C018
C00C000000018018
C00C000000018018
C006000000030018
C006000000020018
C003000000060018
C0018000000C0018
C0018000000C0018
C000C00000180018
C000C00000180018
C000600000300018
C000200000200018
C000300000600018
C000180000C00018
C000180000C00018
C0000C0001800018
C0000C0001800018
C000060003000018
C000020002000018
C000030006000018
C00001800C000018
C00001800C000018
C00000C018000018
C00000C018000018
C000006030000018
C000003020000018
C000003060000018
C0000018C0000018
C0000018C0000018
C000000D80000018
C000000D80000018
C000000700000018
C000000200000018
C000000000000018
C000000000000018
C000000000000018
C000000000000018
C000000000000018
C000000000000018
C000000000000018
C000000000000018
C000000000000018
ENDCHAR
STARTCHAR 004E
ENCODING 78
SWIDTH 810 0
DWIDTH 72 0
BBX 49 62 12 0
BITMAP
C0000000000180
E0000000000180
E0000000000180
F0000000000180
D8000000000180
DC000000000180
CE000000000180
C6000000000180
C3000000000180
C1800000000180
C1C00000000180
C0C00000000180
C0600000000180
C0300000000180
C0380000000180
C01C0000000180
C00C0000000180
C0060000000180
C0030000000180
C0038000000180
C0018000000180
C000C000000180
C0006000000180
C0007000000180
C0003000000180
C0001800000180
C0000C00000180
C0000E00000180
C0000700000180
C0000300000180
C0000180000180
C00000C0000180
C00000E0000180
C0000060000180
C0000030000180
C0000018000180
C000001C000180
C000000E000180
C0000006000180
C0000003000180
C0000001800180
C0000001C00180
C0000000C00180
C0000000600180
C0000000300180
C0000000380180
C00000001C0180
C00000000C0180
C0000000060180
C0000000030180
C0000000038180
C0000000018180
C000000000C180
C0000000006180
C0000000007180
C0000000003180
C0000000001980
C0000000000D80
C0000000000F80
C0000000000780
C0000000000380
C0000000000180
ENDCHAR
STARTCHAR 004F
ENCODING 79
SWIDTH 832 0
DWIDTH 74 0
BBX 64 62 5 0
BITMAP
000000FFFF800000
00000FF00FF00000
00003E00007C0000
0000F000000F0000
0003C0000003C000
000700000000E000
000C000000003800
0038000000001C00
0070000000000E00
00E0000000000700
01C0000000000380
01800000000001C0
03000000000000C0
0600000000000060
0600000000000030
0C00000000000030
0C00000000000018
1800000000000018
180000000000000C
300000000000000C
3000000000000004
2000000000000006
6000000000000006
6000000000000006
6000000000000002
4000000000000003
C000000000000003
C000000000000003
C000000000000003
C000000000000003
C000000000000003
C000000000000003
C000000000000003
C000000000000003
C000000000000003
4000000000000003
4000000000000003
6000000000000002
6000000000000006
6000000000000006
2000000000000006
300000000000000C
300000000000000C
180000000000000C
1800000000000018
0C00000000000018
0C00000000000030
0600000000000070
0700000000000060
03000000000000C0
0180000000000180
00C0000000000380
0060000000000700
0030000000000E00
0018000000001C00
000E000000007000
000700000000E000
0001C0000003C000
0000F800000F0000
00003F00007C0000
000007FC3FE00000
0000007FFF000000
ENDCHAR
STARTCHAR 0050
ENCODING 80
SWIDTH 708 0
DWIDTH 63 0
BBX 45 62 12 0
BITMAP
FFFFFFF80000
C00003FF0000
C0000003E000
C00000007000
C00000001C00
C00000000600
C00000000300
C00000000180
C000000000C0
C00000000060
C00000000060
C00000000030
C00000000030
C00000000010
C00000000018
C00000000018
C00000000018
C00000000018
C00000000018
C00000000018
C00000000008
C00000000008
C00000000018
C00000000018
C00000000018
C00000000018
C00000000010
C00000000030
C00000000030
C00000000060
C00000000060
C000000000C0
C00000000180
C00000000380
C00000000700
C00000000E00
C00000003800
C0000000E000
C000001F8000
FFFFFFFE0000
FFFFFF800000
C00000000000
C00000000000
C00000000000
C00000000000
C00000000000
C00000000000
C00000000000
C00000000000
C00000000000
C00000000000
C00000000000
C00000000000
C00000000000
C00000000000
C00000000000
C00000000000
C00000000000
C00000000000
C00000000000
C00000000000
C00000000000
ENDCHAR
STARTCHAR 0051
ENCODING 81
SWIDTH 832 0
DWIDTH 74 0
BBX 67 73 5 -11
BITMAP
000000FFFF80000000
00000FF00FF0000000
00003E00007C000000
0000F000000F000000
0003C0000003C00000
000700000000E00000
000E00000000380000
0038000000001C0000
0070000000000E0000
00E000000000070000
01C000000000038000
01800000000001C000
03000000000000C000
060000000000006000
060000000000007000
0C0000000000003000
0C0000000000001800
180000000000001800
180000000000000C00
300000000000000C00
300000000000000400
200000000000000600
600000000000000600
600000000000000600
600000000000000200
400000000000000300
C00000000000000300
C00000000000000300
C00000000000000300
C00000000000000300
C00000000000000300
C00000000000000300
C00000000000000300
C00000000000000300
C00000000000000300
400000000000000300
400000000000000300
600000000000000200
600000000000000600
600000000000000600
300000000000000600
300000000000000C00
300000000000000C00
180000000000000C00
180000000000001800
0C0000000000001800
0C0000000000003000
060000000000007000
070000000000006000
03000000000000C000
018000000000018000
00C000000000038000
006000000000070000
0030000000000E0000
001C000000001C0000
000E00000000700000
000780000000E00000
0001C0000003C00000
0000F800000F000000
00003F00007C000000
000007FE3FE0000000
0000007FFF00000000
000000007000000000
000000001800000000
000000000C00000000
000000000600000040
0000000003800000E0
0000000001C00001C0
0000000000F0000380
000000000038000E00
00000000001F003C00
000000000007FFF000
000000000000FF8000
ENDCHAR
STARTCHAR 0052
ENCODING 82
SWIDTH 708 0
DWIDTH 63 0
BBX 46 62 12 0
BITMAP
FFFFFFF80000
C00003FF0000
C0000003E000
C00000007000
C00000001C00
C00000000600
C00000000300
C00000000180
C000000000C0
C00000000060
C00000000060
C00000000030
C00000000030
C00000000010
C00000000018
C00000000018
C00000000018
C00000000018
C00000000018
C00000000018
C00000000008
C00000000008
C00000000018
C00000000018
C00000000018
C00000000018
C00000000010
C00000000030
C00000000030
C00000000060
C00000000060
C000000000C0
C00000000180
C00000000380
C00000000700
C00000000E00
C00000003800
C0000000E000
C000001F8000
FFFFFFFE0000
FFFFFF8E0000
C00000060000
C00000030000
C00000018000
C0000001C000
C0000000C000
C00000006000
C00000003000
C00000003000
C00000001800
C00000000C00
C00000000E00
C00000000600
C00000000300
C00000000180
C000000001C0
C000000000C0
C00000000060
C00000000070
C00000000030
C00000000018
C0000000000C
ENDCHAR
STARTCHAR 0053
ENCODING 83
SWIDTH 596 0
DWIDTH 53 0
BBX 43 62 5 0
BITMAP
0003FFFE0000
001FE03FC000
007C0001F000
00E000003C00
018000000F00
030000000380
060000000000
0C0000000000
0C0000000000
180000000000
180000000000
300000000000
300000000000
300000000000
300000000000
300000000000
300000000000
300000000000
300000000000
300000000000
180000000000
180000000000
0C0000000000
0E0000000000
070000000000
038000000000
01E000000000
007800000000
001F00000000
0003F0000000
00007F000000
000007F00000
0000007E0000
00000007C000
00000000F000
000000003C00
000000000E00
000000000700
000000000380
000000000180
0000000000C0
0000000000C0
000000000060
000000000060
000000000060
000000000060
000000000060
000000000060
000000000060
000000000060
000000000060
000000000040
4000000000C0
E000000001C0
700000000180
380000000300
1E0000000600
070000001C00
01E000007800
007C0001E000
001FF1FF8000
0001FFFC0000
ENDCHAR
STARTCHAR 0054
ENCODING 84
SWIDTH 540 0
DWIDTH 48 0
BBX 48 62 0 0
BITMAP
FFFFFFFFFFFF
000001800000
000001800000
000001800000
000001800000
000001800000
000001800000
000001800000
000001800000
000001800000
000001800000
000001800000
000001800000
000001800000
000001800000
000001800000
000001800000
000001800000
000001800000
000001800000
000001800000
000001800000
000001800000
000001800000
000001800000
000001800000
000001800000
000001800000
000001800000
000001800000
000001800000
000001800000
000001800000
000001800000
000001800000
000001800000
000001800000
000001800000
000001800000
000001800000
000001800000
000001800000
000001800000
000001800000
000001800000
000001800000
000001800000
000001800000
000001800000
000001800000
000001800000
000001800000
000001800000
000001800000
000001800000
000001800000
000001800000
000001800000
000001800000
000001800000
000001800000
000001800000
ENDCHAR
STARTCHAR 0055
ENCODING 85
SWIDTH 787 0
DWIDTH 70 0
BBX 48 62 11 0
BITMAP
C00000000001
C00000000001
C00000000001
C00000000001
C00000000001
C00000000001
C00000000001
C00000000001
C00000000001
C00000000001
C00000000001
C00000000001
C00000000001
C00000000001
C00000000001
C00000000001
C00000000001
C00000000001
C00000000001
C00000000001
C00000000001
C00000000001
C00000000001
C00000000001
C00000000001
C00000000001
C00000000001
C00000000001
C00000000001
C00000000001
C00000000001
C00000000001
C00000000001
C00000000001
C00000000001
C00000000001
C00000000003
C00000000003
C00000000003
C00000000003
C00000000003
400000000003
600000000003
600000000003
600000000002
600000000006
200000000006
300000000006
30000000000C
18000000000C
180000000018
0C0000000018
0C0000000030
060000000070
030000000060
0180000000C0
00C000000380
007000000700
003C00001C00
000F0000F800
0003FE7FE000
00007FFE0000
ENDCHAR
STARTCHAR 0056
ENCODING 86
SWIDTH 663 0
DWIDTH 59 0
BBX 57 62 1 0
BITMAP
C000000000000180
6000000000000180
6000000000000300
3000000000000300
3000000000000700
3800000000000600
1800000000000600
1800000000000C00
0C00000000000C00
0C00000000001800
0600000000001800
0600000000003000
0300000000003000
0300000000007000
0180000000006000
0180000000006000
018000000000C000
00C000000000C000
00C0000000018000
0060000000018000
0060000000030000
0030000000030000
0030000000060000
0018000000060000
0018000000060000
00180000000C0000
000C0000000C0000
000C000000180000
0006000000180000
0006000000300000
0003000000300000
0003000000600000
0001800000600000
0001800000E00000
0000C00000C00000
0000C00000C00000
0000C00001800000
0000600001800000
0000600003000000
0000300003000000
0000300006000000
0000180006000000
000018000C000000
00000C000C000000
00000C000C000000
00000C0018000000
0000060018000000
0000060030000000
0000030030000000
0000030060000000
0000018060000000
00000180C0000000
000000C0C0000000
000000C1C0000000
0000004180000000
0000006180000000
0000006300000000
0000003300000000
0000003600000000
0000001E00000000
0000001C00000000
0000000C00000000
ENDCHAR
STARTCHAR 0057
ENCODING 87
SWIDTH 1080 0
DWIDTH 96 0
BBX 88 62 4 0
BITMAP
C000000000180000000003
6000000000380000000002
60000000003C0000000006
60000000003C0000000006
3000000000660000000004
300000000066000000000C
300000000066000000000C
1800000000C30000000018
1800000000C30000000018
1800000000810000000018
0C00000001818000000030
0C00000001818000000030
0C00000001008000000030
060000000300C000000060
060000000300C000000060
0600000002004000000060
03000000060060000000C0
03000000060060000000C0
03000000040020000000C0
018000000C003000000180
018000000C003000000180
0180000018001800000180
00C0000018001800000300
00C0000018001800000300
00C0000030000C00000300
0060000030000C00000600
0060000030000C00000600
0060000060000600000600
0030000060000600000C00
0030000040000200000C00
00100000C0000300000800
00180000C0000300001800
0018000080000100001800
0008000180000180001000
000C000180000180003000
000C000100000080003000
00060003000000C0002000
00060003000000C0006000
0006000200000040006000
0003000600000060004000
000300060000006000C000
0003000C0000003000C000
0001800C00000030008000
0001800C00000030018000
0001801800000018018000
0000C01800000018030000
0000C01800000018030000
0000C0300000000C030000
000060300000000C060000
0000602000000004060000
0000606000000006060000
00003060000000060C0000
00003040000000020C0000
000030C0000000030C0000
000018C000000003180000
0000188000000001180000
0000198000000001980000
00000D8000000001B00000
00000F0000000000B00000
00000F0000000000F00000
0000070000000000E00000
0000060000000000600000
ENDCHAR
STARTCHAR 0058
ENCODING 88
SWIDTH 618 0
DWIDTH 55 0
BBX 50 62 3 0
BITMAP
70000000000300
30000000000600
18000000000C00
0C000000001800
06000000001800
06000000003000
03000000006000
0180000000C000
00C0000000C000
00C00000018000
00600000030000
00300000060000
00180000060000
001800000C0000
000C0000180000
00060000300000
00030000300000
00030000600000
00018000C00000
0000C001800000
0000E001800000
00006003000000
00003006000000
0000180C000000
00001C0C000000
00000C18000000
00000630000000
00000360000000
000001E0000000
000001C0000000
000001C0000000
00000360000000
00000730000000
00000630000000
00000C18000000
0000180C000000
00003806000000
00003007000000
00006003000000
0000C001800000
0001C000C00000
00018000E00000
00030000600000
00060000300000
000E0000180000
000C00001C0000
001800000C0000
00300000060000
00700000030000
00600000038000
00C00000018000
0180000000C000
03800000006000
03000000007000
06000000003000
0C000000001800
1C000000000C00
18000000000E00
30000000000600
60000000000300
E0000000000180
C00000000001C0
ENDCHAR
STARTCHAR 0059
ENCODING 89
SWIDTH 607 0
DWIDTH 54 0
BBX 52 62 1 0
BITMAP
C0000000000030
60000000000060
30000000000060
300000000000C0
18000000000180
18000000000180
0C000000000300
06000000000300
06000000000600
03000000000C00
03800000000C00
01800000001800
00C00000003800
00C00000003000
00600000006000
00300000006000
0030000000C000
00180000018000
001C0000018000
000C0000030000
00060000070000
00060000060000
000300000C0000
000180000C0000
00018000180000
0000C000300000
0000C000300000
00006000600000
00003000600000
00003000C00000
00001801800000
00001C01800000
00000C03000000
00000607000000
00000606000000
0000030C000000
0000018C000000
00000198000000
000000F0000000
000000F0000000
00000060000000
00000060000000
00000060000000
00000060000000
00000060000000
00000060000000
00000060000000
00000060000000
00000060000000
00000060000000
00000060000000
00000060000000
00000060000000
00000060000000
00000060000000
00000060000000
00000060000000
00000060000000
00000060000000
00000060000000
00000060000000
00000060000000
ENDCHAR
STARTCHAR 005A
ENCODING 90
SWIDTH 630 0
DWIDTH 56 0
BBX 49 62 4 0
BITMAP
7FFFFFFFFFFF00
00000000000300
00000000000600
00000000000E00
00000000000C00
00000000001800
00000000003000
00000000007000
00000000006000
0000000000C000
00000000018000
00000000030000
00000000070000
00000000060000
000000000C0000
00000000180000
00000000380000
00000000300000
00000000600000
00000000C00000
00000001C00000
00000001800000
00000003000000
00000006000000
0000000C000000
0000001C000000
00000018000000
00000030000000
00000060000000
000000E0000000
000000C0000000
00000180000000
00000300000000
00000700000000
00000600000000
00000C00000000
00001800000000
00003800000000
00007000000000
00006000000000
0000C000000000
00018000000000
00038000000000
00030000000000
00060000000000
000C0000000000
001C0000000000
00180000000000
00300000000000
00600000000000
00E00000000000
01C00000000000
01800000000000
03000000000000
06000000000000
0E000000000000
0C000000000000
18000000000000
30000000000000
70000000000000
7FFFFFFFFFFF80
FFFFFFFFFFFF80
ENDCHAR
STARTCHAR 005B
ENCODING 91
SWIDTH 281 0
DWIDTH 25 0
BBX 11 83 12 -17
BITMAP
FFE0
FFE0
C000
C000
C000
C000
C000
C000
C000
C000
C000
C000
C000
C000
C000
C000
C000
C000
C000
C000
C000
C000
C000
C000
C000
C000
C000
C000
C000
C000
C000
C000
C000
C000
C000
C000
C000
C000
C000
C000
C000
C000
C000
C000
C000
C000
C000
C000
C000
C000
C000
C000
C000
C000
C000
C000
C000
C000
C000
C000
C000
C000
C000
C000
C000
C000
C000
C000
C000
C000
C000
C000
C000
C000
C000
C000
C000
C000
C000
C000
C000
C000
FFE0
ENDCHAR
STARTCHAR 005C
ENCODING 92
SWIDTH 292 0
DWIDTH 26 0
BBX 31 84 -3 -9
BITMAP
C0000000
60000000
60000000
60000000
30000000
30000000
10000000
18000000
18000000
08000000
0C000000
0C000000
04000000
06000000
06000000
02000000
03000000
03000000
01800000
01800000
01800000
00C00000
00C00000
00400000
00600000
00600000
00200000
00300000
00300000
00100000
00180000
00180000
00080000
000C0000
000C0000
00040000
00060000
00060000
00030000
00030000
00030000
00018000
00018000
00008000
0000C000
0000C000
00004000
00006000
00006000
00002000
00003000
00003000
00001000
00001800
00001800
00000C00
00000C00
00000C00
00000600
00000600
00000600
00000300
00000300
00000100
00000180
00000180
00000080
000000C0
000000C0
00000040
00000060
00000060
00000020
00000030
00000030
00000018
00000018
00000018
0000000C
0000000C
0000000C
00000006
00000006
00000002
ENDCHAR
STARTCHAR 005D
ENCODING 93
SWIDTH 281 0
DWIDTH 25 0
BBX 12 83 2 -17
BITMAP
FFF0
FFF0
0030
0030
0030
0030
0030
0030
0030
0030
0030
0030
0030
0030
0030
0030
0030
0030
0030
0030
0030
0030
0030
0030
0030
0030
0030
0030
0030
0030
0030
0030
0030
0030
0030
0030
0030
0030
0030
0030
0030
0030
0030
0030
0030
0030
0030
0030
0030
0030
0030
0030
0030
0030
0030
0030
0030
0030
0030
0030
0030
0030
0030
0030
0030
0030
0030
0030
0030
0030
0030
0030
0030
0030
0030
0030
0030
0030
0030
0030
0030
0030
FFF0
ENDCHAR
STARTCHAR 005E
ENCODING 94
SWIDTH 551 0
DWIDTH 49 0
BBX 32 36 9 13
BITMAP
00018000
0003C000
0003C000
00066000
00066000
00042000
000C3000
000C3000
00181800
00181800
00300800
00300C00
00300C00
00600600
00600600
00C00300
00C00300
00800100
01800180
01800180
030000C0
030000C0
06000040
06000060
06000060
0C000030
0C000030
18000018
18000018
10000018
3000000C
3000000C
60000006
60000006
C0000002
C0000003
ENDCHAR
STARTCHAR 005F
ENCODING 95
SWIDTH 495 0
DWIDTH 44 0
BBX 44 2 0 -2
BITMAP
FFFFFFFFFFF0
FFFFFFFFFFF0
ENDCHAR
STARTCHAR 0060
ENCODING 96
SWIDTH 596 0
DWIDTH 53 0
BBX 15 10 15 54
BITMAP
F000
7800
1C00
0E00
0780
01C0
00E0
0070
001C
000E
ENDCHAR
STARTCHAR 0061
ENCODING 97
SWIDTH 573 0
DWIDTH 51 0
BBX 35 46 6 0
BITMAP
0007FF8000
007FFFF000
01F0003800
0780000E00
0E00000700
3800000380
7000000180
20000000C0
00000000C0
0000000040
0000000060
0000000060
0000000060
0000000060
0000000020
0000000020
0000000020
0000000020
0000000020
0000000020
0000000020
003FFFFFE0
01FFFFFFE0
0780000020
0E00000020
1800000020
3000000020
6000000020
6000000020
C000000020
C000000020
C000000020
C000000020
C000000060
C000000060
C0000000E0
C0000000A0
C0000001A0
6000000320
6000000720
3000000E20
1800001C20
0E00007020
078001E020
01FE7F8020
003FFC0020
ENDCHAR
STARTCHAR 0062
ENCODING 98
SWIDTH 663 0
DWIDTH 59 0
BBX 45 66 10 0
BITMAP
C00000000000
C00000000000
C00000000000
C00000000000
C00000000000
C00000000000
C00000000000
C00000000000
C00000000000
C00000000000
C00000000000
C00000000000
C00000000000
C00000000000
C00000000000
C00000000000
C00000000000
C00000000000
C00000000000
C00000000000
C0007FF00000
C003FDFE0000
C00F00078000
C0380000E000
C07000003000
C0C000001C00
C18000000E00
C30000000700
C60000000300
CC0000000180
C800000000C0
D800000000C0
D00000000060
F00000000060
E00000000020
E00000000030
E00000000030
E00000000030
C00000000010
C00000000018
C00000000018
C00000000018
C00000000018
C00000000018
C00000000018
C00000000018
C00000000018
C00000000010
E00000000030
E00000000030
E00000000030
E00000000020
F00000000060
D00000000060
D800000000C0
C800000000C0
CC0000000180
C60000000300
C30000000700
C18000000E00
C0C000001C00
C06000003000
C0380000E000
C00F0007C000
C003F8FF0000
C000FFF80000
ENDCHAR
STARTCHAR 0063
ENCODING 99
SWIDTH 540 0
DWIDTH 48 0
BBX 39 46 5 0
BITMAP
0000FFF000
0007FDFE00
001E000780
00380000E0
00E0000070
01C0000018
038000000C
0600000006
0C00000000
0C00000000
1800000000
3000000000
3000000000
6000000000
6000000000
6000000000
4000000000
C000000000
C000000000
C000000000
C000000000
C000000000
C000000000
C000000000
C000000000
C000000000
C000000000
C000000000
C000000000
4000000000
6000000000
6000000000
6000000000
3000000000
3000000000
1800000000
0C00000000
0E00000000
0600000006
038000000C
01C0000018
00E0000070
00780000E0
001E000780
0007F9FE00
0000FFF000
ENDCHAR
STARTCHAR 0064
ENCODING 100
SWIDTH 663 0
DWIDTH 59 0
BBX 44 66 5 0
BITMAP
000000000010
000000000010
000000000010
000000000010
000000000010
000000000010
000000000010
000000000010
000000000010
000000000010
000000000010
000000000010
000000000010
000000000010
000000000010
000000000010
000000000010
000000000010
000000000010
000000000010
0000FFF00010
0007FDFE0010
001E00078010
00380001E010
00E000007010
01C000001810
030000000C10
060000000610
0C0000000310
0C0000000110
180000000190
3000000000D0
3000000000D0
600000000050
600000000070
600000000030
400000000030
C00000000030
C00000000030
C00000000030
C00000000010
C00000000010
C00000000010
C00000000010
C00000000010
C00000000010
C00000000030
C00000000030
C00000000030
400000000030
600000000030
600000000070
200000000050
3000000000D0
3000000000D0
180000000190
0C0000000310
0E0000000310
060000000610
030000000C10
01C000001810
00E000007010
00780001E010
001E00078010
0007F9FE0010
0000FFF00010
ENDCHAR
STARTCHAR 0065
ENCODING 101
SWIDTH 585 0
DWIDTH 52 0
BBX 42 46 5 0
BITMAP
0001FFE00000
0007FBFC0000
001E001F0000
007000038000
00E00000E000
018000007000
030000003800
060000001800
0C0000000C00
180000000600
180000000600
300000000300
300000000300
600000000180
600000000180
400000000080
C000000000C0
C000000000C0
C000000000C0
C000000000C0
C00000000040
FFFFFFFFFFC0
FFFFFFFFFFC0
800000000000
C00000000000
C00000000000
C00000000000
C00000000000
C00000000000
400000000000
600000000000
600000000000
200000000000
300000000000
300000000000
180000000000
0C0000000000
0E0000000000
060000000600
038000000600
01C000001C00
00E000003800
00380000F000
001F0003C000
0007F8FF0000
0000FFF80000
ENDCHAR
STARTCHAR 0066
ENCODING 102
SWIDTH 303 0
DWIDTH 27 0
BBX 29 66 2 0
BITMAP
0000FF80
0007FFE0
000E0070
001C0018
00180000
00300000
00300000
00600000
00600000
00600000
00600000
00600000
00600000
00600000
00600000
00600000
00600000
00600000
00600000
00600000
FFFFFFC0
FFFFFFC0
00600000
00600000
00600000
00600000
00600000
00600000
00600000
00600000
00600000
00600000
00600000
00600000
00600000
00600000
00600000
00600000
00600000
00600000
00600000
00600000
00600000
00600000
00600000
00600000
00600000
00600000
00600000
00600000
00600000
00600000
00600000
00600000
00600000
00600000
00600000
00600000
00600000
00600000
00600000
00600000
00600000
00600000
00600000
00600000
ENDCHAR
STARTCHAR 0067
ENCODING 103
SWIDTH 675 0
DWIDTH 60 0
BBX 45 64 5 -18
BITMAP
0000FFF80018
0007FDFF0018
001E0007C018
00780000E018
00E000003818
01C000001C18
030000000E18
060000000318
0C0000000318
180000000198
1800000000D8
300000000058
300000000078
600000000038
600000000038
400000000038
C00000000018
C00000000018
C00000000018
C00000000018
C00000000018
C00000000018
C00000000018
C00000000018
C00000000018
C00000000018
C00000000018
C00000000018
400000000038
600000000038
600000000038
300000000078
300000000058
1800000000D8
180000000198
0C0000000198
060000000318
030000000618
018000000C18
00E000003818
00700000F018
001E0003C018
0007E03F0018
0001FFFC0018
000000000018
000000000018
000000000018
000000000018
000000000010
000000000030
000000000030
000000000030
000000000060
000000000060
0000000000C0
0C00000000C0
0E0000000180
070000000300
03C000000600
00F000001C00
003E00007800
000FF007E000
0001FFFF0000
000003000000
ENDCHAR
STARTCHAR 0068
ENCODING 104
SWIDTH 663 0
DWIDTH 59 0
BBX 40 66 10 0
BITMAP
C000000000
C000000000
C000000000
C000000000
C000000000
C000000000
C000000000
C000000000
C000000000
C000000000
C000000000
C000000000
C000000000
C000000000
C000000000
C000000000
C000000000
C000000000
C000000000
C000000000
C001FFE000
C00FFBFC00
C03C000F00
C070000380
C1C00000E0
C380000060
C600000030
C600000018
CC00000018
D80000000C
D00000000C
F000000006
F000000006
E000000006
E000000002
E000000002
C000000003
C000000003
C000000003
C000000003
C000000003
C000000003
C000000003
C000000003
C000000003
C000000003
C000000003
C000000003
C000000003
C000000003
C000000003
C000000003
C000000003
C000000003
C000000003
C000000003
C000000003
C000000003
C000000003
C000000003
C000000003
C000000003
C000000003
C000000003
C000000003
C000000003
ENDCHAR
STARTCHAR 0069
ENCODING 105
SWIDTH 247 0
DWIDTH 22 0
BBX 4 63 9 0
BITMAP
F0
F0
F0
F0
00
00
00
00
00
00
00
00
00
00
00
00
00
60
60
60
60
60
60
60
60
60
60
60
60
60
60
60
60
60
60
60
60
60
60
60
60
60
60
60
60
60
60
60
60
60
60
60
60
60
60
60
60
60
60
60
60
60
60
ENDCHAR
STARTCHAR 006A
ENCODING 106
SWIDTH 247 0
DWIDTH 22 0
BBX 21 81 -7 -18
BITMAP
000070
0000F8
0000F8
000070
000000
000000
000000
000000
000000
000000
000000
000000
000000
000000
000000
000000
000000
000020
000020
000020
000020
000020
000020
000020
000020
000020
000020
000020
000020
000020
000020
000020
000020
000020
000020
000020
000020
000020
000020
000020
000020
000020
000020
000020
000020
000020
000020
000020
000020
000020
000020
000020
000020
000020
000020
000020
000020
000020
000020
000020
000020
000020
000020
000020
000020
000020
000020
000020
000020
000020
000020
000060
000060
000060
0000C0
0000C0
800180
E00380
781F00
1FFC00
01C000
ENDCHAR
STARTCHAR 006B
ENCODING 107
SWIDTH 562 0
DWIDTH 50 0
BBX 39 66 10 0
BITMAP
C000000000
C000000000
C000000000
C000000000
C000000000
C000000000
C000000000
C000000000
C000000000
C000000000
C000000000
C000000000
C000000000
C000000000
C000000000
C000000000
C000000000
C000000000
C000000000
C000000000
C000000038
C000000060
C0000000C0
C000000180
C000000300
C000000E00
C000001C00
C000003800
C000007000
C00000E000
C00001C000
C000038000
C000060000
C0000C0000
C000180000
C000700000
C000E00000
C001C00000
C003800000
C007C00000
C00CE00000
C018700000
C030300000
C060180000
C0C00C0000
C3800E0000
C700070000
CE00030000
DC00018000
F00000C000
E00000E000
C000007000
C000003000
C000001800
C000000C00
C000000E00
C000000700
C000000300
C000000180
C0000000C0
C0000000E0
C000000060
C000000030
C000000018
C00000000C
C00000000E
ENDCHAR
STARTCHAR 006C
ENCODING 108
SWIDTH 247 0
DWIDTH 22 0
BBX 2 66 10 0
BITMAP
C0
C0
C0
C0
C0
C0
C0
C0
C0
C0
C0
C0
C0
C0
C0
C0
C0
C0
C0
C0
C0
C0
C0
C0
C0
C0
C0
C0
C0
C0
C0
C0
C0
C0
C0
C0
C0
C0
C0
C0
C0
C0
C0
C0
C0
C0
C0
C0
C0
C0
C0
C0
C0
C0
C0
C0
C0
C0
C0
C0
C0
C0
C0
C0
C0
C0
ENDCHAR
STARTCHAR 006D
ENCODING 109
SWIDTH 1057 0
DWIDTH 94 0
BBX 75 46 10 0
BITMAP
C001FFE000001FFE0000
C00FF7F80000FFBFC000
C03C001E0003E000F000
C0E00007800700003800
C1C00001C00C00000C00
C3800000E01800000600
C6000000603000000300
CC000000306000000380
CC00000018C000000180
D800000018C0000000C0
D00000001980000000C0
F00000000D80000000C0
E00000000F0000000060
E00000000F0000000060
E0000000060000000060
E0000000060000000060
C0000000060000000060
C0000000060000000060
C0000000060000000060
C0000000060000000060
C0000000060000000060
C0000000060000000060
C0000000060000000060
C0000000060000000060
C0000000060000000060
C0000000060000000060
C0000000060000000060
C0000000060000000060
C0000000060000000060
C0000000060000000060
C0000000060000000060
C0000000060000000060
C0000000060000000060
C0000000060000000060
C0000000060000000060
C0000000060000000060
C0000000060000000060
C0000000060000000060
C0000000060000000060
C0000000060000000060
C0000000060000000060
C0000000060000000060
C0000000060000000060
C0000000060000000060
C0000000060000000060
C0000000060000000060
ENDCHAR
STARTCHAR 006E
ENCODING 110
SWIDTH 663 0
DWIDTH 59 0
BBX 40 46 10 0
BITMAP
C001FFE000
C00FFBFC00
C03C000F00
C070000380
C1C00000E0
C380000060
C600000030
C600000018
CC00000018
D80000000C
D00000000C
F000000006
F000000006
E000000006
E000000002
E000000002
C000000003
C000000003
C000000003
C000000003
C000000003
C000000003
C000000003
C000000003
C000000003
C000000003
C000000003
C000000003
C000000003
C000000003
C000000003
C000000003
C000000003
C000000003
C000000003
C000000003
C000000003
C000000003
C000000003
C000000003
C000000003
C000000003
C000000003
C000000003
C000000003
C000000003
ENDCHAR
STARTCHAR 006F
ENCODING 111
SWIDTH 607 0
DWIDTH 54 0
BBX 44 46 5 0
BITMAP
0000FFF00000
0007FDFE0000
001E00078000
00380001E000
00E000007000
01C000001800
030000000C00
060000000600
0C0000000300
0C0000000180
180000000180
3000000000C0
3000000000C0
600000000060
600000000060
600000000020
400000000030
C00000000030
C00000000030
C00000000030
C00000000010
C00000000010
C00000000010
C00000000010
C00000000010
C00000000010
C00000000030
C00000000030
C00000000030
400000000030
600000000020
600000000060
200000000060
3000000000C0
3000000000C0
180000000180
0C0000000380
0E0000000300
060000000600
030000000C00
01C000001800
00E000007000
00780001E000
001E00078000
0007F9FE0000
0000FFF00000
ENDCHAR
STARTCHAR 0070
ENCODING 112
SWIDTH 663 0
DWIDTH 59 0
BBX 45 63 10 -17
BITMAP
C0007FF00000
C003FDFE0000
C00F00078000
C0380000E000
C07000007000
C0C000001C00
C18000000E00
C30000000700
C60000000300
CC0000000180
C800000000C0
D800000000C0
D00000000060
F00000000060
E00000000020
E00000000030
E00000000030
E00000000030
C00000000010
C00000000018
C00000000018
C00000000018
C00000000018
C00000000018
C00000000018
C00000000018
C00000000018
C00000000018
E00000000030
E00000000030
E00000000030
E00000000020
F00000000060
D00000000060
D800000000C0
C800000000C0
CC0000000180
C60000000300
C30000000700
C18000000E00
C0C000001C00
C06000003000
C0380000E000
C00F0007C000
C003F8FF0000
C000FFF80000
C00000000000
C00000000000
C00000000000
C00000000000
C00000000000
C00000000000
C00000000000
C00000000000
C00000000000
C00000000000
C00000000000
C00000000000
C00000000000
C00000000000
C00000000000
C00000000000
C00000000000
ENDCHAR
STARTCHAR 0071
ENCODING 113
SWIDTH 663 0
DWIDTH 59 0
BBX 44 63 5 -17
BITMAP
0000FFF00010
0007FDFE0010
001F00078010
00380001E010
00E000007010
01C000003810
038000000C10
070000000610
0E0000000310
0C0000000310
180000000190
3000000000D0
3000000000D0
200000000050
600000000070
600000000030
400000000030
C00000000030
C00000000030
C00000000030
C00000000010
C00000000010
C00000000010
C00000000010
C00000000010
C00000000010
C00000000030
C00000000030
C00000000030
400000000030
600000000030
600000000070
600000000050
3000000000D0
3000000000D0
180000000190
0C0000000110
0C0000000310
060000000610
030000000C10
01C000001810
00E000007010
00780001E010
001E00078010
0007F8FE0010
0000FFF00010
000000000010
000000000010
000000000010
000000000010
000000000010
000000000010
000000000010
000000000010
000000000010
000000000010
000000000010
000000000010
000000000010
000000000010
000000000010
000000000010
000000000010
ENDCHAR
STARTCHAR 0072
ENCODING 114
SWIDTH 382 0
DWIDTH 34 0
BBX 20 46 10 0
BITMAP
C003F0
C01FF0
C07800
C0E000
C18000
C30000
C60000
CC0000
D80000
D80000
D00000
F00000
E00000
E00000
E00000
E00000
C00000
C00000
C00000
C00000
C00000
C00000
C00000
C00000
C00000
C00000
C00000
C00000
C00000
C00000
C00000
C00000
C00000
C00000
C00000
C00000
C00000
C00000
C00000
C00000
C00000
C00000
C00000
C00000
C00000
C00000
ENDCHAR
STARTCHAR 0073
ENCODING 115
SWIDTH 461 0
DWIDTH 41 0
BBX 35 46 3 0
BITMAP
001FFF0000
007FBFF000
01C0007C00
0700000F00
0E00000380
0C00000100
1800000000
3000000000
3000000000
3000000000
3000000000
2000000000
3000000000
3000000000
3000000000
3000000000
1800000000
1C00000000
0E00000000
0700000000
03E0000000
00FE000000
001FF00000
0001FF0000
00000FE000
0000007C00
0000000E00
0000000700
0000000180
00000000C0
00000000C0
0000000060
0000000060
0000000060
0000000060
0000000060
0000000060
0000000040
00000000C0
C0000000C0
E000000180
3800000300
1E00000E00
07C0003C00
01FF8FF000
001FFF8000
ENDCHAR
STARTCHAR 0074
ENCODING 116
SWIDTH 382 0
DWIDTH 34 0
BBX 29 56 2 0
BITMAP
00600000
00600000
00600000
00600000
00600000
00600000
00600000
00600000
00600000
00600000
FFFFFFC0
FFFFFFC0
00600000
00600000
00600000
00600000
00600000
00600000
00600000
00600000
00600000
00600000
00600000
00600000
00600000
00600000
00600000
00600000
00600000
00600000
00600000
00600000
00600000
00600000
00600000
00600000
00600000
00600000
00600000
00600000
00600000
00600000
00600000
00600000
00600000
00600000
00600000
00600000
00600000
00300000
00300000
00180000
001C0018
000E0078
0007E7E0
0001FF80
ENDCHAR
STARTCHAR 0075
ENCODING 117
SWIDTH 663 0
DWIDTH 59 0
BBX 39 46 10 0
BITMAP
8000000006
8000000006
8000000006
8000000006
8000000006
8000000006
8000000006
8000000006
8000000006
8000000006
8000000006
8000000006
8000000006
8000000006
8000000006
8000000006
8000000006
8000000006
8000000006
8000000006
8000000006
8000000006
8000000006
8000000006
8000000006
8000000006
8000000006
8000000006
8000000006
C000000006
C00000000E
C00000000E
C00000000E
C00000000E
600000001E
6000000016
6000000036
3000000066
3800000066
18000000C6
0C00000186
0700000706
0380000E06
01E0007806
007F8FF006
000FFF8006
ENDCHAR
STARTCHAR 0076
ENCODING 118
SWIDTH 506 0
DWIDTH 45 0
BBX 43 46 1 0
BITMAP
C00000000060
C00000000060
6000000000E0
6000000000C0
3000000000C0
300000000180
380000000180
180000000300
180000000300
0C0000000600
0C0000000600
060000000C00
060000000C00
030000001800
030000001800
018000001800
018000003000
00C000003000
00C000006000
00C000006000
00600000C000
00600000C000
003000018000
003000018000
001800030000
001800030000
000C00020000
000C00060000
000600060000
0006000C0000
0002000C0000
000300180000
000300180000
000180300000
000180300000
0000C0600000
0000C0600000
000060400000
000060C00000
000030800000
000031800000
000011800000
00001B000000
00000B000000
00000E000000
00000E000000
ENDCHAR
STARTCHAR 0077
ENCODING 119
SWIDTH 832 0
DWIDTH 74 0
BBX 72 46 1 0
BITMAP
C00000001800000003
400000001C00000003
600000003C00000002
600000003400000006
300000002600000006
30000000660000000C
10000000630000000C
18000000C30000000C
18000000C100000018
08000000C180000018
0C0000018180000010
0C0000018080000030
0600000100C0000030
0600000300C0000060
020000030060000060
030000060060000040
0300000600200000C0
0100000400300000C0
0180000C0030000080
0080000C0018000180
00C000180018000180
00C000180008000300
00400010000C000300
00600030000C000200
006000300004000600
003000200006000600
003000600002000C00
001000400003000C00
001800C00003000800
001800C00001001800
000800800001801800
000C01800001801000
000401800000C03000
000603000000C03000
000603000000406000
000202000000606000
000306000000604000
00030600000020C000
00010400000030C000
00018C000000108000
000088000000198000
0000D8000000190000
0000D80000000B0000
0000500000000F0000
000070000000060000
000020000000060000
ENDCHAR
STARTCHAR 0078
ENCODING 120
SWIDTH 495 0
DWIDTH 44 0
BBX 38 46 3 0
BITMAP
6000000018
3000000030
3800000070
1800000060
0C000000C0
0600000180
0300000300
0380000700
0180000600
00C0000C00
0060001800
0030003800
0038003000
0018006000
000C00C000
0006018000
0007038000
0003030000
0001860000
0000CC0000
0000780000
0000780000
0000300000
0000780000
0000CC0000
0001C60000
0001870000
0003030000
0006018000
000E00C000
000C00E000
0018006000
0030003000
0060001800
00E0000C00
00C0000E00
0180000600
0300000300
0700000180
06000001C0
0C000000C0
1800000060
3000000030
7000000018
600000001C
C00000000C
ENDCHAR
STARTCHAR 0079
ENCODING 121
SWIDTH 506 0
DWIDTH 45 0
BBX 47 63 -3 -18
BITMAP
0C0000000006
0C0000000006
06000000000E
06000000000C
03000000000C
030000000018
038000000018
018000000030
018000000030
00C000000060
00C000000060
0060000000C0
0060000000C0
003000000180
003000000180
001800000180
001800000300
000C00000300
000C00000600
000C00000600
000600000C00
000600000C00
000300001800
000300001800
000180003000
000180003000
0000C0003000
0000C0006000
000060006000
00006000C000
00002000C000
000030018000
000030018000
000018030000
000018030000
00000C060000
00000C060000
000006040000
0000060C0000
0000030C0000
000003180000
000001180000
000001B00000
000000B00000
000000E00000
000000E00000
000000C00000
000000C00000
000001800000
000001800000
000003800000
000003000000
000003000000
000006000000
000006000000
00000C000000
00001C000000
000018000000
400030000000
E00060000000
7801C0000000
1E0780000000
07FE00000000
ENDCHAR
STARTCHAR 007A
ENCODING 122
SWIDTH 483 0
DWIDTH 43 0
BBX 35 46 4 0
BITMAP
7FFFFFFFE0
7FFFFFFFE0
00000000C0
0000000180
0000000380
0000000300
0000000600
0000000C00
0000001C00
0000001800
0000003000
0000006000
000000E000
000000C000
0000018000
0000030000
0000070000
0000060000
00000C0000
0000180000
0000380000
0000300000
0000600000
0000C00000
0001C00000
0001800000
0003000000
0006000000
000C000000
000C000000
0018000000
0030000000
0060000000
0060000000
00C0000000
0180000000
0300000000
0700000000
0600000000
0C00000000
1800000000
3800000000
3000000000
6000000000
FFFFFFFFE0
FFFFFFFFE0
ENDCHAR
STARTCHAR 007B
ENCODING 123
SWIDTH 292 0
DWIDTH 26 0
BBX 18 83 6 -17
BITMAP
0007C0
003FC0
007000
00E000
00C000
018000
018000
018000
018000
018000
018000
018000
018000
018000
018000
018000
018000
018000
018000
018000
018000
018000
018000
018000
018000
018000
018000
018000
018000
018000
018000
018000
018000
018000
018000
018000
018000
018000
010000
030000
0F0000
FC0000
1E0000
030000
030000
018000
018000
018000
018000
018000
018000
018000
018000
018000
018000
018000
018000
018000
018000
018000
018000
018000
018000
018000
018000
018000
018000
018000
018000
018000
018000
018000
018000
018000
018000
018000
018000
018000
00C000
00C000
006000
003E00
000FC0
ENDCHAR
STARTCHAR 007C
ENCODING 124
SWIDTH 281 0
DWIDTH 25 0
BBX 2 83 12 -17
BITMAP
C0
C0
C0
C0
C0
C0
C0
C0
C0
C0
C0
C0
C0
C0
C0
C0
C0
C0
C0
C0
C0
C0
C0
C0
C0
C0
C0
C0
C0
C0
C0
C0
C0
C0
C0
C0
C0
C0
C0
C0
C0
C0
C0
C0
C0
C0
C0
C0
C0
C0
C0
C0
C0
C0
C0
C0
C0
C0
C0
C0
C0
C0
C0
C0
C0
C0
C0
C0
C0
C0
C0
C0
C0
C0
C0
C0
C0
C0
C0
C0
C0
C0
C0
ENDCHAR
STARTCHAR 007D
ENCODING 125
SWIDTH 292 0
DWIDTH 26 0
BBX 19 83 2 -17
BITMAP
FC0000
FF0000
01C000
00C000
006000
006000
003000
003000
003000
003000
003000
003000
003000
003000
003000
003000
003000
003000
003000
003000
003000
003000
003000
003000
003000
003000
003000
003000
003000
003000
003000
003000
003000
003000
003000
003000
003000
003000
003000
001800
001C00
0007E0
001E00
001800
003000
003000
003000
003000
003000
003000
003000
003000
003000
003000
003000
003000
003000
003000
003000
003000
003000
003000
003000
003000
003000
003000
003000
003000
003000
003000
003000
003000
003000
003000
003000
003000
003000
002000
006000
00E000
01C000
1F8000
FE0000
ENDCHAR
STARTCHAR 007E
ENCODING 126
SWIDTH 551 0
DWIDTH 49 0
BBX 38 12 6 25
BITMAP
01F000000C
07FE00000C
0C07000008
1801C00008
3000E00018
6000700018
6000380030
40001C0030
C0000E0060
C0000381C0
C00001FF00
0000001800
ENDCHAR
STARTCHAR 00A0
ENCODING 160
SWIDTH 247 0
DWIDTH 22 0
BBX 0 0 0 0
BITMAP
ENDCHAR
STARTCHAR 00A1
ENCODING 161
SWIDTH 236 0
DWIDTH 21 0
BBX 5 60 8 -14
BITMAP
70
F8
F8
78
00
00
00
00
00
00
00
00
00
00
00
00
00
20
20
20
20
20
20
20
20
20
20
20
20
20
20
20
30
30
30
30
30
30
30
30
30
30
30
30
30
30
30
30
30
30
30
30
30
30
30
30
30
30
30
30
ENDCHAR
STARTCHAR 00A2
ENCODING 162
SWIDTH 540 0
DWIDTH 48 0
BBX 39 68 5 -11
BITMAP
0000060000
0000060000
0000060000
0000060000
0000060000
0000060000
0000060000
0000060000
0000060000
0000060000
0000060000
0000FFF000
0007FFFE00
001E060780
00380600E0
00E0060070
01C0060018
038006000C
0600060006
0C00060000
0C00060000
1800060000
3000060000
3000060000
6000060000
6000060000
6000060000
4000060000
C000060000
C000060000
C000060000
C000060000
C000060000
C000060000
C000060000
C000060000
C000060000
C000060000
C000060000
C000060000
4000060000
6000060000
6000060000
6000060000
3000060000
3000060000
1800060000
0C00060000
0E00060000
0600060006
038006000C
01C0060018
00E0060070
00780600E0
001E060780
0007FFFE00
0000FFF000
0000060000
0000060000
0000060000
0000060000
0000060000
0000060000
0000060000
0000060000
0000060000
0000060000
0000060000
ENDCHAR
STARTCHAR 00A3
ENCODING 163
SWIDTH 607 0
DWIDTH 54 0
BBX 50 62 3 0
BITMAP
000000FFFF8000
000007E007F000
00001E00003E00
00007000000F00
0000E0000003C0
0001C0000000C0
00038000000000
00030000000000
00060000000000
000C0000000000
000C0000000000
00080000000000
00180000000000
00180000000000
00180000000000
00100000000000
00300000000000
00300000000000
00300000000000
00300000000000
00300000000000
00300000000000
00300000000000
00300000000000
00300000000000
00300000000000
00300000000000
00300000000000
00300000000000
00300000000000
FFFFFFFFFE0000
FFFFFFFFFE0000
00300000000000
00300000000000
00300000000000
00300000000000
00300000000000
00300000000000
00300000000000
00300000000000
00300000000000
00300000000000
00300000000000
00300000000000
00300000000000
00300000000000
00300000000000
00300000000000
00300000000000
00300000000000
00300000000000
00300000000000
00300000000000
00300000000000
00300000000000
00300000000000
00300000000000
00300000000000
00300000000000
00300000000000
FFFFFFFFFFFF80
FFFFFFFFFFFF80
ENDCHAR
STARTCHAR 00A4
ENCODING 164
SWIDTH 697 0
DWIDTH 62 0
BBX 55 55 4 1
BITMAP
80000000000004
C000000000000E
6000000000001C
30000000000038
180007FFC00070
0C003FCFF800E0
0601F0003E01C0
03038000078380
018F000001C700
00DC000000EE00
00780000003C00
00600000001C00
00C00000000E00
01800000000600
03800000000300
03000000000180
06000000000180
060000000000C0
0C0000000000C0
0C000000000060
18000000000060
18000000000020
18000000000030
10000000000030
30000000000030
30000000000030
30000000000030
30000000000030
30000000000030
30000000000030
30000000000030
30000000000030
10000000000030
18000000000030
18000000000060
18000000000060
0C000000000060
0C0000000000C0
060000000000C0
06000000000180
03000000000300
01800000000300
01C00000000600
00E00000000C00
00700000001800
00F80000007C00
01DC000000E600
0387000003C300
0703C0000F0180
0E00FC007C00C0
1C001FFFF00060
380001FF000030
70000000000018
E000000000000C
C0000000000004
ENDCHAR
STARTCHAR 00A5
ENCODING 165
SWIDTH 663 0
DWIDTH 59 0
BBX 57 62 1 0
BITMAP
E000000000000180
6000000000000300
3000000000000700
1800000000000600
0C00000000000C00
0C00000000001800
0600000000003000
0300000000003000
0180000000006000
01C000000000C000
00C0000000018000
0060000000038000
0030000000030000
0018000000060000
00180000000C0000
000C000000180000
0006000000180000
0003000000300000
0003800000600000
0001800000C00000
0000C00001C00000
0000600001800000
0000300003000000
0000380006000000
000018000C000000
00000C001C000000
0000060018000000
0000070030000000
0000030060000000
00000180E0000000
000000C0C0000000
0000006180000000
0000007300000000
0000003600000000
01FFFFFFFFFFE000
01FFFFFFFFFFE000
0000000C00000000
0000000C00000000
0000000C00000000
0000000C00000000
0000000C00000000
0000000C00000000
0000000C00000000
0000000C00000000
0000000C00000000
0000000C00000000
01FFFFFFFFFFE000
01FFFFFFFFFFE000
0000000C00000000
0000000C00000000
0000000C00000000
0000000C00000000
0000000C00000000
0000000C00000000
0000000C00000000
0000000C00000000
0000000C00000000
0000000C00000000
0000000C00000000
0000000C00000000
0000000C00000000
0000000C00000000
ENDCHAR
STARTCHAR 00A6
ENCODING 166
SWIDTH 281 0
DWIDTH 25 0
BBX 2 83 12 -17
BITMAP
C0
C0
C0
C0
C0
C0
C0
C0
C0
C0
C0
C0
C0
C0
C0
C0
C0
C0
C0
C0
C0
C0
C0
C0
C0
C0
C0
C0
C0
C0
C0
00
00
00
00
00
00
00
00
00
00
00
00
00
00
00
00
00
00
00
00
00
C0
C0
C0
C0
C0
C0
C0
C0
C0
C0
C0
C0
C0
C0
C0
C0
C0
C0
C0
C0
C0
C0
C0
C0
C0
C0
C0
C0
C0
C0
C0
ENDCHAR
STARTCHAR 00A7
ENCODING 167
SWIDTH 461 0
DWIDTH 41 0
BBX 35 71 3 -9
BITMAP
0007FFF000
003F00FE00
00F0000780
01C00001E0
0300000060
0600000020
0C00000000
0C00000000
0C00000000
1800000000
1800000000
1800000000
1800000000
1800000000
1800000000
0C00000000
0C00000000
0E00000000
0700000000
0380000000
01C0000000
0078000000
007F000000
01E7E00000
03807E0000
06000FC000
0C0000F800
1800001C00
3000000700
3000000380
60000001C0
60000000C0
6000000060
6000000060
6000000060
6000000060
6000000020
2000000060
3000000060
3000000060
1800000060
0E00000040
07000000C0
03C0000180
00F8000300
001F800600
0003F81C00
00003FF800
000003C000
000000F000
0000001C00
0000000E00
0000000600
0000000300
0000000300
0000000180
0000000180
0000000180
0000000180
0000000180
0000000180
0000000180
0000000180
0000000300
C000000300
7000000600
3800000C00
1E00003800
07C000F000
01FFFFC000
001FFE0000
ENDCHAR
STARTCHAR 00A8
ENCODING 168
SWIDTH 596 0
DWIDTH 53 0
BBX 19 5 17 57
BITMAP
200080
F001E0
F801E0
F801E0
7000C0
ENDCHAR
STARTCHAR 00A9
ENCODING 169
SWIDTH 821 0
DWIDTH 73 0
BBX 63 62 5 0
BITMAP
000000FFFF000000
00000FF00FE00000
00003E00007C0000
0000F000000F0000
0003C00000038000
000700000000E000
000E000000007000
0038000000003800
0070000000000C00
00E0000000000600
00C0000000000300
0180000000000380
03000007F0000180
0600007FFE0000C0
060001E007800060
0C00078001E00060
0C000E0000700030
18001C0000380030
1800300000180018
3000700000000018
3000600000000008
2000C0000000000C
6000C0000000000C
600180000000000C
6001800000000004
4001000000000006
4003000000000006
C003000000000006
C003000000000006
C003000000000006
C003000000000006
C003000000000006
C003000000000006
C003000000000006
C003000000000006
4003000000000006
4001800000000006
6001800000000004
600180000000000C
6000C0000000000C
2000C0000000000C
3000600000000018
3000300000080018
18003800001C0010
18001C0000380030
0C000E0000700020
0C00038001E00060
060001F00F8000C0
0700003FFE0000C0
03000003C0000180
0180000000000300
00C0000000000600
0060000000000E00
0030000000001C00
0018000000003000
000E00000000E000
000700000001C000
0001C00000070000
0000F000001E0000
00003E0000F80000
000007FC7FC00000
000000FFFE000000
ENDCHAR
STARTCHAR 00AA
ENCODING 170
SWIDTH 393 0
DWIDTH 35 0
BBX 24 28 4 38
BITMAP
00FFC0
07F7F0
1E0038
38000C
200006
000006
000006
000003
000003
000003
000003
000003
003FFF
07FFFF
1C0003
300003
600003
600003
C00003
C00003
C00007
400007
60000F
60001B
300033
1C00E3
07FF83
007800
ENDCHAR
STARTCHAR 00AB
ENCODING 171
SWIDTH 416 0
DWIDTH 37 0
BBX 27 32 6 7
BITMAP
001C0060
001800C0
00300180
00600300
00C00300
01C00600
01800C00
03001800
06003800
0C003000
0C006000
1800C000
30018000
60038000
C0030000
C0060000
C0060000
C0030000
60038000
30018000
1800C000
0C006000
0C003000
06003800
03001800
01800C00
00C00600
00C00300
00600380
00300180
001800C0
001C0060
ENDCHAR
STARTCHAR 00AC
ENCODING 172
SWIDTH 551 0
DWIDTH 49 0
BBX 36 18 7 14
BITMAP
FFFFFFFFF0
FFFFFFFFF0
0000000030
0000000030
0000000030
0000000030
0000000030
0000000030
0000000030
0000000030
0000000030
0000000030
0000000030
0000000030
0000000030
0000000030
0000000030
0000000030
ENDCHAR
STARTCHAR 00AD
ENCODING 173
SWIDTH 371 0
DWIDTH 33 0
BBX 22 1 6 23
BITMAP
FFFFFC
ENDCHAR
STARTCHAR 00AE
ENCODING 174
SWIDTH 821 0
DWIDTH 73 0
BBX 63 62 5 0
BITMAP
000000FFFF000000
00000FF00FE00000
00003E00007C0000
0000F000000F0000
0003C00000038000
000700000000E000
000E000000007000
0038000000003800
0070000000000C00
00E0000000000600
00C0000000000300
0180000000000380
03000FFFF0000180
06000FFFFF0000C0
06000C0007C00060
0C000C0000E00060
0C000C0000300030
18000C0000180030
18000C00000C0018
30000C00000C0018
30000C0000060008
20000C000006000C
60000C000006000C
60000C000006000C
60000C0000060004
40000C0000060006
40000C0000060006
C0000C0000060006
C0000C00000C0006
C0000C00000C0006
C0000C0000180006
C0000C0000380006
C0000C0000700006
C0000C0001E00006
C0000FFFFF800006
40000FFFFC000006
40000C0006000006
60000C0006000004
60000C000300000C
60000C000180000C
20000C000180000C
30000C0000C00018
30000C0000600018
18000C0000600010
18000C0000300030
0C000C0000380020
0C000C0000180060
06000C00000C00C0
07000C00000E00C0
0300000000000180
0180000000000300
00C0000000000600
0060000000000E00
0030000000001C00
0018000000003000
000E00000000E000
000700000001C000
0001C00000070000
0000F000001E0000
00003E0000F80000
000007FC7FC00000
000000FFFE000000
ENDCHAR
STARTCHAR 00AF
ENCODING 175
SWIDTH 596 0
DWIDTH 53 0
BBX 24 2 15 58
BITMAP
FFFFFF
FFFFFF
ENDCHAR
STARTCHAR 00B0
ENCODING 176
SWIDTH 416 0
DWIDTH 37 0
BBX 27 26 5 36
BITMAP
007FE000
01E07800
07001C00
0E000600
18000300
38000180
30000180
600000C0
600000C0
40000060
C0000060
C0000060
C0000060
C0000060
C0000060
40000060
60000060
600000C0
200000C0
30000180
18000380
1C000300
0E000E00
03801C00
01FBF000
007FC000
ENDCHAR
STARTCHAR 00B1
ENCODING 177
SWIDTH 551 0
DWIDTH 49 0
BBX 36 49 7 0
BITMAP
0000600000
0000600000
0000600000
0000600000
0000600000
0000600000
0000600000
0000600000
0000600000
0000600000
0000600000
0000600000
0000600000
0000600000
0000600000
0000600000
0000600000
FFFFFFFFF0
FFFFFFFFF0
0000600000
0000600000
0000600000
0000600000
0000600000
0000600000
0000600000
0000600000
0000600000
0000600000
0000600000
0000600000
0000600000
0000600000
0000600000
0000600000
0000600000
0000000000
0000000000
0000000000
0000000000
0000000000
0000000000
0000000000
0000000000
0000000000
0000000000
0000000000
FFFFFFFFF0
FFFFFFFFF0
ENDCHAR
STARTCHAR 00B2
ENCODING 178
SWIDTH 427 0
DWIDTH 38 0
BBX 29 37 4 29
BITMAP
01FFE000
0FFBFC00
3C000E00
70000300
C0000180
800000C0
000000C0
00000040
00000060
00000060
00000060
00000040
000000C0
000000C0
00000180
00000180
00000300
00000600
00000C00
00001800
00003000
0000E000
0001C000
00038000
00060000
000C0000
00180000
00300000
00600000
00C00000
03800000
07000000
0E000000
18000000
30000000
7FFFFFF8
7FFFFFF8
ENDCHAR
STARTCHAR 00B3
ENCODING 179
SWIDTH 427 0
DWIDTH 38 0
BBX 28 37 4 29
BITMAP
FFFFFFE0
FFFFFFC0
000001C0
00000180
00000300
00000600
00000C00
00001800
00003000
00006000
0000C000
0000C000
00018000
00030000
00060000
000C0000
001F8000
001FF800
00001E00
00000380
000000C0
00000060
00000060
00000030
00000030
00000030
00000030
00000030
00000030
00000030
00000020
80000060
E00000C0
70000180
1E000700
07FFFC00
00FFE000
ENDCHAR
STARTCHAR 00B4
ENCODING 180
SWIDTH 596 0
DWIDTH 53 0
BBX 15 10 23 54
BITMAP
000E
001C
0078
00E0
01C0
0780
0E00
1C00
3000
E000
ENDCHAR
STARTCHAR 00B5
ENCODING 181
SWIDTH 663 0
DWIDTH 59 0
BBX 39 63 10 -17
BITMAP
C000000002
C000000002
C000000002
C000000002
C000000002
C000000002
C000000002
C000000002
C000000002
C000000002
C000000002
C000000002
C000000002
C000000002
C000000002
C000000002
C000000002
C000000002
C000000002
C000000002
C000000002
C000000002
C000000002
C000000002
C000000002
C000000002
C000000006
C000000006
C000000006
C000000006
C000000006
C000000006
C00000000E
E00000000E
E00000000A
E00000001A
F000000012
D000000032
D800000062
CC000000C2
C6000001C2
C700000382
C1C0000E02
C0F0003C02
C03FC7F002
C007FF8002
C000000000
C000000000
C000000000
C000000000
C000000000
C000000000
C000000000
C000000000
C000000000
C000000000
C000000000
C000000000
C000000000
C000000000
C000000000
C000000000
C000000000
ENDCHAR
STARTCHAR 00B6
ENCODING 182
SWIDTH 596 0
DWIDTH 53 0
BBX 40 75 2 -9
BITMAP
0007FFFFFF
007FFFFFFF
01FFF00003
03FFF00003
0FFFF00003
1FFFF00003
1FFFF00003
3FFFF00003
7FFFF00003
7FFFF00003
7FFFF00003
FFFFF00003
FFFFF00003
FFFFF00003
FFFFF00003
FFFFF00003
FFFFF00003
7FFFF00003
7FFFF00003
7FFFF00003
3FFFF00003
3FFFF00003
1FFFF00003
0FFFF00003
07FFF00003
03FFF00003
00FFF00003
003FF00003
0001F00003
0000300003
0000300003
0000300003
0000300003
0000300003
0000300003
0000300003
0000300003
0000300003
0000300003
0000300003
0000300003
0000300003
0000300003
0000300003
0000300003
0000300003
0000300003
0000300003
0000300003
0000300003
0000300003
0000300003
0000300003
0000300003
0000300003
0000300003
0000300003
0000300003
0000300003
0000300003
0000300003
0000300003
0000300003
0000300003
0000300003
0000300003
0000300003
0000300003
0000300003
0000300003
0000300003
0000300003
0000300003
0000300003
0000300003
ENDCHAR
STARTCHAR 00B7
ENCODING 183
SWIDTH 213 0
DWIDTH 19 0
BBX 4 5 8 21
BITMAP
60
F0
F0
F0
60
ENDCHAR
STARTCHAR 00B8
ENCODING 184
SWIDTH 596 0
DWIDTH 53 0
BBX 14 19 19 -19
BITMAP
0300
0300
0300
0200
0600
07C0
07F0
0038
001C
000C
000C
0004
0004
000C
000C
8018
E038
7FE0
1F80
ENDCHAR
STARTCHAR 00B9
ENCODING 185
SWIDTH 427 0
DWIDTH 38 0
BBX 24 37 8 29
BITMAP
7FFC00
7FFC00
000C00
000C00
000C00
000C00
000C00
000C00
000C00
000C00
000C00
000C00
000C00
000C00
000C00
000C00
000C00
000C00
000C00
000C00
000C00
000C00
000C00
000C00
000C00
000C00
000C00
000C00
000C00
000C00
000C00
000C00
000C00
000C00
000C00
FFFFFF
FFFFFF
ENDCHAR
STARTCHAR 00BA
ENCODING 186
SWIDTH 405 0
DWIDTH 36 0
BBX 29 28 4 38
BITMAP
007FE000
01FFF800
07800E00
0E000700
18000180
300000C0
60000060
60000060
C0000030
C0000030
C0000030
80000010
80000010
80000018
80000018
80000010
80000010
C0000030
C0000030
60000020
60000060
300000C0
180001C0
1C000380
07000600
03C03C00
00FFF000
00060000
ENDCHAR
STARTCHAR 00BB
ENCODING 187
SWIDTH 416 0
DWIDTH 37 0
BBX 28 32 4 7
BITMAP
E0030000
30018000
3000C000
1800E000
0C006000
06003000
03001800
03000C00
01800E00
00C00600
00600300
00700180
003000C0
001800C0
000C0060
00060030
00060030
000C0060
001800C0
003000C0
00700180
00600300
00C00600
01800C00
03000C00
07001800
06003000
0C006000
1800E000
3000C000
30018000
E0030000
ENDCHAR
STARTCHAR 00BC
ENCODING 188
SWIDTH 1012 0
DWIDTH 90 0
BBX 79 62 8 0
BITMAP
7FFC0000000000600000
000C0000000000C00000
000C0000000000C00000
000C0000000001800000
000C0000000003000000
000C0000000003000000
000C0000000006000000
000C000000000C000000
000C000000000C000000
000C0000000018000000
000C0000000030000000
000C0000000030000000
000C0000000060000000
000C00000000C0000000
000C00000000C0000000
000C0000000180000000
000C0000000300000000
000C0000000600000000
000C0000000600000000
000C0000000C00000000
000C0000001800000000
000C0000001800000000
000C0000003000000000
000C0000006000000000
000C0000006000000000
000C000000C000001800
000C0000018000003000
000C0000018000006000
000C000003000000C000
000C000006000001C000
000C0000060000018000
000C00000C0000030000
000C0000180000060000
000C00001800000C0000
000C00003000000C0000
FFFFFF00600000180000
FFFFFF00400000300000
00000000C00000600000
00000001800000600000
00000003000000C00000
00000003000001800600
00000006000003000600
0000000C000006000600
0000000C000006000600
0000001800000C000600
00000030000018000600
00000030000030000600
00000060000030000600
000000C0000060000600
000000C00000C0000600
000001800000FFFFFFFE
00000300000000000600
00000300000000000600
00000600000000000600
00000C00000000000600
00000C00000000000600
00001800000000000600
00003000000000000600
00006000000000000600
00006000000000000600
0000C000000000000600
00018000000000000600
ENDCHAR
STARTCHAR 00BD
ENCODING 189
SWIDTH 1012 0
DWIDTH 90 0
BBX 77 62 8 0
BITMAP
7FFC0000000000600000
000C0000000000C00000
000C0000000000C00000
000C0000000001800000
000C0000000003000000
000C0000000003000000
000C0000000006000000
000C000000000C000000
000C000000000C000000
000C0000000018000000
000C0000000030000000
000C0000000030000000
000C0000000060000000
000C00000000C0000000
000C00000000C0000000
000C0000000180000000
000C0000000300000000
000C0000000600000000
000C0000000600000000
000C0000000C00000000
000C0000001800000000
000C0000001800000000
000C0000003000000000
000C0000006000000000
000C0000006000000000
000C000000C000FFE000
000C0000018007FFFC00
000C000001801E000F00
000C0000030070000380
000C00000600E00001C0
000C00000600000000C0
000C00000C0000000060
000C0000180000000060
000C0000180000000060
000C0000300000000060
FFFFFF00600000000060
FFFFFF00400000000060
00000000C00000000060
000000018000000000C0
000000030000000000C0
00000003000000000180
00000006000000000300
0000000C000000000600
0000000C000000000E00
00000018000000001C00
00000030000000003000
00000030000000006000
0000006000000000C000
000000C0000000018000
000000C0000000030000
00000180000000060000
000003000000001C0000
00000300000000380000
00000600000000700000
00000C00000000C00000
00000C00000001800000
00001800000003000000
00003000000006000000
0000600000000C000000
00006000000038000000
0000C00000007FFFFFF8
0001800000007FFFFFF8
ENDCHAR
STARTCHAR 00BE
ENCODING 190
SWIDTH 1012 0
DWIDTH 90 0
BBX 83 62 4 0
BITMAP
FFFFFFE000000006000000
000000C00000000C000000
000001800000000C000000
0000030000000018000000
0000070000000030000000
0000060000000030000000
00000C0000000060000000
00001800000000C0000000
00003000000000C0000000
0000600000000180000000
0000C00000000300000000
0001800000000300000000
0003800000000600000000
0003000000000C00000000
0006000000000C00000000
000C000000001800000000
001FE00000003000000000
001FFC0000006000000000
00000F0000006000000000
000003800000C000000000
000000C000018000000000
0000006000018000000000
0000006000030000000000
0000003000060000000000
0000003000060000000000
00000030000C0000018000
0000003000180000030000
0000003000180000060000
00000030003000000C0000
00000030006000001C0000
8000006000600000180000
C000006000C00000300000
E00000C001800000600000
7800038001800000C00000
1F000F0003000000C00000
03FFFC0006000001800000
007FC00004000003000000
000000000C000006000000
0000000018000006000000
000000003000000C000000
0000000030000018006000
0000000060000030006000
00000000C0000060006000
00000000C0000060006000
00000001800000C0006000
0000000300000180006000
0000000300000300006000
0000000600000300006000
0000000C00000600006000
0000000C00000C00006000
0000001800000FFFFFFFE0
0000003000000000006000
0000003000000000006000
0000006000000000006000
000000C000000000006000
000000C000000000006000
0000018000000000006000
0000030000000000006000
0000060000000000006000
0000060000000000006000
00000C0000000000006000
0000180000000000006000
ENDCHAR
STARTCHAR 00BF
ENCODING 191
SWIDTH 551 0
DWIDTH 49 0
BBX 39 60 8 -14
BITMAP
0000F00000
0000F00000
0000F00000
0000F00000
0000000000
0000000000
0000000000
0000000000
0000000000
0000000000
0000000000
0000000000
0000000000
0000000000
0000000000
0000000000
0000000000
0000600000
0000600000
0000600000
0000600000
0000400000
0000C00000
0000C00000
0001800000
0003000000
0007000000
000E000000
001C000000
0038000000
0070000000
00E0000000
01C0000000
0300000000
0600000000
0C00000000
1800000000
3000000000
3000000000
6000000000
6000000000
C000000000
C000000000
C000000000
C000000000
C000000000
C000000000
C000000000
C000000000
C000000000
6000000000
6000000006
300000000E
180000001C
1C00000038
06000000E0
03800003C0
00F0001F00
003FFFF800
0007FF8000
ENDCHAR
STARTCHAR 00C0
ENCODING 192
SWIDTH 686 0
DWIDTH 61 0
BBX 59 77 1 0
BITMAP
00003C0000000000
00000E0000000000
0000070000000000
000003C000000000
000000E000000000
0000007000000000
0000003800000000
0000000E00000000
0000000700000000
0000000180000000
0000000000000000
0000000000000000
0000000000000000
0000000000000000
0000000000000000
0000000E00000000
0000000E00000000
0000001B00000000
0000001B00000000
0000003980000000
0000003180000000
00000030C0000000
00000060C0000000
0000006060000000
000000C060000000
000000C060000000
0000018030000000
0000018030000000
0000030018000000
0000030018000000
000006000C000000
000006000C000000
00000C0006000000
00000C0006000000
00000C0003000000
0000180003000000
0000180001800000
0000300001800000
0000300001800000
0000600000C00000
0000600000C00000
0000C00000600000
0000C00000600000
0001800000300000
0001800000300000
0003000000180000
0003000000180000
00070000000C0000
00060000000C0000
0006000000060000
000C000000060000
000C000000070000
0018000000030000
0018000000030000
0030000000018000
0030000000018000
006000000000C000
007FFFFFFFFFC000
00C0000000006000
00C0000000006000
01C0000000003000
0180000000003000
0180000000001800
0300000000001800
0300000000000C00
0600000000000C00
0600000000000C00
0C00000000000600
0C00000000000600
1800000000000300
1800000000000300
3000000000000180
3000000000000180
60000000000000C0
60000000000000C0
E000000000000060
C000000000000060
ENDCHAR
STARTCHAR 00C1
ENCODING 193
SWIDTH 686 0
DWIDTH 61 0
BBX 59 77 1 0
BITMAP
0000000007800000
000000000E000000
000000001C000000
0000000078000000
00000000E0000000
00000001C0000000
0000000380000000
0000000E00000000
0000001C00000000
0000003800000000
0000000000000000
0000000000000000
0000000000000000
0000000000000000
0000000000000000
0000000E00000000
0000000E00000000
0000001B00000000
0000001B00000000
0000003980000000
0000003180000000
00000030C0000000
00000060C0000000
0000006060000000
000000C060000000
000000C060000000
0000018030000000
0000018030000000
0000030018000000
0000030018000000
000006000C000000
000006000C000000
00000C0006000000
00000C0006000000
00000C0003000000
0000180003000000
0000180001800000
0000300001800000
0000300001800000
0000600000C00000
0000600000C00000
0000C00000600000
0000C00000600000
0001800000300000
0001800000300000
0003000000180000
0003000000180000
00070000000C0000
00060000000C0000
0006000000060000
000C000000060000
000C000000070000
0018000000030000
0018000000030000
0030000000018000
0030000000018000
006000000000C000
007FFFFFFFFFC000
00C0000000006000
00C0000000006000
01C0000000003000
0180000000003000
0180000000001800
0300000000001800
0300000000000C00
0600000000000C00
0600000000000C00
0C00000000000600
0C00000000000600
1800000000000300
1800000000000300
3000000000000180
3000000000000180
60000000000000C0
60000000000000C0
E000000000000060
C000000000000060
ENDCHAR
STARTCHAR 00C2
ENCODING 194
SWIDTH 686 0
DWIDTH 61 0
BBX 59 77 1 0
BITMAP
0000000F00000000
0000003B80000000
00000071C0000000
000000E0E0000000
000001C070000000
0000038038000000
000007000C000000
00000C0006000000
0000180003800000
0000300001C00000
0000000000000000
0000000000000000
0000000000000000
0000000000000000
0000000000000000
0000000E00000000
0000000E00000000
0000001B00000000
0000001B00000000
0000003980000000
0000003180000000
00000030C0000000
00000060C0000000
0000006060000000
000000C060000000
000000C060000000
0000018030000000
0000018030000000
0000030018000000
0000030018000000
000006000C000000
000006000C000000
00000C0006000000
00000C0006000000
00000C0003000000
0000180003000000
0000180001800000
0000300001800000
0000300001800000
0000600000C00000
0000600000C00000
0000C00000600000
0000C00000600000
0001800000300000
0001800000300000
0003000000180000
0003000000180000
00070000000C0000
00060000000C0000
0006000000060000
000C000000060000
000C000000070000
0018000000030000
0018000000030000
0030000000018000
0030000000018000
006000000000C000
007FFFFFFFFFC000
00C0000000006000
00C0000000006000
01C0000000003000
0180000000003000
0180000000001800
0300000000001800
0300000000000C00
0600000000000C00
0600000000000C00
0C00000000000600
0C00000000000600
1800000000000300
1800000000000300
3000000000000180
3000000000000180
60000000000000C0
60000000000000C0
E000000000000060
C000000000000060
ENDCHAR
STARTCHAR 00C3
ENCODING 195
SWIDTH 686 0
DWIDTH 61 0
BBX 59 76 1 0
BITMAP
000007E000C00000
00000FF000C00000
0000181C00800000
0000300E01800000
0000300703800000
0000200387000000
00002000FE000000
0000000038000000
0000000000000000
0000000000000000
0000000000000000
0000000000000000
0000000000000000
0000000000000000
0000000E00000000
0000000E00000000
0000001B00000000
0000001B00000000
0000003980000000
0000003180000000
00000030C0000000
00000060C0000000
0000006060000000
000000C060000000
000000C060000000
0000018030000000
0000018030000000
0000030018000000
0000030018000000
000006000C000000
000006000C000000
00000C0006000000
00000C0006000000
00000C0003000000
0000180003000000
0000180001800000
0000300001800000
0000300001800000
0000600000C00000
0000600000C00000
0000C00000600000
0000C00000600000
0001800000300000
0001800000300000
0003000000180000
0003000000180000
00070000000C0000
00060000000C0000
0006000000060000
000C000000060000
000C000000070000
0018000000030000
0018000000030000
0030000000018000
0030000000018000
006000000000C000
007FFFFFFFFFC000
00C0000000006000
00C0000000006000
01C0000000003000
0180000000003000
0180000000001800
0300000000001800
0300000000000C00
0600000000000C00
0600000000000C00
0C00000000000600
0C00000000000600
1800000000000300
1800000000000300
3000000000000180
3000000000000180
60000000000000C0
60000000000000C0
E000000000000060
C000000000000060
ENDCHAR
STARTCHAR 00C4
ENCODING 196
SWIDTH 686 0
DWIDTH 61 0
BBX 59 75 1 0
BITMAP
000007000C000000
00000F001E000000
00000F801E000000
00000F001E000000
000006000C000000
0000000000000000
0000000000000000
0000000000000000
0000000000000000
0000000000000000
0000000000000000
0000000000000000
0000000000000000
0000000E00000000
0000000E00000000
0000001B00000000
0000001B00000000
0000003980000000
0000003180000000
00000030C0000000
00000060C0000000
0000006060000000
000000C060000000
000000C060000000
0000018030000000
0000018030000000
0000030018000000
0000030018000000
000006000C000000
000006000C000000
00000C0006000000
00000C0006000000
00000C0003000000
0000180003000000
0000180001800000
0000300001800000
0000300001800000
0000600000C00000
0000600000C00000
0000C00000600000
0000C00000600000
0001800000300000
0001800000300000
0003000000180000
0003000000180000
00070000000C0000
00060000000C0000
0006000000060000
000C000000060000
000C000000070000
0018000000030000
0018000000030000
0030000000018000
0030000000018000
006000000000C000
007FFFFFFFFFC000
00C0000000006000
00C0000000006000
01C0000000003000
0180000000003000
0180000000001800
0300000000001800
0300000000000C00
0600000000000C00
0600000000000C00
0C00000000000600
0C00000000000600
1800000000000300
1800000000000300
3000000000000180
3000000000000180
60000000000000C0
60000000000000C0
E000000000000060
C000000000000060
ENDCHAR
STARTCHAR 00C5
ENCODING 197
SWIDTH 686 0
DWIDTH 61 0
BBX 59 86 1 0
BITMAP
0000000400000000
0000007FC0000000
000000E0E0000000
0000018030000000
0000030018000000
0000030018000000
0000020008000000
000006000C000000
000006000C000000
000006000C000000
000002000C000000
0000030018000000
0000030018000000
0000018030000000
000000E0E0000000
0000007FC0000000
0000000E00000000
0000000000000000
0000000000000000
0000000000000000
0000000000000000
0000000000000000
0000000000000000
0000000000000000
0000000E00000000
0000000E00000000
0000001B00000000
0000001B00000000
0000003980000000
0000003180000000
00000030C0000000
00000060C0000000
0000006060000000
000000C060000000
000000C060000000
0000018030000000
0000018030000000
0000030018000000
0000030018000000
000006000C000000
000006000C000000
00000C0006000000
00000C0006000000
00000C0003000000
0000180003000000
0000180001800000
0000300001800000
0000300001800000
0000600000C00000
0000600000C00000
0000C00000600000
0000C00000600000
0001800000300000
0001800000300000
0003000000180000
0003000000180000
00070000000C0000
00060000000C0000
0006000000060000
000C000000060000
000C000000070000
0018000000030000
0018000000030000
0030000000018000
0030000000018000
006000000000C000
007FFFFFFFFFC000
00C0000000006000
00C0000000006000
01C0000000003000
0180000000003000
0180000000001800
0300000000001800
0300000000000C00
0600000000000C00
0600000000000C00
0C00000000000600
0C00000000000600
1800000000000300
1800000000000300
3000000000000180
3000000000000180
60000000000000C0
60000000000000C0
E000000000000060
C000000000000060
ENDCHAR
STARTCHAR 00C6
ENCODING 198
SWIDTH 1001 0
DWIDTH 89 0
BBX 82 62 1 0
BITMAP
0000000001FFFFFFFFFF80
0000000003600000000000
0000000003600000000000
0000000006600000000000
000000000C600000000000
000000000C600000000000
0000000018600000000000
0000000030600000000000
0000000030600000000000
0000000060600000000000
0000000060600000000000
00000000C0600000000000
0000000180600000000000
0000000180600000000000
0000000300600000000000
0000000600600000000000
0000000600600000000000
0000000C00600000000000
0000001800600000000000
0000001800600000000000
0000003000600000000000
0000003000600000000000
0000006000600000000000
000000C000600000000000
000000C000600000000000
0000018000600000000000
0000030000600000000000
0000030000600000000000
0000060000600000000000
00000C0000600000000000
00000C00007FFFFFFFF800
0000180000600000000000
0000180000600000000000
0000300000600000000000
0000600000600000000000
0000600000600000000000
0000C00000600000000000
0001800000600000000000
0001800000600000000000
0003000000600000000000
0007000000600000000000
0006000000600000000000
000FFFFFFFE00000000000
000C000000600000000000
0018000000600000000000
0030000000600000000000
0030000000600000000000
0060000000600000000000
00C0000000600000000000
00C0000000600000000000
0180000000600000000000
0380000000600000000000
0300000000600000000000
0600000000600000000000
0600000000600000000000
0C00000000600000000000
1800000000600000000000
1800000000600000000000
3000000000600000000000
6000000000600000000000
60000000007FFFFFFFFFC0
C0000000007FFFFFFFFFC0
ENDCHAR
STARTCHAR 00C7
ENCODING 199
SWIDTH 708 0
DWIDTH 63 0
BBX 53 81 5 -19
BITMAP
000000FFFF8000
00000FF00FF000
00003E00003C00
0000F000000F00
0003C0000001C0
000700000000E0
000E0000000030
00380000000018
00700000000000
00E00000000000
01C00000000000
01800000000000
03000000000000
06000000000000
06000000000000
0C000000000000
0C000000000000
18000000000000
18000000000000
30000000000000
30000000000000
20000000000000
60000000000000
60000000000000
60000000000000
40000000000000
C0000000000000
C0000000000000
C0000000000000
C0000000000000
C0000000000000
C0000000000000
C0000000000000
C0000000000000
C0000000000000
40000000000000
40000000000000
60000000000000
60000000000000
60000000000000
30000000000000
30000000000000
30000000000000
18000000000000
18000000000000
0C000000000000
0C000000000000
06000000000000
07000000000000
03000000000000
01800000000000
00C00000000000
00600000000000
00300000000008
001C0000000018
000E0000000070
000780000000E0
0001C000000380
0000F800000F00
00003F00007C00
000007FE7FE000
0000007FFF0000
00000003000000
00000003000000
00000002000000
00000006000000
00000006000000
00000007800000
0000000FE00000
00000000300000
00000000180000
000000000C0000
000000000C0000
000000000C0000
000000000C0000
000000000C0000
00000000080000
00000080180000
000001C0700000
0000007FE00000
0000001F800000
ENDCHAR
STARTCHAR 00C8
ENCODING 200
SWIDTH 663 0
DWIDTH 59 0
BBX 41 77 12 0
BITMAP
007000000000
003800000000
001E00000000
000700000000
000380000000
0000E0000000
000070000000
000038000000
00000C000000
000007000000
000000000000
000000000000
000000000000
000000000000
000000000000
FFFFFFFFFF00
C00000000000
C00000000000
C00000000000
C00000000000
C00000000000
C00000000000
C00000000000
C00000000000
C00000000000
C00000000000
C00000000000
C00000000000
C00000000000
C00000000000
C00000000000
C00000000000
C00000000000
C00000000000
C00000000000
C00000000000
C00000000000
C00000000000
C00000000000
C00000000000
C00000000000
C00000000000
C00000000000
C00000000000
C00000000000
FFFFFFFFF000
C00000000000
C00000000000
C00000000000
C00000000000
C00000000000
C00000000000
C00000000000
C00000000000
C00000000000
C00000000000
C00000000000
C00000000000
C00000000000
C00000000000
C00000000000
C00000000000
C00000000000
C00000000000
C00000000000
C00000000000
C00000000000
C00000000000
C00000000000
C00000000000
C00000000000
C00000000000
C00000000000
C00000000000
C00000000000
FFFFFFFFFF80
FFFFFFFFFF80
ENDCHAR
STARTCHAR 00C9
ENCODING 201
SWIDTH 663 0
DWIDTH 59 0
BBX 41 77 12 0
BITMAP
0000000E0000
0000003C0000
000000700000
000000E00000
000001C00000
000007000000
00000E000000
00001C000000
000070000000
0000E0000000
000000000000
000000000000
000000000000
000000000000
000000000000
FFFFFFFFFF00
C00000000000
C00000000000
C00000000000
C00000000000
C00000000000
C00000000000
C00000000000
C00000000000
C00000000000
C00000000000
C00000000000
C00000000000
C00000000000
C00000000000
C00000000000
C00000000000
C00000000000
C00000000000
C00000000000
C00000000000
C00000000000
C00000000000
C00000000000
C00000000000
C00000000000
C00000000000
C00000000000
C00000000000
C00000000000
FFFFFFFFF000
C00000000000
C00000000000
C00000000000
C00000000000
C00000000000
C00000000000
C00000000000
C00000000000
C00000000000
C00000000000
C00000000000
C00000000000
C00000000000
C00000000000
C00000000000
C00000000000
C00000000000
C00000000000
C00000000000
C00000000000
C00000000000
C00000000000
C00000000000
C00000000000
C00000000000
C00000000000
C00000000000
C00000000000
C00000000000
FFFFFFFFFF80
FFFFFFFFFF80
ENDCHAR
STARTCHAR 00CA
ENCODING 202
SWIDTH 663 0
DWIDTH 59 0
BBX 41 77 12 0
BITMAP
00003C000000
00007E000000
0000E7000000
000183800000
000700C00000
000E00700000
001C00380000
0038001C0000
0070000E0000
00C000030000
000000000000
000000000000
000000000000
000000000000
000000000000
FFFFFFFFFF00
C00000000000
C00000000000
C00000000000
C00000000000
C00000000000
C00000000000
C00000000000
C00000000000
C00000000000
C00000000000
C00000000000
C00000000000
C00000000000
C00000000000
C00000000000
C00000000000
C00000000000
C00000000000
C00000000000
C00000000000
C00000000000
C00000000000
C00000000000
C00000000000
C00000000000
C00000000000
C00000000000
C00000000000
C00000000000
FFFFFFFFF000
C00000000000
C00000000000
C00000000000
C00000000000
C00000000000
C00000000000
C00000000000
C00000000000
C00000000000
C00000000000
C00000000000
C00000000000
C00000000000
C00000000000
C00000000000
C00000000000
C00000000000
C00000000000
C00000000000
C00000000000
C00000000000
C00000000000
C00000000000
C00000000000
C00000000000
C00000000000
C00000000000
C00000000000
C00000000000
FFFFFFFFFF80
FFFFFFFFFF80
ENDCHAR
STARTCHAR 00CB
ENCODING 203
SWIDTH 663 0
DWIDTH 59 0
BBX 41 75 12 0
BITMAP
001C00380000
003E00780000
003E007C0000
001E00780000
000C00300000
000000000000
000000000000
000000000000
000000000000
000000000000
000000000000
000000000000
000000000000
FFFFFFFFFF00
C00000000000
C00000000000
C00000000000
C00000000000
C00000000000
C00000000000
C00000000000
C00000000000
C00000000000
C00000000000
C00000000000
C00000000000
C00000000000
C00000000000
C00000000000
C00000000000
C00000000000
C00000000000
C00000000000
C00000000000
C00000000000
C00000000000
C00000000000
C00000000000
C00000000000
C00000000000
C00000000000
C00000000000
C00000000000
FFFFFFFFF000
C00000000000
C00000000000
C00000000000
C00000000000
C00000000000
C00000000000
C00000000000
C00000000000
C00000000000
C00000000000
C00000000000
C00000000000
C00000000000
C00000000000
C00000000000
C00000000000
C00000000000
C00000000000
C00000000000
C00000000000
C00000000000
C00000000000
C00000000000
C00000000000
C00000000000
C00000000000
C00000000000
C00000000000
C00000000000
FFFFFFFFFF80
FFFFFFFFFF80
ENDCHAR
STARTCHAR 00CC
ENCODING 204
SWIDTH 281 0
DWIDTH 25 0
BBX 15 77 1 0
BITMAP
F000
3800
1E00
0700
0380
01C0
0070
0038
001C
0006
0000
0000
0000
0000
0000
0018
0018
0018
0018
0018
0018
0018
0018
0018
0018
0018
0018
0018
0018
0018
0018
0018
0018
0018
0018
0018
0018
0018
0018
0018
0018
0018
0018
0018
0018
0018
0018
0018
0018
0018
0018
0018
0018
0018
0018
0018
0018
0018
0018
0018
0018
0018
0018
0018
0018
0018
0018
0018
0018
0018
0018
0018
0018
0018
0018
0018
0018
ENDCHAR
STARTCHAR 00CD
ENCODING 205
SWIDTH 281 0
DWIDTH 25 0
BBX 15 77 9 0
BITMAP
001E
003C
0070
00E0
03C0
0700
0E00
1800
7000
E000
0000
0000
0000
0000
0000
1800
1800
1800
1800
1800
1800
1800
1800
1800
1800
1800
1800
1800
1800
1800
1800
1800
1800
1800
1800
1800
1800
1800
1800
1800
1800
1800
1800
1800
1800
1800
1800
1800
1800
1800
1800
1800
1800
1800
1800
1800
1800
1800
1800
1800
1800
1800
1800
1800
1800
1800
1800
1800
1800
1800
1800
1800
1800
1800
1800
1800
1800
ENDCHAR
STARTCHAR 00CE
ENCODING 206
SWIDTH 281 0
DWIDTH 25 0
BBX 24 77 1 0
BITMAP
003C00
007E00
01C700
038380
0701C0
0E0060
1C0030
30001C
60000E
C00007
000000
000000
000000
000000
000000
001800
001800
001800
001800
001800
001800
001800
001800
001800
001800
001800
001800
001800
001800
001800
001800
001800
001800
001800
001800
001800
001800
001800
001800
001800
001800
001800
001800
001800
001800
001800
001800
001800
001800
001800
001800
001800
001800
001800
001800
001800
001800
001800
001800
001800
001800
001800
001800
001800
001800
001800
001800
001800
001800
001800
001800
001800
001800
001800
001800
001800
001800
ENDCHAR
STARTCHAR 00CF
ENCODING 207
SWIDTH 281 0
DWIDTH 25 0
BBX 19 75 3 0
BITMAP
7000C0
F801E0
F801E0
F001E0
2000C0
000000
000000
000000
000000
000000
000000
000000
000000
006000
006000
006000
006000
006000
006000
006000
006000
006000
006000
006000
006000
006000
006000
006000
006000
006000
006000
006000
006000
006000
006000
006000
006000
006000
006000
006000
006000
006000
006000
006000
006000
006000
006000
006000
006000
006000
006000
006000
006000
006000
006000
006000
006000
006000
006000
006000
006000
006000
006000
006000
006000
006000
006000
006000
006000
006000
006000
006000
006000
006000
006000
ENDCHAR
STARTCHAR 00D0
ENCODING 208
SWIDTH 821 0
DWIDTH 73 0
BBX 66 62 2 0
BITMAP
003FFFFFFF80000000
003000003FF8000000
00300000003F000000
003000000003C00000
003000000000F00000
003000000000380000
0030000000000E0000
003000000000070000
003000000000038000
00300000000000C000
003000000000006000
003000000000003000
003000000000003800
003000000000001800
003000000000000C00
003000000000000C00
003000000000000600
003000000000000200
003000000000000300
003000000000000300
003000000000000180
003000000000000180
003000000000000180
003000000000000080
0030000000000000C0
0030000000000000C0
0030000000000000C0
0030000000000000C0
0030000000000000C0
0030000000000000C0
FFFFFFFF00000000C0
0030000000000000C0
0030000000000000C0
0030000000000000C0
0030000000000000C0
0030000000000000C0
0030000000000000C0
0030000000000000C0
003000000000000080
003000000000000180
003000000000000180
003000000000000180
003000000000000300
003000000000000300
003000000000000600
003000000000000600
003000000000000C00
003000000000000C00
003000000000001800
003000000000003000
003000000000007000
00300000000000E000
00300000000001C000
003000000000038000
003000000000070000
0030000000001C0000
003000000000380000
003000000000E00000
003000000007C00000
00300000007E000000
003FFFFFFFF0000000
003FFFFFFF00000000
ENDCHAR
STARTCHAR 00D1
ENCODING 209
SWIDTH 810 0
DWIDTH 72 0
BBX 49 76 12 0
BITMAP
0000FC00100000
0003FE00300000
00030700300000
00060180300000
000400C0600000
000C0070E00000
000C003FC00000
00000006000000
00000000000000
00000000000000
00000000000000
00000000000000
00000000000000
00000000000000
C0000000000180
E0000000000180
E0000000000180
F0000000000180
D8000000000180
DC000000000180
CE000000000180
C6000000000180
C3000000000180
C1800000000180
C1C00000000180
C0C00000000180
C0600000000180
C0300000000180
C0380000000180
C01C0000000180
C00C0000000180
C0060000000180
C0030000000180
C0038000000180
C0018000000180
C000C000000180
C0006000000180
C0007000000180
C0003000000180
C0001800000180
C0000C00000180
C0000E00000180
C0000700000180
C0000300000180
C0000180000180
C00000C0000180
C00000E0000180
C0000060000180
C0000030000180
C0000018000180
C000001C000180
C000000E000180
C0000006000180
C0000003000180
C0000001800180
C0000001C00180
C0000000C00180
C0000000600180
C0000000300180
C0000000380180
C00000001C0180
C00000000C0180
C0000000060180
C0000000030180
C0000000038180
C0000000018180
C000000000C180
C0000000006180
C0000000007180
C0000000003180
C0000000001980
C0000000000D80
C0000000000F80
C0000000000780
C0000000000380
C0000000000180
ENDCHAR
STARTCHAR 00D2
ENCODING 210
SWIDTH 832 0
DWIDTH 74 0
BBX 64 77 5 0
BITMAP
0000070000000000
000003C000000000
000000E000000000
0000007000000000
0000003C00000000
0000000E00000000
0000000700000000
0000000380000000
00000000E0000000
0000000070000000
0000000000000000
0000000000000000
0000000000000000
0000000000000000
0000000000000000
000000FFFF800000
00000FF00FF00000
00003E00007C0000
0000F000000F0000
0003C0000003C000
000700000000E000
000C000000003800
0038000000001C00
0070000000000E00
00E0000000000700
01C0000000000380
01800000000001C0
03000000000000C0
0600000000000060
0600000000000030
0C00000000000030
0C00000000000018
1800000000000018
180000000000000C
300000000000000C
3000000000000004
2000000000000006
6000000000000006
6000000000000006
6000000000000002
4000000000000003
C000000000000003
C000000000000003
C000000000000003
C000000000000003
C000000000000003
C000000000000003
C000000000000003
C000000000000003
C000000000000003
4000000000000003
4000000000000003
6000000000000002
6000000000000006
6000000000000006
2000000000000006
300000000000000C
300000000000000C
180000000000000C
1800000000000018
0C00000000000018
0C00000000000030
0600000000000070
0700000000000060
03000000000000C0
0180000000000180
00C0000000000380
0060000000000700
0030000000000E00
0018000000001C00
000E000000007000
000700000000E000
0001C0000003C000
0000F800000F0000
00003F00007C0000
000007FC3FE00000
0000007FFF000000
ENDCHAR
STARTCHAR 00D3
ENCODING 211
SWIDTH 832 0
DWIDTH 74 0
BBX 64 77 5 0
BITMAP
0000000000E00000
0000000001C00000
0000000007800000
000000000E000000
000000001C000000
0000000038000000
00000000E0000000
00000001C0000000
0000000300000000
0000000E00000000
0000000000000000
0000000000000000
0000000000000000
0000000000000000
0000000000000000
000000FFFF800000
00000FF00FF00000
00003E00007C0000
0000F000000F0000
0003C0000003C000
000700000000E000
000C000000003800
0038000000001C00
0070000000000E00
00E0000000000700
01C0000000000380
01800000000001C0
03000000000000C0
0600000000000060
0600000000000030
0C00000000000030
0C00000000000018
1800000000000018
180000000000000C
300000000000000C
3000000000000004
2000000000000006
6000000000000006
6000000000000006
6000000000000002
4000000000000003
C000000000000003
C000000000000003
C000000000000003
C000000000000003
C000000000000003
C000000000000003
C000000000000003
C000000000000003
C000000000000003
4000000000000003
4000000000000003
6000000000000002
6000000000000006
6000000000000006
2000000000000006
300000000000000C
300000000000000C
180000000000000C
1800000000000018
0C00000000000018
0C00000000000030
0600000000000070
0700000000000060
03000000000000C0
0180000000000180
00C0000000000380
0060000000000700
0030000000000E00
0018000000001C00
000E000000007000
000700000000E000
0001C0000003C000
0000F800000F0000
00003F00007C0000
000007FC3FE00000
0000007FFF000000
ENDCHAR
STARTCHAR 00D4
ENCODING 212
SWIDTH 832 0
DWIDTH 74 0
BBX 64 77 5 0
BITMAP
00000003C0000000
00000007E0000000
0000000E70000000
0000001C1C000000
000000300E000000
0000006007000000
000001C003800000
0000038001C00000
0000070000600000
00000E0000300000
0000000000000000
0000000000000000
0000000000000000
0000000000000000
0000000000000000
000000FFFF800000
00000FF00FF00000
00003E00007C0000
0000F000000F0000
0003C0000003C000
000700000000E000
000C000000003800
0038000000001C00
0070000000000E00
00E0000000000700
01C0000000000380
01800000000001C0
03000000000000C0
0600000000000060
0600000000000030
0C00000000000030
0C00000000000018
1800000000000018
180000000000000C
300000000000000C
3000000000000004
2000000000000006
6000000000000006
6000000000000006
6000000000000002
4000000000000003
C000000000000003
C000000000000003
C000000000000003
C000000000000003
C000000000000003
C000000000000003
C000000000000003
C000000000000003
C000000000000003
4000000000000003
4000000000000003
6000000000000002
6000000000000006
6000000000000006
2000000000000006
300000000000000C
300000000000000C
180000000000000C
1800000000000018
0C00000000000018
0C00000000000030
0600000000000070
0700000000000060
03000000000000C0
0180000000000180
00C0000000000380
0060000000000700
0030000000000E00
0018000000001C00
000E000000007000
000700000000E000
0001C0000003C000
0000F800000F0000
00003F00007C0000
000007FC3FE00000
0000007FFF000000
ENDCHAR
STARTCHAR 00D5
ENCODING 213
SWIDTH 832 0
DWIDTH 74 0
BBX 64 76 5 0
BITMAP
000000F800100000
000003FE00300000
0000030700300000
0000060180300000
00000400C0600000
00000C0070C00000
00000C003F800000
0000000006000000
0000000000000000
0000000000000000
0000000000000000
0000000000000000
0000000000000000
0000000000000000
000000FFFF800000
00000FF00FF00000
00003E00007C0000
0000F000000F0000
0003C0000003C000
000700000000E000
000C000000003800
0038000000001C00
0070000000000E00
00E0000000000700
01C0000000000380
01800000000001C0
03000000000000C0
0600000000000060
0600000000000030
0C00000000000030
0C00000000000018
1800000000000018
180000000000000C
300000000000000C
3000000000000004
2000000000000006
6000000000000006
6000000000000006
6000000000000002
4000000000000003
C000000000000003
C000000000000003
C000000000000003
C000000000000003
C000000000000003
C000000000000003
C000000000000003
C000000000000003
C000000000000003
4000000000000003
4000000000000003
6000000000000002
6000000000000006
6000000000000006
2000000000000006
300000000000000C
300000000000000C
180000000000000C
1800000000000018
0C00000000000018
0C00000000000030
0600000000000070
0700000000000060
03000000000000C0
0180000000000180
00C0000000000380
0060000000000700
0030000000000E00
0018000000001C00
000E000000007000
000700000000E000
0001C0000003C000
0000F800000F0000
00003F00007C0000
000007FC3FE00000
0000007FFF000000
ENDCHAR
STARTCHAR 00D6
ENCODING 214
SWIDTH 832 0
DWIDTH 74 0
BBX 64 75 5 0
BITMAP
000000C003800000
000001E007C00000
000001E007C00000
000001E007800000
000000C001000000
0000000000000000
0000000000000000
0000000000000000
0000000000000000
0000000000000000
0000000000000000
0000000000000000
0000000000000000
000000FFFF800000
00000FF00FF00000
00003E00007C0000
0000F000000F0000
0003C0000003C000
000700000000E000
000C000000003800
0038000000001C00
0070000000000E00
00E0000000000700
01C0000000000380
01800000000001C0
03000000000000C0
0600000000000060
0600000000000030
0C00000000000030
0C00000000000018
1800000000000018
180000000000000C
300000000000000C
3000000000000004
2000000000000006
6000000000000006
6000000000000006
6000000000000002
4000000000000003
C000000000000003
C000000000000003
C000000000000003
C000000000000003
C000000000000003
C000000000000003
C000000000000003
C000000000000003
C000000000000003
4000000000000003
4000000000000003
6000000000000002
6000000000000006
6000000000000006
2000000000000006
300000000000000C
300000000000000C
180000000000000C
1800000000000018
0C00000000000018
0C00000000000030
0600000000000070
0700000000000060
03000000000000C0
0180000000000180
00C0000000000380
0060000000000700
0030000000000E00
0018000000001C00
000E000000007000
000700000000E000
0001C0000003C000
0000F800000F0000
00003F00007C0000
000007FC3FE00000
0000007FFF000000
ENDCHAR
STARTCHAR 00D7
ENCODING 215
SWIDTH 551 0
DWIDTH 49 0
BBX 27 27 11 18
BITMAP
40000000
E0000060
700000E0
380001C0
1C000380
0E000700
07000E00
03801C00
01C03800
00E07000
0070E000
0039C000
001F8000
000F0000
000F0000
001F8000
0039C000
0070E000
00E07000
01C03800
03801C00
07000E00
0E000700
1C000380
380001C0
700000E0
60000060
ENDCHAR
STARTCHAR 00D8
ENCODING 216
SWIDTH 832 0
DWIDTH 74 0
BBX 64 74 5 -6
BITMAP
0000000000000030
0000000000000060
00000000000000C0
00000000000000C0
0000000000000180
0000000000000300
000000FFFF800600
00000FF00FF00600
00003E00007C0C00
0000F000000F1800
0003C0000003F800
000700000000F000
000C000000007800
003800000000DC00
007000000000CE00
00E0000000018700
01C0000000030380
01800000000601C0
03000000000600C0
06000000000C0060
0600000000180030
0C00000000300030
0C00000000300018
1800000000600018
1800000000C0000C
3000000001C0000C
3000000001800004
2000000003000006
6000000006000006
6000000006000006
600000000C000002
4000000018000003
C000000030000003
C000000030000003
C000000060000003
C0000000C0000003
C000000180000003
C000000180000003
C000000300000003
C000000600000003
C000000E00000003
4000000C00000003
4000001800000003
6000003000000002
6000003000000006
6000006000000006
200000C000000006
300001800000000C
300001800000000C
180003000000000C
1800060000000018
0C000C0000000018
0C000C0000000030
0600180000000070
0700300000000060
03007000000000C0
0180600000000180
00C0C00000000380
0061800000000700
0031800000000E00
001B000000001C00
000E000000007000
000F00000000E000
000DC0000003C000
0018F800000F0000
00303F00007C0000
007007FC3FE00000
0060007FFF000000
00C0000000000000
0180000000000000
0180000000000000
0300000000000000
0600000000000000
0C00000000000000
ENDCHAR
STARTCHAR 00D9
ENCODING 217
SWIDTH 787 0
DWIDTH 70 0
BBX 48 77 11 0
BITMAP
000780000000
0003C0000000
0000E0000000
000070000000
00003C000000
00000E000000
000007000000
000001800000
000000E00000
000000700000
000000000000
000000000000
000000000000
000000000000
000000000000
C00000000001
C00000000001
C00000000001
C00000000001
C00000000001
C00000000001
C00000000001
C00000000001
C00000000001
C00000000001
C00000000001
C00000000001
C00000000001
C00000000001
C00000000001
C00000000001
C00000000001
C00000000001
C00000000001
C00000000001
C00000000001
C00000000001
C00000000001
C00000000001
C00000000001
C00000000001
C00000000001
C00000000001
C00000000001
C00000000001
C00000000001
C00000000001
C00000000001
C00000000001
C00000000001
C00000000001
C00000000003
C00000000003
C00000000003
C00000000003
C00000000003
400000000003
600000000003
600000000003
600000000002
600000000006
200000000006
300000000006
30000000000C
18000000000C
180000000018
0C0000000018
0C0000000030
060000000070
030000000060
0180000000C0
00C000000380
007000000700
003C00001C00
000F0000F800
0003FE7FE000
00007FFE0000
ENDCHAR
STARTCHAR 00DA
ENCODING 218
SWIDTH 787 0
DWIDTH 70 0
BBX 48 77 11 0
BITMAP
00000000F000
00000001C000
000000078000
0000000E0000
0000001C0000
000000380000
000000E00000
000001C00000
000003800000
000006000000
000000000000
000000000000
000000000000
000000000000
000000000000
C00000000001
C00000000001
C00000000001
C00000000001
C00000000001
C00000000001
C00000000001
C00000000001
C00000000001
C00000000001
C00000000001
C00000000001
C00000000001
C00000000001
C00000000001
C00000000001
C00000000001
C00000000001
C00000000001
C00000000001
C00000000001
C00000000001
C00000000001
C00000000001
C00000000001
C00000000001
C00000000001
C00000000001
C00000000001
C00000000001
C00000000001
C00000000001
C00000000001
C00000000001
C00000000001
C00000000001
C00000000003
C00000000003
C00000000003
C00000000003
C00000000003
400000000003
600000000003
600000000003
600000000002
600000000006
200000000006
300000000006
30000000000C
18000000000C
180000000018
0C0000000018
0C0000000030
060000000070
030000000060
0180000000C0
00C000000380
007000000700
003C00001C00
000F0000F800
0003FE7FE000
00007FFE0000
ENDCHAR
STARTCHAR 00DB
ENCODING 219
SWIDTH 787 0
DWIDTH 70 0
BBX 48 77 11 0
BITMAP
000003C00000
000007E00000
00000E380000
00001C1C0000
0000380E0000
000060070000
0000C0038000
00038001C000
000700006000
000E00003000
000000000000
000000000000
000000000000
000000000000
000000000000
C00000000001
C00000000001
C00000000001
C00000000001
C00000000001
C00000000001
C00000000001
C00000000001
C00000000001
C00000000001
C00000000001
C00000000001
C00000000001
C00000000001
C00000000001
C00000000001
C00000000001
C00000000001
C00000000001
C00000000001
C00000000001
C00000000001
C00000000001
C00000000001
C00000000001
C00000000001
C00000000001
C00000000001
C00000000001
C00000000001
C00000000001
C00000000001
C00000000001
C00000000001
C00000000001
C00000000001
C00000000003
C00000000003
C00000000003
C00000000003
C00000000003
400000000003
600000000003
600000000003
600000000002
600000000006
200000000006
300000000006
30000000000C
18000000000C
180000000018
0C0000000018
0C0000000030
060000000070
030000000060
0180000000C0
00C000000380
007000000700
003C00001C00
000F0000F800
0003FE7FE000
00007FFE0000
ENDCHAR
STARTCHAR 00DC
ENCODING 220
SWIDTH 787 0
DWIDTH 70 0
BBX 48 75 11 0
BITMAP
0000C0038000
0001E007C000
0001E007C000
0001E003C000
0000C0018000
000000000000
000000000000
000000000000
000000000000
000000000000
000000000000
000000000000
000000000000
C00000000001
C00000000001
C00000000001
C00000000001
C00000000001
C00000000001
C00000000001
C00000000001
C00000000001
C00000000001
C00000000001
C00000000001
C00000000001
C00000000001
C00000000001
C00000000001
C00000000001
C00000000001
C00000000001
C00000000001
C00000000001
C00000000001
C00000000001
C00000000001
C00000000001
C00000000001
C00000000001
C00000000001
C00000000001
C00000000001
C00000000001
C00000000001
C00000000001
C00000000001
C00000000001
C00000000001
C00000000003
C00000000003
C00000000003
C00000000003
C00000000003
400000000003
600000000003
600000000003
600000000002
600000000006
200000000006
300000000006
30000000000C
18000000000C
180000000018
0C0000000018
0C0000000030
060000000070
030000000060
0180000000C0
00C000000380
007000000700
003C00001C00
000F0000F800
0003FE7FE000
00007FFE0000
ENDCHAR
STARTCHAR 00DD
ENCODING 221
SWIDTH 607 0
DWIDTH 54 0
BBX 52 77 1 0
BITMAP
00000000380000
00000000700000
00000001E00000
00000003800000
00000007000000
0000001E000000
00000038000000
00000070000000
000000C0000000
00000380000000
00000000000000
00000000000000
00000000000000
00000000000000
00000000000000
C0000000000030
60000000000060
30000000000060
300000000000C0
18000000000180
18000000000180
0C000000000300
06000000000300
06000000000600
03000000000C00
03800000000C00
01800000001800
00C00000003800
00C00000003000
00600000006000
00300000006000
0030000000C000
00180000018000
001C0000018000
000C0000030000
00060000070000
00060000060000
000300000C0000
000180000C0000
00018000180000
0000C000300000
0000C000300000
00006000600000
00003000600000
00003000C00000
00001801800000
00001C01800000
00000C03000000
00000607000000
00000606000000
0000030C000000
0000018C000000
00000198000000
000000F0000000
000000F0000000
00000060000000
00000060000000
00000060000000
00000060000000
00000060000000
00000060000000
00000060000000
00000060000000
00000060000000
00000060000000
00000060000000
00000060000000
00000060000000
00000060000000
00000060000000
00000060000000
00000060000000
00000060000000
00000060000000
00000060000000
00000060000000
00000060000000
ENDCHAR
STARTCHAR 00DE
ENCODING 222
SWIDTH 708 0
DWIDTH 63 0
BBX 45 62 12 0
BITMAP
C00000000000
C00000000000
C00000000000
C00000000000
C00000000000
C00000000000
C00000000000
C00000000000
C00000000000
FFFFFFF80000
C00001FF8000
C0000003E000
C00000007800
C00000001C00
C00000000600
C00000000300
C00000000180
C000000000C0
C00000000060
C00000000060
C00000000030
C00000000030
C00000000010
C00000000018
C00000000018
C00000000018
C00000000018
C00000000008
C00000000008
C00000000008
C00000000008
C00000000018
C00000000018
C00000000018
C00000000018
C00000000010
C00000000030
C00000000030
C00000000060
C00000000060
C000000000C0
C00000000180
C00000000380
C00000000700
C00000000C00
C00000003800
C0000001E000
C000001F8000
FFFFFFFC0000
FFFFFF800000
C00000000000
C00000000000
C00000000000
C00000000000
C00000000000
C00000000000
C00000000000
C00000000000
C00000000000
C00000000000
C00000000000
C00000000000
ENDCHAR
STARTCHAR 00DF
ENCODING 223
SWIDTH 641 0
DWIDTH 57 0
BBX 43 66 10 0
BITMAP
0003FFC00000
001FEFF80000
0078001E0000
00E000070000
038000018000
07000000C000
0E0000006000
0C0000003000
180000003000
100000001800
300000001800
300000000C00
600000000C00
600000000C00
600000000C00
400000000C00
C00000000C00
C00000000C00
C00000000C00
C00000000C00
C00000000800
C00000001800
C00000001800
C00000003000
C00000003000
C00000006000
C0000000C000
C00000018000
C00000070000
C000000C0000
C00000780000
C0003FC00000
C0003FFE0000
C000000F8000
C0000000E000
C00000003800
C00000001C00
C00000000600
C00000000300
C00000000180
C00000000180
C000000000C0
C000000000C0
C00000000040
C00000000060
C00000000060
C00000000060
C00000000060
C00000000060
C00000000060
C00000000060
C00000000060
C00000000060
C00000000060
C000000000C0
C000000000C0
C00000000180
C00000000180
C00000000300
C00000000600
C00000000C00
C00000001800
C00000007000
C0020003C000
C003FCFF0000
C000FFF80000
ENDCHAR
STARTCHAR 00E0
ENCODING 224
SWIDTH 573 0
DWIDTH 51 0
BBX 35 64 6 0
BITMAP
01C0000000
00E0000000
0078000000
001C000000
000E000000
0007000000
0001C00000
0000E00000
0000700000
00001C0000
0000000000
0000000000
0000000000
0000000000
0000000000
0000000000
0000000000
0000000000
0007FF8000
007FFFF000
01F0003800
0780000E00
0E00000700
3800000380
7000000180
20000000C0
00000000C0
0000000040
0000000060
0000000060
0000000060
0000000060
0000000020
0000000020
0000000020
0000000020
0000000020
0000000020
0000000020
003FFFFFE0
01FFFFFFE0
0780000020
0E00000020
1800000020
3000000020
6000000020
6000000020
C000000020
C000000020
C000000020
C000000020
C000000060
C000000060
C0000000E0
C0000000A0
C0000001A0
6000000320
6000000720
3000000E20
1800001C20
0E00007020
078001E020
01FE7F8020
003FFC0020
ENDCHAR
STARTCHAR 00E1
ENCODING 225
SWIDTH 573 0
DWIDTH 51 0
BBX 35 64 6 0
BITMAP
0000003C00
0000007800
000000E000
000001C000
0000078000
00000E0000
00001C0000
0000700000
0000E00000
0001C00000
0000000000
0000000000
0000000000
0000000000
0000000000
0000000000
0000000000
0000000000
0007FF8000
007FFFF000
01F0003800
0780000E00
0E00000700
3800000380
7000000180
20000000C0
00000000C0
0000000040
0000000060
0000000060
0000000060
0000000060
0000000020
0000000020
0000000020
0000000020
0000000020
0000000020
0000000020
003FFFFFE0
01FFFFFFE0
0780000020
0E00000020
1800000020
3000000020
6000000020
6000000020
C000000020
C000000020
C000000020
C000000020
C000000060
C000000060
C0000000E0
C0000000A0
C0000001A0
6000000320
6000000720
3000000E20
1800001C20
0E00007020
078001E020
01FE7F8020
003FFC0020
ENDCHAR
STARTCHAR 00E2
ENCODING 226
SWIDTH 573 0
DWIDTH 51 0
BBX 35 64 6 0
BITMAP
0000700000
0001F80000
00039C0000
00070E0000
000E030000
001C01C000
003800E000
0060007000
00C0003800
0180001C00
0000000000
0000000000
0000000000
0000000000
0000000000
0000000000
0000000000
0000000000
0007FF8000
007FFFF000
01F0003800
0780000E00
0E00000700
3800000380
7000000180
20000000C0
00000000C0
0000000040
0000000060
0000000060
0000000060
0000000060
0000000020
0000000020
0000000020
0000000020
0000000020
0000000020
0000000020
003FFFFFE0
01FFFFFFE0
0780000020
0E00000020
1800000020
3000000020
6000000020
6000000020
C000000020
C000000020
C000000020
C000000020
C000000060
C000000060
C0000000E0
C0000000A0
C0000001A0
6000000320
6000000720
3000000E20
1800001C20
0E00007020
078001E020
01FE7F8020
003FFC0020
ENDCHAR
STARTCHAR 00E3
ENCODING 227
SWIDTH 573 0
DWIDTH 51 0
BBX 35 63 6 0
BITMAP
001E000000
007F800400
00C1C00C00
0180E00C00
0180701800
0300383800
03000FF000
030007C000
0000000000
0000000000
0000000000
0000000000
0000000000
0000000000
0000000000
0000000000
0000000000
0007FF8000
007FFFF000
01F0003800
0780000E00
0E00000700
3800000380
7000000180
20000000C0
00000000C0
0000000040
0000000060
0000000060
0000000060
0000000060
0000000020
0000000020
0000000020
0000000020
0000000020
0000000020
0000000020
003FFFFFE0
01FFFFFFE0
0780000020
0E00000020
1800000020
3000000020
6000000020
6000000020
C000000020
C000000020
C000000020
C000000020
C000000060
C000000060
C0000000E0
C0000000A0
C0000001A0
6000000320
6000000720
3000000E20
1800001C20
0E00007020
078001E020
01FE7F8020
003FFC0020
ENDCHAR
STARTCHAR 00E4
ENCODING 228
SWIDTH 573 0
DWIDTH 51 0
BBX 35 62 6 0
BITMAP
0030004000
007800F000
007801F000
007801F000
003000E000
0000000000
0000000000
0000000000
0000000000
0000000000
0000000000
0000000000
0000000000
0000000000
0000000000
0000000000
0007FF8000
007FFFF000
01F0003800
0780000E00
0E00000700
3800000380
7000000180
20000000C0
00000000C0
0000000040
0000000060
0000000060
0000000060
0000000060
0000000020
0000000020
0000000020
0000000020
0000000020
0000000020
0000000020
003FFFFFE0
01FFFFFFE0
0780000020
0E00000020
1800000020
3000000020
6000000020
6000000020
C000000020
C000000020
C000000020
C000000020
C000000060
C000000060
C0000000E0
C0000000A0
C0000001A0
6000000320
6000000720
3000000E20
1800001C20
0E00007020
078001E020
01FE7F8020
003FFC0020
ENDCHAR
STARTCHAR 00E5
ENCODING 229
SWIDTH 573 0
DWIDTH 51 0
BBX 35 69 6 0
BITMAP
0001FC0000
00078E0000
000E030000
0018018000
001800C000
003000C000
003000C000
0030004000
0030004000
003000C000
003000C000
001800C000
001C018000
000E070000
0007FE0000
0001F80000
0000000000
0000000000
0000000000
0000000000
0000000000
0000000000
0000000000
0007FF8000
007FFFF000
01F0003800
0780000E00
0E00000700
3800000380
7000000180
20000000C0
00000000C0
0000000040
0000000060
0000000060
0000000060
0000000060
0000000020
0000000020
0000000020
0000000020
0000000020
0000000020
0000000020
003FFFFFE0
01FFFFFFE0
0780000020
0E00000020
1800000020
3000000020
6000000020
6000000020
C000000020
C000000020
C000000020
C000000020
C000000060
C000000060
C0000000E0
C0000000A0
C0000001A0
6000000320
6000000720
3000000E20
1800001C20
0E00007020
078001E020
01FE7F8020
003FFC0020
ENDCHAR
STARTCHAR 00E6
ENCODING 230
SWIDTH 978 0
DWIDTH 87 0
BBX 76 46 6 0
BITMAP
0007FF8000007FF80000
007FFFF00003FDFE0000
01F00038000F80078000
0780000E001C0000E000
0E000007003000007000
3800000300E000001800
7000000180C000000C00
20000000C18000000600
00000000C30000000300
00000000460000000180
00000000660000000180
000000006C00000000C0
000000006800000000C0
00000000780000000060
00000000380000000060
00000000300000000060
00000000300000000030
00000000300000000030
00000000300000000030
00000000300000000030
00000000200000000030
001FFFFFFFFFFFFFFFF0
01FFFFFFFFFFFFFFFFF0
07C00000200000000000
0E000000200000000000
18000000200000000000
30000000300000000000
60000000300000000000
60000000300000000000
C0000000700000000000
C0000000700000000000
C0000000780000000000
C0000000780000000000
C00000006C0000000000
C00000004C0000000000
C0000000C60000000000
C0000000C30000000000
C0000001830000000000
60000003818000000180
6000000300C000000380
3000000E007000000700
1800001C003800000E00
0E000078000E00003800
078001E000078001F000
01FE7F800001FE7FC000
003FFC0000003FFE0000
ENDCHAR
STARTCHAR 00E7
ENCODING 231
SWIDTH 540 0
DWIDTH 48 0
BBX 39 65 5 -19
BITMAP
0000FFF000
0007FDFE00
001E000780
00380000E0
00E0000070
01C0000018
038000000C
0600000006
0C00000000
0C00000000
1800000000
3000000000
3000000000
6000000000
6000000000
6000000000
4000000000
C000000000
C000000000
C000000000
C000000000
C000000000
C000000000
C000000000
C000000000
C000000000
C000000000
C000000000
C000000000
4000000000
6000000000
6000000000
6000000000
3000000000
3000000000
1800000000
0C00000000
0E00000000
0600000006
038000000C
01C0000018
00E0000070
00780000E0
001E000780
0007F9FE00
0000FFF000
0000080000
0000180000
0000180000
0000180000
0000100000
00003E0000
00003F8000
000001C000
000000E000
0000006000
0000002000
0000003000
0000003000
0000002000
0000006000
000000E000
000701C000
0003FF8000
00007C0000
ENDCHAR
STARTCHAR 00E8
ENCODING 232
SWIDTH 585 0
DWIDTH 52 0
BBX 42 64 5 0
BITMAP
007800000000
001C00000000
000F00000000
000380000000
0001C0000000
0000E0000000
000038000000
00001C000000
00000E000000
000003000000
000000800000
000000000000
000000000000
000000000000
000000000000
000000000000
000000000000
000000000000
0001FFE00000
0007FBFC0000
001E001F0000
007000038000
00E00000E000
018000007000
030000003800
060000001800
0C0000000C00
180000000600
180000000600
300000000300
300000000300
600000000180
600000000180
400000000080
C000000000C0
C000000000C0
C000000000C0
C000000000C0
C00000000040
FFFFFFFFFFC0
FFFFFFFFFFC0
800000000000
C00000000000
C00000000000
C00000000000
C00000000000
C00000000000
400000000000
600000000000
600000000000
200000000000
300000000000
300000000000
180000000000
0C0000000000
0E0000000000
060000000600
038000000600
01C000001C00
00E000003800
00380000F000
001F0003C000
0007F8FF0000
0000FFF80000
ENDCHAR
STARTCHAR 00E9
ENCODING 233
SWIDTH 585 0
DWIDTH 52 0
BBX 42 64 5 0
BITMAP
000000078000
0000000E0000
0000001C0000
000000780000
000000E00000
000001C00000
000003800000
00000E000000
00001C000000
000038000000
000000000000
000000000000
000000000000
000000000000
000000000000
000000000000
000000000000
000000000000
0001FFE00000
0007FBFC0000
001E001F0000
007000038000
00E00000E000
018000007000
030000003800
060000001800
0C0000000C00
180000000600
180000000600
300000000300
300000000300
600000000180
600000000180
400000000080
C000000000C0
C000000000C0
C000000000C0
C000000000C0
C00000000040
FFFFFFFFFFC0
FFFFFFFFFFC0
800000000000
C00000000000
C00000000000
C00000000000
C00000000000
C00000000000
400000000000
600000000000
600000000000
200000000000
300000000000
300000000000
180000000000
0C0000000000
0E0000000000
060000000600
038000000600
01C000001C00
00E000003800
00380000F000
001F0003C000
0007F8FF0000
0000FFF80000
ENDCHAR
STARTCHAR 00EA
ENCODING 234
SWIDTH 585 0
DWIDTH 52 0
BBX 42 64 5 0
BITMAP
00001E000000
00003F000000
000073800000
0000E1C00000
0001C0E00000
000380300000
000600180000
000C000E0000
001800070000
007000038000
000000000000
000000000000
000000000000
000000000000
000000000000
000000000000
000000000000
000000000000
0001FFE00000
0007FBFC0000
001E001F0000
007000038000
00E00000E000
018000007000
030000003800
060000001800
0C0000000C00
180000000600
180000000600
300000000300
300000000300
600000000180
600000000180
400000000080
C000000000C0
C000000000C0
C000000000C0
C000000000C0
C00000000040
FFFFFFFFFFC0
FFFFFFFFFFC0
800000000000
C00000000000
C00000000000
C00000000000
C00000000000
C00000000000
400000000000
600000000000
600000000000
200000000000
300000000000
300000000000
180000000000
0C0000000000
0E0000000000
060000000600
038000000600
01C000001C00
00E000003800
00380000F000
001F0003C000
0007F8FF0000
0000FFF80000
ENDCHAR
STARTCHAR 00EB
ENCODING 235
SWIDTH 585 0
DWIDTH 52 0
BBX 42 62 5 0
BITMAP
000600080000
000F003C0000
000F003E0000
000F003E0000
000E001C0000
000000000000
000000000000
000000000000
000000000000
000000000000
000000000000
000000000000
000000000000
000000000000
000000000000
000000000000
0001FFE00000
0007FBFC0000
001E001F0000
007000038000
00E00000E000
018000007000
030000003800
060000001800
0C0000000C00
180000000600
180000000600
300000000300
300000000300
600000000180
600000000180
400000000080
C000000000C0
C000000000C0
C000000000C0
C000000000C0
C00000000040
FFFFFFFFFFC0
FFFFFFFFFFC0
800000000000
C00000000000
C00000000000
C00000000000
C00000000000
C00000000000
400000000000
600000000000
600000000000
200000000000
300000000000
300000000000
180000000000
0C0000000000
0E0000000000
060000000600
038000000600
01C000001C00
00E000003800
00380000F000
001F0003C000
0007F8FF0000
0000FFF80000
ENDCHAR
STARTCHAR 00EC
ENCODING 236
SWIDTH 247 0
DWIDTH 22 0
BBX 16 64 -1 0
BITMAP
F000
3800
1C00
0F00
0380
01C0
0070
0038
001C
0006
0001
0000
0000
0000
0000
0000
0000
0000
0018
0018
0018
0018
0018
0018
0018
0018
0018
0018
0018
0018
0018
0018
0018
0018
0018
0018
0018
0018
0018
0018
0018
0018
0018
0018
0018
0018
0018
0018
0018
0018
0018
0018
0018
0018
0018
0018
0018
0018
0018
0018
0018
0018
0018
0018
ENDCHAR
STARTCHAR 00ED
ENCODING 237
SWIDTH 247 0
DWIDTH 22 0
BBX 15 64 8 0
BITMAP
001E
0038
0070
01E0
0380
0700
0E00
3800
7000
E000
0000
0000
0000
0000
0000
0000
0000
0000
3000
3000
3000
3000
3000
3000
3000
3000
3000
3000
3000
3000
3000
3000
3000
3000
3000
3000
3000
3000
3000
3000
3000
3000
3000
3000
3000
3000
3000
3000
3000
3000
3000
3000
3000
3000
3000
3000
3000
3000
3000
3000
3000
3000
3000
3000
ENDCHAR
STARTCHAR 00EE
ENCODING 238
SWIDTH 247 0
DWIDTH 22 0
BBX 19 64 2 0
BITMAP
00E000
01F000
033000
061800
0E0C00
1C0600
380700
700380
E001C0
C000E0
000000
000000
000000
000000
000000
000000
000000
000000
00C000
00C000
00C000
00C000
00C000
00C000
00C000
00C000
00C000
00C000
00C000
00C000
00C000
00C000
00C000
00C000
00C000
00C000
00C000
00C000
00C000
00C000
00C000
00C000
00C000
00C000
00C000
00C000
00C000
00C000
00C000
00C000
00C000
00C000
00C000
00C000
00C000
00C000
00C000
00C000
00C000
00C000
00C000
00C000
00C000
00C000
ENDCHAR
STARTCHAR 00EF
ENCODING 239
SWIDTH 247 0
DWIDTH 22 0
BBX 14 62 4 0
BITMAP
2018
F03C
F03C
F03C
7018
0000
0000
0000
0000
0000
0000
0000
0000
0000
0000
0000
0300
0300
0300
0300
0300
0300
0300
0300
0300
0300
0300
0300
0300
0300
0300
0300
0300
0300
0300
0300
0300
0300
0300
0300
0300
0300
0300
0300
0300
0300
0300
0300
0300
0300
0300
0300
0300
0300
0300
0300
0300
0300
0300
0300
0300
0300
ENDCHAR
STARTCHAR 00F0
ENCODING 240
SWIDTH 607 0
DWIDTH 54 0
BBX 45 62 5 0
BITMAP
00FFFFC00300
0FF803F81F00
0E00001E7C00
00000007E000
00000007C000
0000003E7000
000000F83800
000003E01C00
00000F000C00
00003C000600
0001F0000300
0007C0000380
001E00000180
0078000000C0
00E0000000C0
008000000060
000000000060
000000000060
000000000030
000000000030
000000000030
000000000030
000000000010
000000000018
0001FFE00018
001FFBFC0018
007C000F0018
00E00001C018
03800000E018
070000003818
0E0000001C18
1C0000000C18
180000000618
300000000318
300000000318
600000000198
600000000198
C00000000098
C000000000D8
C000000000D0
C000000000F0
C00000000070
C00000000070
C00000000070
C000000000E0
C000000000E0
C000000000E0
C000000000C0
C000000000C0
600000000180
600000000180
300000000300
300000000300
180000000600
1C0000000C00
0E0000001800
070000003000
03800000E000
01E00003C000
0078000F0000
001FE3FC0000
0003FFE00000
ENDCHAR
STARTCHAR 00F1
ENCODING 241
SWIDTH 663 0
DWIDTH 59 0
BBX 40 63 10 0
BITMAP
000F000000
003FC00300
0070E00300
0060300200
00C01C0600
00C00E0C00
00C007F800
008001F000
0000000000
0000000000
0000000000
0000000000
0000000000
0000000000
0000000000
0000000000
0000000000
C001FFE000
C00FFBFC00
C03C000F00
C070000380
C1C00000E0
C380000060
C600000030
C600000018
CC00000018
D80000000C
D00000000C
F000000006
F000000006
E000000006
E000000002
E000000002
C000000003
C000000003
C000000003
C000000003
C000000003
C000000003
C000000003
C000000003
C000000003
C000000003
C000000003
C000000003
C000000003
C000000003
C000000003
C000000003
C000000003
C000000003
C000000003
C000000003
C000000003
C000000003
C000000003
C000000003
C000000003
C000000003
C000000003
C000000003
C000000003
C000000003
ENDCHAR
STARTCHAR 00F2
ENCODING 242
SWIDTH 607 0
DWIDTH 54 0
BBX 44 64 5 0
BITMAP
003C00000000
000E00000000
000700000000
0003C0000000
0000E0000000
000070000000
00001C000000
00000E000000
000007000000
000001800000
000000400000
000000000000
000000000000
000000000000
000000000000
000000000000
000000000000
000000000000
0000FFF00000
0007FDFE0000
001E00078000
00380001E000
00E000007000
01C000001800
030000000C00
060000000600
0C0000000300
0C0000000180
180000000180
3000000000C0
3000000000C0
600000000060
600000000060
600000000020
400000000030
C00000000030
C00000000030
C00000000030
C00000000010
C00000000010
C00000000010
C00000000010
C00000000010
C00000000010
C00000000030
C00000000030
C00000000030
400000000030
600000000020
600000000060
200000000060
3000000000C0
3000000000C0
180000000180
0C0000000380
0E0000000300
060000000600
030000000C00
01C000001800
00E000007000
00780001E000
001E00078000
0007F9FE0000
0000FFF00000
ENDCHAR
STARTCHAR 00F3
ENCODING 243
SWIDTH 607 0
DWIDTH 54 0
BBX 44 64 5 0
BITMAP
00000003C000
000000070000
0000000E0000
0000003C0000
000000700000
000000E00000
000001C00000
000007000000
00000E000000
00001C000000
000000000000
000000000000
000000000000
000000000000
000000000000
000000000000
000000000000
000000000000
0000FFF00000
0007FDFE0000
001E00078000
00380001E000
00E000007000
01C000001800
030000000C00
060000000600
0C0000000300
0C0000000180
180000000180
3000000000C0
3000000000C0
600000000060
600000000060
600000000020
400000000030
C00000000030
C00000000030
C00000000030
C00000000010
C00000000010
C00000000010
C00000000010
C00000000010
C00000000010
C00000000030
C00000000030
C00000000030
400000000030
600000000020
600000000060
200000000060
3000000000C0
3000000000C0
180000000180
0C0000000380
0E0000000300
060000000600
030000000C00
01C000001800
00E000007000
00780001E000
001E00078000
0007F9FE0000
0000FFF00000
ENDCHAR
STARTCHAR 00F4
ENCODING 244
SWIDTH 607 0
DWIDTH 54 0
BBX 44 64 5 0
BITMAP
00000F000000
00001F800000
000039C00000
000070E00000
0000E0700000
0001C0180000
0003000C0000
000600070000
000C00038000
00380001C000
000000000000
000000000000
000000000000
000000000000
000000000000
000000000000
000000000000
000000000000
0000FFF00000
0007FDFE0000
001E00078000
00380001E000
00E000007000
01C000001800
030000000C00
060000000600
0C0000000300
0C0000000180
180000000180
3000000000C0
3000000000C0
600000000060
600000000060
600000000020
400000000030
C00000000030
C00000000030
C00000000030
C00000000010
C00000000010
C00000000010
C00000000010
C00000000010
C00000000010
C00000000030
C00000000030
C00000000030
400000000030
600000000020
600000000060
200000000060
3000000000C0
3000000000C0
180000000180
0C0000000380
0E0000000300
060000000600
030000000C00
01C000001800
00E000007000
00780001E000
001E00078000
0007F9FE0000
0000FFF00000
ENDCHAR
STARTCHAR 00F5
ENCODING 245
SWIDTH 607 0
DWIDTH 54 0
BBX 44 63 5 0
BITMAP
0003E0000000
0007F000C000
000C1C00C000
00180E00C000
001007018000
003003838000
003000FF0000
0030007C0000
000000000000
000000000000
000000000000
000000000000
000000000000
000000000000
000000000000
000000000000
000000000000
0000FFF00000
0007FDFE0000
001E00078000
00380001E000
00E000007000
01C000001800
030000000C00
060000000600
0C0000000300
0C0000000180
180000000180
3000000000C0
3000000000C0
600000000060
600000000060
600000000020
400000000030
C00000000030
C00000000030
C00000000030
C00000000010
C00000000010
C00000000010
C00000000010
C00000000010
C00000000010
C00000000030
C00000000030
C00000000030
400000000030
600000000020
600000000060
200000000060
3000000000C0
3000000000C0
180000000180
0C0000000380
0E0000000300
060000000600
030000000C00
01C000001800
00E000007000
00780001E000
001E00078000
0007F9FE0000
0000FFF00000
ENDCHAR
STARTCHAR 00F6
ENCODING 246
SWIDTH 607 0
DWIDTH 54 0
BBX 44 62 5 0
BITMAP
000200040000
0007801E0000
000F801F0000
0007801F0000
0007000E0000
000000000000
000000000000
000000000000
000000000000
000000000000
000000000000
000000000000
000000000000
000000000000
000000000000
000000000000
0000FFF00000
0007FDFE0000
001E00078000
00380001E000
00E000007000
01C000001800
030000000C00
060000000600
0C0000000300
0C0000000180
180000000180
3000000000C0
3000000000C0
600000000060
600000000060
600000000020
400000000030
C00000000030
C00000000030
C00000000030
C00000000010
C00000000010
C00000000010
C00000000010
C00000000010
C00000000010
C00000000030
C00000000030
C00000000030
400000000030
600000000020
600000000060
200000000060
3000000000C0
3000000000C0
180000000180
0C0000000380
0E0000000300
060000000600
030000000C00
01C000001800
00E000007000
00780001E000
001E00078000
0007F9FE0000
0000FFF00000
ENDCHAR
STARTCHAR 00F7
ENCODING 247
SWIDTH 551 0
DWIDTH 49 0
BBX 36 36 7 13
BITMAP
0000F00000
0000F00000
0000F00000
0000F00000
0000000000
0000000000
0000000000
0000000000
0000000000
0000000000
0000000000
0000000000
0000000000
0000000000
0000000000
0000000000
0000000000
FFFFFFFFF0
FFFFFFFFF0
0000000000
0000000000
0000000000
0000000000
0000000000
0000000000
0000000000
0000000000
0000000000
0000000000
0000000000
0000000000
0000000000
0000F00000
0000F00000
0000F00000
0000F00000
ENDCHAR
STARTCHAR 00F8
ENCODING 248
SWIDTH 607 0
DWIDTH 54 0
BBX 44 58 5 -6
BITMAP
0000000000C0
0000000000C0
000000000180
000000000300
000000000300
000000000600
0000FFF00C00
0007FDFE0C00
001E00079800
00380001F000
00E000007000
01C000007800
03000000CC00
06000000C600
0C0000018300
0C0000030180
180000030180
3000000600C0
3000000C00C0
6000001C0060
600000180060
600000300020
400000700030
C00000600030
C00000C00030
C00001800030
C00001800010
C00003000010
C00006000010
C00006000010
C0000C000010
C00018000010
C00018000030
C00030000030
C00060000030
400060000030
6000C0000020
600180000060
200180000060
3003000000C0
3006000000C0
180600000180
0C0C00000380
0E1800000300
061800000600
033000000C00
01E000001800
00E000007000
00F80001E000
019E00078000
0387F9FE0000
0300FFF00000
060000000000
0C0000000000
0C0000000000
180000000000
300000000000
300000000000
ENDCHAR
STARTCHAR 00F9
ENCODING 249
SWIDTH 663 0
DWIDTH 59 0
BBX 39 64 10 0
BITMAP
00E0000000
0070000000
003C000000
000E000000
0007000000
0003800000
0000E00000
0000700000
0000380000
00000E0000
0000000000
0000000000
0000000000
0000000000
0000000000
0000000000
0000000000
0000000000
8000000006
8000000006
8000000006
8000000006
8000000006
8000000006
8000000006
8000000006
8000000006
8000000006
8000000006
8000000006
8000000006
8000000006
8000000006
8000000006
8000000006
8000000006
8000000006
8000000006
8000000006
8000000006
8000000006
8000000006
8000000006
8000000006
8000000006
8000000006
8000000006
C000000006
C00000000E
C00000000E
C00000000E
C00000000E
600000001E
6000000016
6000000036
3000000066
3800000066
18000000C6
0C00000186
0700000706
0380000E06
01E0007806
007F8FF006
000FFF8006
ENDCHAR
STARTCHAR 00FA
ENCODING 250
SWIDTH 663 0
DWIDTH 59 0
BBX 39 64 10 0
BITMAP
0000001E00
0000003C00
0000007000
000000E000
0000038000
0000070000
00000E0000
0000380000
0000700000
0000E00000
0000000000
0000000000
0000000000
0000000000
0000000000
0000000000
0000000000
0000000000
8000000006
8000000006
8000000006
8000000006
8000000006
8000000006
8000000006
8000000006
8000000006
8000000006
8000000006
8000000006
8000000006
8000000006
8000000006
8000000006
8000000006
8000000006
8000000006
8000000006
8000000006
8000000006
8000000006
8000000006
8000000006
8000000006
8000000006
8000000006
8000000006
C000000006
C00000000E
C00000000E
C00000000E
C00000000E
600000001E
6000000016
6000000036
3000000066
3800000066
18000000C6
0C00000186
0700000706
0380000E06
01E0007806
007F8FF006
000FFF8006
ENDCHAR
STARTCHAR 00FB
ENCODING 251
SWIDTH 663 0
DWIDTH 59 0
BBX 39 64 10 0
BITMAP
0000380000
0000FC0000
0001CE0000
0003870000
0007018000
000E00C000
001C007000
0030003800
0060001C00
00C0000E00
0000000000
0000000000
0000000000
0000000000
0000000000
0000000000
0000000000
0000000000
8000000006
8000000006
8000000006
8000000006
8000000006
8000000006
8000000006
8000000006
8000000006
8000000006
8000000006
8000000006
8000000006
8000000006
8000000006
8000000006
8000000006
8000000006
8000000006
8000000006
8000000006
8000000006
8000000006
8000000006
8000000006
8000000006
8000000006
8000000006
8000000006
C000000006
C00000000E
C00000000E
C00000000E
C00000000E
600000001E
6000000016
6000000036
3000000066
3800000066
18000000C6
0C00000186
0700000706
0380000E06
01E0007806
007F8FF006
000FFF8006
ENDCHAR
STARTCHAR 00FC
ENCODING 252
SWIDTH 663 0
DWIDTH 59 0
BBX 39 62 10 0
BITMAP
0010002000
003C007000
003C00F800
003C00F800
0018007000
0000000000
0000000000
0000000000
0000000000
0000000000
0000000000
0000000000
0000000000
0000000000
0000000000
0000000000
8000000006
8000000006
8000000006
8000000006
8000000006
8000000006
8000000006
8000000006
8000000006
8000000006
8000000006
8000000006
8000000006
8000000006
8000000006
8000000006
8000000006
8000000006
8000000006
8000000006
8000000006
8000000006
8000000006
8000000006
8000000006
8000000006
8000000006
8000000006
8000000006
C000000006
C00000000E
C00000000E
C00000000E
C00000000E
600000001E
6000000016
6000000036
3000000066
3800000066
18000000C6
0C00000186
0700000706
0380000E06
01E0007806
007F8FF006
000FFF8006
ENDCHAR
STARTCHAR 00FD
ENCODING 253
SWIDTH 506 0
DWIDTH 45 0
BBX 47 81 -3 -18
BITMAP
00000000F000
00000001E000
000000038000
000000070000
0000001C0000
000000380000
000000700000
000001C00000
000003800000
000007000000
000000000000
000000000000
000000000000
000000000000
000000000000
000000000000
000000000000
000000000000
0C0000000006
0C0000000006
06000000000E
06000000000C
03000000000C
030000000018
038000000018
018000000030
018000000030
00C000000060
00C000000060
0060000000C0
0060000000C0
003000000180
003000000180
001800000180
001800000300
000C00000300
000C00000600
000C00000600
000600000C00
000600000C00
000300001800
000300001800
000180003000
000180003000
0000C0003000
0000C0006000
000060006000
00006000C000
00002000C000
000030018000
000030018000
000018030000
000018030000
00000C060000
00000C060000
000006040000
0000060C0000
0000030C0000
000003180000
000001180000
000001B00000
000000B00000
000000E00000
000000E00000
000000C00000
000000C00000
000001800000
000001800000
000003800000
000003000000
000003000000
000006000000
000006000000
00000C000000
00001C000000
000018000000
400030000000
E00060000000
7801C0000000
1E0780000000
07FE00000000
ENDCHAR
STARTCHAR 00FE
ENCODING 254
SWIDTH 663 0
DWIDTH 59 0
BBX 45 83 10 -17
BITMAP
C00000000000
C00000000000
C00000000000
C00000000000
C00000000000
C00000000000
C00000000000
C00000000000
C00000000000
C00000000000
C00000000000
C00000000000
C00000000000
C00000000000
C00000000000
C00000000000
C00000000000
C00000000000
C00000000000
C00000000000
C0007FF00000
C003FDFE0000
C00F00078000
C0380000E000
C07000007000
C0C000001C00
C18000000E00
C30000000700
C60000000300
CC0000000180
C800000000C0
D800000000C0
D00000000060
F00000000060
E00000000020
E00000000030
E00000000030
E00000000030
C00000000010
C00000000018
C00000000018
C00000000018
C00000000018
C00000000018
C00000000018
C00000000018
C00000000018
C00000000018
E00000000030
E00000000030
E00000000030
E00000000020
F00000000060
D00000000060
D800000000C0
C800000000C0
CC0000000180
C60000000300
C30000000700
C18000000E00
C0C000001C00
C06000003000
C0380000E000
C00F0007C000
C003F8FF0000
C000FFF80000
C00000000000
C00000000000
C00000000000
C00000000000
C00000000000
C00000000000
C00000000000
C00000000000
C00000000000
C00000000000
C00000000000
C00000000000
C00000000000
C00000000000
C00000000000
C00000000000
C00000000000
ENDCHAR
STARTCHAR 00FF
ENCODING 255
SWIDTH 506 0
DWIDTH 45 0
BBX 47 79 -3 -18
BITMAP
000080010000
0001E0038000
0001E007C000
0001E007C000
0000C0038000
000000000000
000000000000
000000000000
000000000000
000000000000
000000000000
000000000000
000000000000
000000000000
000000000000
000000000000
0C0000000006
0C0000000006
06000000000E
06000000000C
03000000000C
030000000018
038000000018
018000000030
018000000030
00C000000060
00C000000060
0060000000C0
0060000000C0
003000000180
003000000180
001800000180
001800000300
000C00000300
000C00000600
000C00000600
000600000C00
000600000C00
000300001800
000300001800
000180003000
000180003000
0000C0003000
0000C0006000
000060006000
00006000C000
00002000C000
000030018000
000030018000
000018030000
000018030000
00000C060000
00000C060000
000006040000
0000060C0000
0000030C0000
000003180000
000001180000
000001B00000
000000B00000
000000E00000
000000E00000
000000C00000
000000C00000
000001800000
000001800000
000003800000
000003000000
000003000000
000006000000
000006000000
00000C000000
00001C000000
000018000000
400030000000
E00060000000
7801C0000000
1E0780000000
07FE00000000
ENDCHAR
STARTCHAR 0100
ENCODING 256
SWIDTH 686 0
DWIDTH 61 0
BBX 59 73 1 0
BITMAP
00007FFFFFC00000
00007FFFFFC00000
0000000000000000
0000000000000000
0000000000000000
0000000000000000
0000000000000000
0000000000000000
0000000000000000
0000000000000000
0000000000000000
0000000E00000000
0000000E00000000
0000001B00000000
0000001B00000000
0000003980000000
0000003180000000
00000030C0000000
00000060C0000000
0000006060000000
000000C060000000
000000C060000000
0000018030000000
0000018030000000
0000030018000000
0000030018000000
000006000C000000
000006000C000000
00000C0006000000
00000C0006000000
00000C0003000000
0000180003000000
0000180001800000
0000300001800000
0000300001800000
0000600000C00000
0000600000C00000
0000C00000600000
0000C00000600000
0001800000300000
0001800000300000
0003000000180000
0003000000180000
00070000000C0000
00060000000C0000
0006000000060000
000C000000060000
000C000000070000
0018000000030000
0018000000030000
0030000000018000
0030000000018000
006000000000C000
007FFFFFFFFFC000
00C0000000006000
00C0000000006000
01C0000000003000
0180000000003000
0180000000001800
0300000000001800
0300000000000C00
0600000000000C00
0600000000000C00
0C00000000000600
0C00000000000600
1800000000000300
1800000000000300
3000000000000180
3000000000000180
60000000000000C0
60000000000000C0
E000000000000060
C000000000000060
ENDCHAR
STARTCHAR 0101
ENCODING 257
SWIDTH 573 0
DWIDTH 51 0
BBX 35 60 6 0
BITMAP
03FFFFFC00
03FFFFFC00
0000000000
0000000000
0000000000
0000000000
0000000000
0000000000
0000000000
0000000000
0000000000
0000000000
0000000000
0000000000
0007FF8000
007FFFF000
01F0003800
0780000E00
0E00000700
3800000380
7000000180
20000000C0
00000000C0
0000000040
0000000060
0000000060
0000000060
0000000060
0000000020
0000000020
0000000020
0000000020
0000000020
0000000020
0000000020
003FFFFFE0
01FFFFFFE0
0780000020
0E00000020
1800000020
3000000020
6000000020
6000000020
C000000020
C000000020
C000000020
C000000020
C000000060
C000000060
C0000000E0
C0000000A0
C0000001A0
6000000320
6000000720
3000000E20
1800001C20
0E00007020
078001E020
01FE7F8020
003FFC0020
ENDCHAR
STARTCHAR 0102
ENCODING 258
SWIDTH 686 0
DWIDTH 61 0
BBX 59 77 1 0
BITMAP
0000300000800000
0000300001800000
0000300001800000
0000100001800000
0000180003000000
00000C0007000000
000006000E000000
0000038038000000
000001FFF0000000
0000003F80000000
0000000000000000
0000000000000000
0000000000000000
0000000000000000
0000000000000000
0000000E00000000
0000000E00000000
0000001B00000000
0000001B00000000
0000003980000000
0000003180000000
00000030C0000000
00000060C0000000
0000006060000000
000000C060000000
000000C060000000
0000018030000000
0000018030000000
0000030018000000
0000030018000000
000006000C000000
000006000C000000
00000C0006000000
00000C0006000000
00000C0003000000
0000180003000000
0000180001800000
0000300001800000
0000300001800000
0000600000C00000
0000600000C00000
0000C00000600000
0000C00000600000
0001800000300000
0001800000300000
0003000000180000
0003000000180000
00070000000C0000
00060000000C0000
0006000000060000
000C000000060000
000C000000070000
0018000000030000
0018000000030000
0030000000018000
0030000000018000
006000000000C000
007FFFFFFFFFC000
00C0000000006000
00C0000000006000
01C0000000003000
0180000000003000
0180000000001800
0300000000001800
0300000000000C00
0600000000000C00
0600000000000C00
0C00000000000600
0C00000000000600
1800000000000300
1800000000000300
3000000000000180
3000000000000180
60000000000000C0
60000000000000C0
E000000000000060
C000000000000060
ENDCHAR
STARTCHAR 0103
ENCODING 259
SWIDTH 573 0
DWIDTH 51 0
BBX 35 64 6 0
BITMAP
0100000C00
0100000C00
0180000C00
0180000800
00C0001800
00C0003000
0060007000
003801E000
001F8F8000
0007FE0000
0000000000
0000000000
0000000000
0000000000
0000000000
0000000000
0000000000
0000000000
0007FF8000
007FFFF000
01F0003800
0780000E00
0E00000700
3800000380
7000000180
20000000C0
00000000C0
0000000040
0000000060
0000000060
0000000060
0000000060
0000000020
0000000020
0000000020
0000000020
0000000020
0000000020
0000000020
003FFFFFE0
01FFFFFFE0
0780000020
0E00000020
1800000020
3000000020
6000000020
6000000020
C000000020
C000000020
C000000020
C000000020
C000000060
C000000060
C0000000E0
C0000000A0
C0000001A0
6000000320
6000000720
3000000E20
1800001C20
0E00007020
078001E020
01FE7F8020
003FFC0020
ENDCHAR
STARTCHAR 0104
ENCODING 260
SWIDTH 686 0
DWIDTH 61 0
BBX 61 81 1 -19
BITMAP
0000000E00000000
0000000E00000000
0000001B00000000
0000001B00000000
0000003980000000
0000003180000000
00000030C0000000
00000060C0000000
0000006060000000
000000C060000000
000000C060000000
0000018030000000
0000018030000000
0000030018000000
0000030018000000
000006000C000000
000006000C000000
00000C0006000000
00000C0006000000
00000C0003000000
0000180003000000
0000180001800000
0000300001800000
0000300001800000
0000600000C00000
0000600000C00000
0000C00000600000
0000C00000600000
0001800000300000
0001800000300000
0003000000180000
0003000000180000
00070000000C0000
00060000000C0000
0006000000060000
000C000000060000
000C000000070000
0018000000030000
0018000000030000
0030000000018000
0030000000018000
006000000000C000
007FFFFFFFFFC000
00C0000000006000
00C0000000006000
01C0000000003000
0180000000003000
0180000000001800
0300000000001800
0300000000000C00
0600000000000C00
0600000000000C00
0C00000000000600
0C00000000000600
1800000000000300
1800000000000300
3000000000000180
3000000000000180
60000000000000C0
60000000000000C0
E000000000000060
C0000000000000E0
00000000000001C0
0000000000000700
0000000000001C00
0000000000003800
0000000000007000
000000000000E000
000000000000C000
0000000000018000
0000000000018000
0000000000010000
0000000000030000
0000000000030000
0000000000030000
0000000000030000
0000000000018000
000000000001C000
000000000000E038
0000000000007FF0
0000000000001FC0
ENDCHAR
STARTCHAR 0105
ENCODING 261
SWIDTH 573 0
DWIDTH 51 0
BBX 37 65 6 -19
BITMAP
0007FF8000
007FFFF000
01F0003800
0780000E00
0E00000700
3800000380
7000000180
20000000C0
00000000C0
0000000040
0000000060
0000000060
0000000060
0000000060
0000000020
0000000020
0000000020
0000000020
0000000020
0000000020
0000000020
003FFFFFE0
01FFFFFFE0
0780000020
0E00000020
1800000020
3000000020
6000000020
6000000020
C000000020
C000000020
C000000020
C000000020
C000000060
C000000060
C0000000E0
C0000000A0
C0000001A0
6000000320
6000000720
3000000E20
1800001C20
0E00007020
078001E020
01FE7F8020
003FFC00E0
00000001C0
0000000700
0000001C00
0000003800
0000007000
000000E000
000000C000
0000018000
0000018000
0000010000
0000030000
0000030000
0000030000
0000030000
0000018000
0000018000
000000E038
0000007FF0
0000001F80
ENDCHAR
STARTCHAR 0106
ENCODING 262
SWIDTH 708 0
DWIDTH 63 0
BBX 53 77 5 0
BITMAP
0000000001E000
00000000038000
000000000F0000
000000001C0000
00000000380000
00000000700000
00000001C00000
00000003800000
00000007000000
0000000C000000
00000000000000
00000000000000
00000000000000
00000000000000
00000000000000
000000FFFF8000
00000FF00FF000
00003E00003C00
0000F000000F00
0003C0000001C0
000700000000E0
000E0000000030
00380000000018
00700000000000
00E00000000000
01C00000000000
01800000000000
03000000000000
06000000000000
06000000000000
0C000000000000
0C000000000000
18000000000000
18000000000000
30000000000000
30000000000000
20000000000000
60000000000000
60000000000000
60000000000000
40000000000000
C0000000000000
C0000000000000
C0000000000000
C0000000000000
C0000000000000
C0000000000000
C0000000000000
C0000000000000
C0000000000000
40000000000000
40000000000000
60000000000000
60000000000000
60000000000000
30000000000000
30000000000000
30000000000000
18000000000000
18000000000000
0C000000000000
0C000000000000
06000000000000
07000000000000
03000000000000
01800000000000
00C00000000000
00600000000000
00300000000008
001C0000000018
000E0000000070
000780000000E0
0001C000000380
0000F800000F00
00003F00007C00
000007FE7FE000
0000007FFF0000
ENDCHAR
STARTCHAR 0107
ENCODING 263
SWIDTH 540 0
DWIDTH 48 0
BBX 39 64 5 0
BITMAP
0000000780
0000000E00
0000003C00
0000007000
000000E000
000001C000
0000070000
00000E0000
00001C0000
0000300000
0000000000
0000000000
0000000000
0000000000
0000000000
0000000000
0000000000
0000000000
0000FFF000
0007FDFE00
001E000780
00380000E0
00E0000070
01C0000018
038000000C
0600000006
0C00000000
0C00000000
1800000000
3000000000
3000000000
6000000000
6000000000
6000000000
4000000000
C000000000
C000000000
C000000000
C000000000
C000000000
C000000000
C000000000
C000000000
C000000000
C000000000
C000000000
C000000000
4000000000
6000000000
6000000000
6000000000
3000000000
3000000000
1800000000
0C00000000
0E00000000
0600000006
038000000C
01C0000018
00E0000070
00780000E0
001E000780
0007F9FE00
0000FFF000
ENDCHAR
STARTCHAR 0108
ENCODING 264
SWIDTH 708 0
DWIDTH 63 0
BBX 53 77 5 0
BITMAP
00000007800000
0000000FC00000
0000001C700000
00000038380000
000000701C0000
000000C00E0000
00000180070000
00000700038000
00000E0000C000
00001C00006000
00000000000000
00000000000000
00000000000000
00000000000000
00000000000000
000000FFFF8000
00000FF00FF000
00003E00003C00
0000F000000F00
0003C0000001C0
000700000000E0
000E0000000030
00380000000018
00700000000000
00E00000000000
01C00000000000
01800000000000
03000000000000
06000000000000
06000000000000
0C000000000000
0C000000000000
18000000000000
18000000000000
30000000000000
30000000000000
20000000000000
60000000000000
60000000000000
60000000000000
40000000000000
C0000000000000
C0000000000000
C0000000000000
C0000000000000
C0000000000000
C0000000000000
C0000000000000
C0000000000000
C0000000000000
40000000000000
40000000000000
60000000000000
60000000000000
60000000000000
30000000000000
30000000000000
30000000000000
18000000000000
18000000000000
0C000000000000
0C000000000000
06000000000000
07000000000000
03000000000000
01800000000000
00C00000000000
00600000000000
00300000000008
001C0000000018
000E0000000070
000780000000E0
0001C000000380
0000F800000F00
00003F00007C00
000007FE7FE000
0000007FFF0000
ENDCHAR
STARTCHAR 0109
ENCODING 265
SWIDTH 540 0
DWIDTH 48 0
BBX 39 64 5 0
BITMAP
00001E0000
00003F0000
0000738000
0000E1C000
0001C0E000
0003007000
0006001800
001C000C00
0038000600
0070000380
0000000000
0000000000
0000000000
0000000000
0000000000
0000000000
0000000000
0000000000
0000FFF000
0007FDFE00
001E000780
00380000E0
00E0000070
01C0000018
038000000C
0600000006
0C00000000
0C00000000
1800000000
3000000000
3000000000
6000000000
6000000000
6000000000
4000000000
C000000000
C000000000
C000000000
C000000000
C000000000
C000000000
C000000000
C000000000
C000000000
C000000000
C000000000
C000000000
4000000000
6000000000
6000000000
6000000000
3000000000
3000000000
1800000000
0C00000000
0E00000000
0600000006
038000000C
01C0000018
00E0000070
00780000E0
001E000780
0007F9FE00
0000FFF000
ENDCHAR
STARTCHAR 010A
ENCODING 266
SWIDTH 708 0
DWIDTH 63 0
BBX 53 75 5 0
BITMAP
00000003800000
00000007800000
00000007C00000
00000007800000
00000003000000
00000000000000
00000000000000
00000000000000
00000000000000
00000000000000
00000000000000
00000000000000
00000000000000
000000FFFF8000
00000FF00FF000
00003E00003C00
0000F000000F00
0003C0000001C0
000700000000E0
000E0000000030
00380000000018
00700000000000
00E00000000000
01C00000000000
01800000000000
03000000000000
06000000000000
06000000000000
0C000000000000
0C000000000000
18000000000000
18000000000000
30000000000000
30000000000000
20000000000000
60000000000000
60000000000000
60000000000000
40000000000000
C0000000000000
C0000000000000
C0000000000000
C0000000000000
C0000000000000
C0000000000000
C0000000000000
C0000000000000
C0000000000000
40000000000000
40000000000000
60000000000000
60000000000000
60000000000000
30000000000000
30000000000000
30000000000000
18000000000000
18000000000000
0C000000000000
0C000000000000
06000000000000
07000000000000
03000000000000
01800000000000
00C00000000000
00600000000000
00300000000008
001C0000000018
000E0000000070
000780000000E0
0001C000000380
0000F800000F00
00003F00007C00
000007FE7FE000
0000007FFF0000
ENDCHAR
STARTCHAR 010B
ENCODING 267
SWIDTH 540 0
DWIDTH 48 0
BBX 39 62 5 0
BITMAP
00000C0000
00001E0000
00001E0000
00001E0000
00001C0000
0000000000
0000000000
0000000000
0000000000
0000000000
0000000000
0000000000
0000000000
0000000000
0000000000
0000000000
0000FFF000
0007FDFE00
001E000780
00380000E0
00E0000070
01C0000018
038000000C
0600000006
0C00000000
0C00000000
1800000000
3000000000
3000000000
6000000000
6000000000
6000000000
4000000000
C000000000
C000000000
C000000000
C000000000
C000000000
C000000000
C000000000
C000000000
C000000000
C000000000
C000000000
C000000000
4000000000
6000000000
6000000000
6000000000
3000000000
3000000000
1800000000
0C00000000
0E00000000
0600000006
038000000C
01C0000018
00E0000070
00780000E0
001E000780
0007F9FE00
0000FFF000
ENDCHAR
STARTCHAR 010C
ENCODING 268
SWIDTH 708 0
DWIDTH 63 0
BBX 53 77 5 0
BITMAP
00000C0000E000
0000060001C000
00000300038000
000001C0070000
000000E00C0000
00000070180000
00000038700000
0000001CE00000
0000000FC00000
00000003800000
00000000000000
00000000000000
00000000000000
00000000000000
00000000000000
000000FFFF8000
00000FF00FF000
00003E00003C00
0000F000000F00
0003C0000001C0
000700000000E0
000E0000000030
00380000000018
00700000000000
00E00000000000
01C00000000000
01800000000000
03000000000000
06000000000000
06000000000000
0C000000000000
0C000000000000
18000000000000
18000000000000
30000000000000
30000000000000
20000000000000
60000000000000
60000000000000
60000000000000
40000000000000
C0000000000000
C0000000000000
C0000000000000
C0000000000000
C0000000000000
C0000000000000
C0000000000000
C0000000000000
C0000000000000
40000000000000
40000000000000
60000000000000
60000000000000
60000000000000
30000000000000
30000000000000
30000000000000
18000000000000
18000000000000
0C000000000000
0C000000000000
06000000000000
07000000000000
03000000000000
01800000000000
00C00000000000
00600000000000
00300000000008
001C0000000018
000E0000000070
000780000000E0
0001C000000380
0000F800000F00
00003F00007C00
000007FE7FE000
0000007FFF0000
ENDCHAR
STARTCHAR 010D
ENCODING 269
SWIDTH 540 0
DWIDTH 48 0
BBX 39 64 5 0
BITMAP
0060000380
0030000700
001C000E00
000E001C00
0007003000
0003806000
0000C1C000
0000738000
00003F0000
00001E0000
0000000000
0000000000
0000000000
0000000000
0000000000
0000000000
0000000000
0000000000
0000FFF000
0007FDFE00
001E000780
00380000E0
00E0000070
01C0000018
038000000C
0600000006
0C00000000
0C00000000
1800000000
3000000000
3000000000
6000000000
6000000000
6000000000
4000000000
C000000000
C000000000
C000000000
C000000000
C000000000
C000000000
C000000000
C000000000
C000000000
C000000000
C000000000
C000000000
4000000000
6000000000
6000000000
6000000000
3000000000
3000000000
1800000000
0C00000000
0E00000000
0600000006
038000000C
01C0000018
00E0000070
00780000E0
001E000780
0007F9FE00
0000FFF000
ENDCHAR
STARTCHAR 010E
ENCODING 270
SWIDTH 821 0
DWIDTH 73 0
BBX 56 77 12 0
BITMAP
00180000E00000
000E0001800000
00070003000000
0003800E000000
0001C01C000000
00006038000000
00003870000000
00001CE0000000
00000FC0000000
00000780000000
00000000000000
00000000000000
00000000000000
00000000000000
00000000000000
FFFFFFFE000000
C00000FFE00000
C0000000FC0000
C00000000F0000
C000000003C000
C000000000E000
C0000000003800
C0000000001C00
C0000000000E00
C0000000000300
C0000000000180
C00000000000C0
C00000000000E0
C0000000000060
C0000000000030
C0000000000030
C0000000000018
C0000000000008
C000000000000C
C000000000000C
C0000000000006
C0000000000006
C0000000000006
C0000000000002
C0000000000003
C0000000000003
C0000000000003
C0000000000003
C0000000000003
C0000000000003
C0000000000003
C0000000000003
C0000000000003
C0000000000003
C0000000000003
C0000000000003
C0000000000003
C0000000000003
C0000000000002
C0000000000006
C0000000000006
C0000000000006
C000000000000C
C000000000000C
C0000000000018
C0000000000018
C0000000000030
C0000000000030
C0000000000060
C00000000000C0
C00000000001C0
C0000000000380
C0000000000700
C0000000000E00
C0000000001C00
C0000000007000
C000000000E000
C0000000038000
C00000001F0000
C0000001F80000
FFFFFFFFC00000
FFFFFFFC000000
ENDCHAR
STARTCHAR 010F
ENCODING 271
SWIDTH 663 0
DWIDTH 59 0
BBX 55 68 5 0
BITMAP
00000000000006
00000000000006
00000000001006
00000000001006
00000000001006
00000000001006
00000000001006
00000000001006
00000000001006
00000000001006
00000000001006
00000000001006
00000000001006
00000000001006
00000000001006
00000000001006
00000000001000
00000000001000
00000000001000
00000000001000
00000000001000
00000000001000
0000FFF0001000
0007FDFE001000
001E0007801000
00380001E01000
00E00000701000
01C00000181000
030000000C1000
06000000061000
0C000000031000
0C000000011000
18000000019000
3000000000D000
3000000000D000
60000000005000
60000000007000
60000000003000
40000000003000
C0000000003000
C0000000003000
C0000000003000
C0000000001000
C0000000001000
C0000000001000
C0000000001000
C0000000001000
C0000000001000
C0000000003000
C0000000003000
C0000000003000
40000000003000
60000000003000
60000000007000
20000000005000
3000000000D000
3000000000D000
18000000019000
0C000000031000
0E000000031000
06000000061000
030000000C1000
01C00000181000
00E00000701000
00780001E01000
001E0007801000
0007F9FE001000
0000FFF0001000
ENDCHAR
STARTCHAR 0110
ENCODING 272
SWIDTH 821 0
DWIDTH 73 0
BBX 66 62 2 0
BITMAP
003FFFFFFF80000000
003000003FF8000000
00300000003F000000
003000000003C00000
003000000000F00000
003000000000380000
0030000000000E0000
003000000000070000
003000000000038000
00300000000000C000
003000000000006000
003000000000003000
003000000000003800
003000000000001800
003000000000000C00
003000000000000C00
003000000000000600
003000000000000200
003000000000000300
003000000000000300
003000000000000180
003000000000000180
003000000000000180
003000000000000080
0030000000000000C0
0030000000000000C0
0030000000000000C0
0030000000000000C0
0030000000000000C0
0030000000000000C0
FFFFFFFF00000000C0
0030000000000000C0
0030000000000000C0
0030000000000000C0
0030000000000000C0
0030000000000000C0
0030000000000000C0
0030000000000000C0
003000000000000080
003000000000000180
003000000000000180
003000000000000180
003000000000000300
003000000000000300
003000000000000600
003000000000000600
003000000000000C00
003000000000000C00
003000000000001800
003000000000003000
003000000000007000
00300000000000E000
00300000000001C000
003000000000038000
003000000000070000
0030000000001C0000
003000000000380000
003000000000E00000
003000000007C00000
00300000007E000000
003FFFFFFFF0000000
003FFFFFFF00000000
ENDCHAR
STARTCHAR 0111
ENCODING 273
SWIDTH 663 0
DWIDTH 59 0
BBX 55 66 5 0
BITMAP
00000000001000
00000000001000
00000000001000
00000000001000
00000000001000
00000000001000
00000000001000
00000000001000
00000000001000
000007FFFFFFFE
000007FFFFFFFE
00000000001000
00000000001000
00000000001000
00000000001000
00000000001000
00000000001000
00000000001000
00000000001000
00000000001000
0000FFF0001000
0007FDFE001000
001E0007801000
00380001E01000
00E00000701000
01C00000181000
030000000C1000
06000000061000
0C000000031000
0C000000011000
18000000019000
3000000000D000
3000000000D000
60000000005000
60000000007000
60000000003000
40000000003000
C0000000003000
C0000000003000
C0000000003000
C0000000001000
C0000000001000
C0000000001000
C0000000001000
C0000000001000
C0000000001000
C0000000003000
C0000000003000
C0000000003000
40000000003000
60000000003000
60000000007000
20000000005000
3000000000D000
3000000000D000
18000000019000
0C000000031000
0E000000031000
06000000061000
030000000C1000
01C00000181000
00E00000701000
00780001E01000
001E0007801000
0007F9FE001000
0000FFF0001000
ENDCHAR
STARTCHAR 0112
ENCODING 274
SWIDTH 663 0
DWIDTH 59 0
BBX 41 73 12 0
BITMAP
00FFFFFF0000
00FFFFFF0000
000000000000
000000000000
000000000000
000000000000
000000000000
000000000000
000000000000
000000000000
000000000000
FFFFFFFFFF00
C00000000000
C00000000000
C00000000000
C00000000000
C00000000000
C00000000000
C00000000000
C00000000000
C00000000000
C00000000000
C00000000000
C00000000000
C00000000000
C00000000000
C00000000000
C00000000000
C00000000000
C00000000000
C00000000000
C00000000000
C00000000000
C00000000000
C00000000000
C00000000000
C00000000000
C00000000000
C00000000000
C00000000000
C00000000000
FFFFFFFFF000
C00000000000
C00000000000
C00000000000
C00000000000
C00000000000
C00000000000
C00000000000
C00000000000
C00000000000
C00000000000
C00000000000
C00000000000
C00000000000
C00000000000
C00000000000
C00000000000
C00000000000
C00000000000
C00000000000
C00000000000
C00000000000
C00000000000
C00000000000
C00000000000
C00000000000
C00000000000
C00000000000
C00000000000
C00000000000
FFFFFFFFFF80
FFFFFFFFFF80
ENDCHAR
STARTCHAR 0113
ENCODING 275
SWIDTH 585 0
DWIDTH 52 0
BBX 42 60 5 0
BITMAP
007FFFFF8000
007FFFFF8000
000000000000
000000000000
000000000000
000000000000
000000000000
000000000000
000000000000
000000000000
000000000000
000000000000
000000000000
000000000000
0001FFE00000
0007FBFC0000
001E001F0000
007000038000
00E00000E000
018000007000
030000003800
060000001800
0C0000000C00
180000000600
180000000600
300000000300
300000000300
600000000180
600000000180
400000000080
C000000000C0
C000000000C0
C000000000C0
C000000000C0
C00000000040
FFFFFFFFFFC0
FFFFFFFFFFC0
800000000000
C00000000000
C00000000000
C00000000000
C00000000000
C00000000000
400000000000
600000000000
600000000000
200000000000
300000000000
300000000000
180000000000
0C0000000000
0E0000000000
060000000600
038000000600
01C000001C00
00E000003800
00380000F000
001F0003C000
0007F8FF0000
0000FFF80000
ENDCHAR
STARTCHAR 0114
ENCODING 276
SWIDTH 663 0
DWIDTH 59 0
BBX 41 77 12 0
BITMAP
00C000030000
00C000030000
004000020000
006000060000
0060000E0000
0030000C0000
001C00380000
000F00F00000
0003FFC00000
0000FF000000
000000000000
000000000000
000000000000
000000000000
000000000000
FFFFFFFFFF00
C00000000000
C00000000000
C00000000000
C00000000000
C00000000000
C00000000000
C00000000000
C00000000000
C00000000000
C00000000000
C00000000000
C00000000000
C00000000000
C00000000000
C00000000000
C00000000000
C00000000000
C00000000000
C00000000000
C00000000000
C00000000000
C00000000000
C00000000000
C00000000000
C00000000000
C00000000000
C00000000000
C00000000000
C00000000000
FFFFFFFFF000
C00000000000
C00000000000
C00000000000
C00000000000
C00000000000
C00000000000
C00000000000
C00000000000
C00000000000
C00000000000
C00000000000
C00000000000
C00000000000
C00000000000
C00000000000
C00000000000
C00000000000
C00000000000
C00000000000
C00000000000
C00000000000
C00000000000
C00000000000
C00000000000
C00000000000
C00000000000
C00000000000
C00000000000
C00000000000
FFFFFFFFFF80
FFFFFFFFFF80
ENDCHAR
STARTCHAR 0115
ENCODING 277
SWIDTH 585 0
DWIDTH 52 0
BBX 42 64 5 0
BITMAP
006000018000
006000018000
002000018000
003000030000
003000030000
001800060000
000C000E0000
0007003C0000
0003F1F00000
0000FFC00000
000000000000
000000000000
000000000000
000000000000
000000000000
000000000000
000000000000
000000000000
0001FFE00000
0007FBFC0000
001E001F0000
007000038000
00E00000E000
018000007000
030000003800
060000001800
0C0000000C00
180000000600
180000000600
300000000300
300000000300
600000000180
600000000180
400000000080
C000000000C0
C000000000C0
C000000000C0
C000000000C0
C00000000040
FFFFFFFFFFC0
FFFFFFFFFFC0
800000000000
C00000000000
C00000000000
C00000000000
C00000000000
C00000000000
400000000000
600000000000
600000000000
200000000000
300000000000
300000000000
180000000000
0C0000000000
0E0000000000
060000000600
038000000600
01C000001C00
00E000003800
00380000F000
001F0003C000
0007F8FF0000
0000FFF80000
ENDCHAR
STARTCHAR 0116
ENCODING 278
SWIDTH 663 0
DWIDTH 59 0
BBX 41 75 12 0
BITMAP
000018000000
00003C000000
00003C000000
00003C000000
000018000000
000000000000
000000000000
000000000000
000000000000
000000000000
000000000000
000000000000
000000000000
FFFFFFFFFF00
C00000000000
C00000000000
C00000000000
C00000000000
C00000000000
C00000000000
C00000000000
C00000000000
C00000000000
C00000000000
C00000000000
C00000000000
C00000000000
C00000000000
C00000000000
C00000000000
C00000000000
C00000000000
C00000000000
C00000000000
C00000000000
C00000000000
C00000000000
C00000000000
C00000000000
C00000000000
C00000000000
C00000000000
C00000000000
FFFFFFFFF000
C00000000000
C00000000000
C00000000000
C00000000000
C00000000000
C00000000000
C00000000000
C00000000000
C00000000000
C00000000000
C00000000000
C00000000000
C00000000000
C00000000000
C00000000000
C00000000000
C00000000000
C00000000000
C00000000000
C00000000000
C00000000000
C00000000000
C00000000000
C00000000000
C00000000000
C00000000000
C00000000000
C00000000000
C00000000000
FFFFFFFFFF80
FFFFFFFFFF80
ENDCHAR
STARTCHAR 0117
ENCODING 279
SWIDTH 585 0
DWIDTH 52 0
BBX 42 62 5 0
BITMAP
000004000000
00001E000000
00001E000000
00001E000000
00000E000000
000000000000
000000000000
000000000000
000000000000
000000000000
000000000000
000000000000
000000000000
000000000000
000000000000
000000000000
0001FFE00000
0007FBFC0000
001E001F0000
007000038000
00E00000E000
018000007000
030000003800
060000001800
0C0000000C00
180000000600
180000000600
300000000300
300000000300
600000000180
600000000180
400000000080
C000000000C0
C000000000C0
C000000000C0
C000000000C0
C00000000040
FFFFFFFFFFC0
FFFFFFFFFFC0
800000000000
C00000000000
C00000000000
C00000000000
C00000000000
C00000000000
400000000000
600000000000
600000000000
200000000000
300000000000
300000000000
180000000000
0C0000000000
0E0000000000
060000000600
038000000600
01C000001C00
00E000003800
00380000F000
001F0003C000
0007F8FF0000
0000FFF80000
ENDCHAR
STARTCHAR 0118
ENCODING 280
SWIDTH 663 0
DWIDTH 59 0
BBX 43 81 12 -19
BITMAP
FFFFFFFFFF00
C00000000000
C00000000000
C00000000000
C00000000000
C00000000000
C00000000000
C00000000000
C00000000000
C00000000000
C00000000000
C00000000000
C00000000000
C00000000000
C00000000000
C00000000000
C00000000000
C00000000000
C00000000000
C00000000000
C00000000000
C00000000000
C00000000000
C00000000000
C00000000000
C00000000000
C00000000000
C00000000000
C00000000000
C00000000000
FFFFFFFFF000
C00000000000
C00000000000
C00000000000
C00000000000
C00000000000
C00000000000
C00000000000
C00000000000
C00000000000
C00000000000
C00000000000
C00000000000
C00000000000
C00000000000
C00000000000
C00000000000
C00000000000
C00000000000
C00000000000
C00000000000
C00000000000
C00000000000
C00000000000
C00000000000
C00000000000
C00000000000
C00000000000
C00000000000
C00000000000
FFFFFFFFFF80
FFFFFFFFFF80
000000000F00
000000001C00
000000007000
00000000E000
00000001C000
000000038000
000000030000
000000060000
000000060000
0000000C0000
0000000C0000
0000000C0000
0000000C0000
0000000C0000
000000060000
000000060040
0000000380E0
00000001FFC0
000000007E00
ENDCHAR
STARTCHAR 0119
ENCODING 281
SWIDTH 585 0
DWIDTH 52 0
BBX 42 65 5 -19
BITMAP
0001FFE00000
0007FBFC0000
001E001F0000
007000038000
00E00000E000
018000007000
030000003800
060000001800
0C0000000C00
180000000600
180000000600
300000000300
300000000300
600000000180
600000000180
400000000080
C000000000C0
C000000000C0
C000000000C0
C000000000C0
C00000000040
FFFFFFFFFFC0
FFFFFFFFFFC0
800000000000
C00000000000
C00000000000
C00000000000
C00000000000
C00000000000
400000000000
600000000000
600000000000
200000000000
300000000000
300000000000
180000000000
0C0000000000
0E0000000000
060000000600
038000000600
01C000001C00
00E000003800
00380000F000
001F0003E000
0007F8FFC000
0000FFFB8000
000000070000
0000000E0000
0000000C0000
000000180000
000000300000
000000300000
000000600000
000000600000
000000400000
000000C00000
000000C00000
000000C00000
000000C00000
000000C00000
000000600000
000000600400
000000380E00
0000001FFC00
00000007E000
ENDCHAR
STARTCHAR 011A
ENCODING 282
SWIDTH 663 0
DWIDTH 59 0
BBX 41 77 12 0
BITMAP
00E000070000
0070000C0000
003800180000
000C00300000
000600E00000
000381C00000
0001C3800000
0000E7000000
00007E000000
00003C000000
000000000000
000000000000
000000000000
000000000000
000000000000
FFFFFFFFFF00
C00000000000
C00000000000
C00000000000
C00000000000
C00000000000
C00000000000
C00000000000
C00000000000
C00000000000
C00000000000
C00000000000
C00000000000
C00000000000
C00000000000
C00000000000
C00000000000
C00000000000
C00000000000
C00000000000
C00000000000
C00000000000
C00000000000
C00000000000
C00000000000
C00000000000
C00000000000
C00000000000
C00000000000
C00000000000
FFFFFFFFF000
C00000000000
C00000000000
C00000000000
C00000000000
C00000000000
C00000000000
C00000000000
C00000000000
C00000000000
C00000000000
C00000000000
C00000000000
C00000000000
C00000000000
C00000000000
C00000000000
C00000000000
C00000000000
C00000000000
C00000000000
C00000000000
C00000000000
C00000000000
C00000000000
C00000000000
C00000000000
C00000000000
C00000000000
C00000000000
FFFFFFFFFF80
FFFFFFFFFF80
ENDCHAR
STARTCHAR 011B
ENCODING 283
SWIDTH 585 0
DWIDTH 52 0
BBX 42 64 5 0
BITMAP
007000018000
003800030000
001C000E0000
000E001C0000
000300380000
000180700000
0000E0E00000
000073800000
00003F000000
00001E000000
000000000000
000000000000
000000000000
000000000000
000000000000
000000000000
000000000000
000000000000
0001FFE00000
0007FBFC0000
001E001F0000
007000038000
00E00000E000
018000007000
030000003800
060000001800
0C0000000C00
180000000600
180000000600
300000000300
300000000300
600000000180
600000000180
400000000080
C000000000C0
C000000000C0
C000000000C0
C000000000C0
C00000000040
FFFFFFFFFFC0
FFFFFFFFFFC0
800000000000
C00000000000
C00000000000
C00000000000
C00000000000
C00000000000
400000000000
600000000000
600000000000
200000000000
300000000000
300000000000
180000000000
0C0000000000
0E0000000000
060000000600
038000000600
01C000001C00
00E000003800
00380000F000
001F0003C000
0007F8FF0000
0000FFF80000
ENDCHAR
STARTCHAR 011C
ENCODING 284
SWIDTH 765 0
DWIDTH 68 0
BBX 54 77 5 0
BITMAP
00000007800000
0000000FC00000
0000001CE00000
00000070700000
000000E0380000
000001C01C0000
00000380060000
00000700030000
00000C0001C000
0000180000E000
00000000000000
00000000000000
00000000000000
00000000000000
00000000000000
000000FFFF8000
000007F00FF000
00003E00003E00
0000F000000780
0003C0000001C0
00070000000070
000E0000000038
0038000000001C
00700000000000
00E00000000000
01C00000000000
01800000000000
03000000000000
06000000000000
06000000000000
0C000000000000
0C000000000000
18000000000000
18000000000000
30000000000000
30000000000000
20000000000000
60000000000000
60000000000000
60000000000000
40000000000000
C0000000000000
C0000000000000
C0000000000000
C0000000000000
C0000000000000
C0000000000000
C000000000000C
C000000000000C
C000000000000C
4000000000000C
4000000000000C
6000000000000C
6000000000000C
6000000000000C
3000000000000C
3000000000000C
3000000000000C
1800000000000C
1800000000000C
0C00000000000C
0C00000000000C
0600000000000C
0700000000000C
0300000000000C
0180000000000C
00C0000000000C
0060000000000C
0030000000000C
001C000000001C
000E0000000038
000780000000E0
0001E0000001C0
0000F800000F00
00001F00007C00
000007FE7FF000
0000007FFF0000
ENDCHAR
STARTCHAR 011D
ENCODING 285
SWIDTH 675 0
DWIDTH 60 0
BBX 45 82 5 -18
BITMAP
000007800000
00000FC00000
00001CE00000
000038700000
000070380000
0000E01C0000
000180060000
000300030000
000E0001C000
001C0000E000
000000000000
000000000000
000000000000
000000000000
000000000000
000000000000
000000000000
000000000000
0000FFF80018
0007FDFF0018
001E0007C018
00780000E018
00E000003818
01C000001C18
030000000E18
060000000318
0C0000000318
180000000198
1800000000D8
300000000058
300000000078
600000000038
600000000038
400000000038
C00000000018
C00000000018
C00000000018
C00000000018
C00000000018
C00000000018
C00000000018
C00000000018
C00000000018
C00000000018
C00000000018
C00000000018
400000000038
600000000038
600000000038
300000000078
300000000058
1800000000D8
180000000198
0C0000000198
060000000318
030000000618
018000000C18
00E000003818
00700000F018
001E0003C018
0007E03F0018
0001FFFC0018
000000000018
000000000018
000000000018
000000000018
000000000010
000000000030
000000000030
000000000030
000000000060
000000000060
0000000000C0
0C00000000C0
0E0000000180
070000000300
03C000000600
00F000001C00
003E00007800
000FF007E000
0001FFFF0000
000003000000
ENDCHAR
STARTCHAR 011E
ENCODING 286
SWIDTH 765 0
DWIDTH 68 0
BBX 54 77 5 0
BITMAP
00001800004000
00001800004000
0000180000C000
00000C0000C000
00000C00018000
00000600038000
00000300070000
000001C01E0000
000000FFF80000
0000001FE00000
00000000000000
00000000000000
00000000000000
00000000000000
00000000000000
000000FFFF8000
000007F00FF000
00003E00003E00
0000F000000780
0003C0000001C0
00070000000070
000E0000000038
0038000000001C
00700000000000
00E00000000000
01C00000000000
01800000000000
03000000000000
06000000000000
06000000000000
0C000000000000
0C000000000000
18000000000000
18000000000000
30000000000000
30000000000000
20000000000000
60000000000000
60000000000000
60000000000000
40000000000000
C0000000000000
C0000000000000
C0000000000000
C0000000000000
C0000000000000
C0000000000000
C000000000000C
C000000000000C
C000000000000C
4000000000000C
4000000000000C
6000000000000C
6000000000000C
6000000000000C
3000000000000C
3000000000000C
3000000000000C
1800000000000C
1800000000000C
0C00000000000C
0C00000000000C
0600000000000C
0700000000000C
0300000000000C
0180000000000C
00C0000000000C
0060000000000C
0030000000000C
001C000000001C
000E0000000038
000780000000E0
0001E0000001C0
0000F800000F00
00001F00007C00
000007FE7FF000
0000007FFF0000
ENDCHAR
STARTCHAR 011F
ENCODING 287
SWIDTH 675 0
DWIDTH 60 0
BBX 45 82 5 -18
BITMAP
001800006000
001800006000
000800004000
000C0000C000
000C0000C000
000600018000
000300030000
0001C00E0000
0000F87C0000
00003FF00000
000000000000
000000000000
000000000000
000000000000
000000000000
000000000000
000000000000
000000000000
0000FFF80018
0007FDFF0018
001E0007C018
00780000E018
00E000003818
01C000001C18
030000000E18
060000000318
0C0000000318
180000000198
1800000000D8
300000000058
300000000078
600000000038
600000000038
400000000038
C00000000018
C00000000018
C00000000018
C00000000018
C00000000018
C00000000018
C00000000018
C00000000018
C00000000018
C00000000018
C00000000018
C00000000018
400000000038
600000000038
600000000038
300000000078
300000000058
1800000000D8
180000000198
0C0000000198
060000000318
030000000618
018000000C18
00E000003818
00700000F018
001E0003C018
0007E03F0018
0001FFFC0018
000000000018
000000000018
000000000018
000000000018
000000000010
000000000030
000000000030
000000000030
000000000060
000000000060
0000000000C0
0C00000000C0
0E0000000180
070000000300
03C000000600
00F000001C00
003E00007800
000FF007E000
0001FFFF0000
000003000000
ENDCHAR
STARTCHAR 0120
ENCODING 288
SWIDTH 765 0
DWIDTH 68 0
BBX 54 75 5 0
BITMAP
00000003000000
00000007800000
0000000F800000
00000007800000
00000003000000
00000000000000
00000000000000
00000000000000
00000000000000
00000000000000
00000000000000
00000000000000
00000000000000
000000FFFF8000
000007F00FF000
00003E00003E00
0000F000000780
0003C0000001C0
00070000000070
000E0000000038
0038000000001C
00700000000000
00E00000000000
01C00000000000
01800000000000
03000000000000
06000000000000
06000000000000
0C000000000000
0C000000000000
18000000000000
18000000000000
30000000000000
30000000000000
20000000000000
60000000000000
60000000000000
60000000000000
40000000000000
C0000000000000
C0000000000000
C0000000000000
C0000000000000
C0000000000000
C0000000000000
C000000000000C
C000000000000C
C000000000000C
4000000000000C
4000000000000C
6000000000000C
6000000000000C
6000000000000C
3000000000000C
3000000000000C
3000000000000C
1800000000000C
1800000000000C
0C00000000000C
0C00000000000C
0600000000000C
0700000000000C
0300000000000C
0180000000000C
00C0000000000C
0060000000000C
0030000000000C
001C000000001C
000E0000000038
000780000000E0
0001E0000001C0
0000F800000F00
00001F00007C00
000007FE7FF000
0000007FFF0000
ENDCHAR
STARTCHAR 0121
ENCODING 289
SWIDTH 675 0
DWIDTH 60 0
BBX 45 80 5 -18
BITMAP
000001000000
000007800000
000007800000
000007800000
000003000000
000000000000
000000000000
000000000000
000000000000
000000000000
000000000000
000000000000
000000000000
000000000000
000000000000
000000000000
0000FFF80018
0007FDFF0018
001E0007C018
00780000E018
00E000003818
01C000001C18
030000000E18
060000000318
0C0000000318
180000000198
1800000000D8
300000000058
300000000078
600000000038
600000000038
400000000038
C00000000018
C00000000018
C00000000018
C00000000018
C00000000018
C00000000018
C00000000018
C00000000018
C00000000018
C00000000018
C00000000018
C00000000018
400000000038
600000000038
600000000038
300000000078
300000000058
1800000000D8
180000000198
0C0000000198
060000000318
030000000618
018000000C18
00E000003818
00700000F018
001E0003C018
0007E03F0018
0001FFFC0018
000000000018
000000000018
000000000018
000000000018
000000000010
000000000030
000000000030
000000000030
000000000060
000000000060
0000000000C0
0C00000000C0
0E0000000180
070000000300
03C000000600
00F000001C00
003E00007800
000FF007E000
0001FFFF0000
000003000000
ENDCHAR
STARTCHAR 0122
ENCODING 290
SWIDTH 765 0
DWIDTH 68 0
BBX 54 85 5 -23
BITMAP
000000FFFF8000
000007F00FF000
00003E00003E00
0000F000000780
0003C0000001C0
00070000000070
000E0000000038
0038000000001C
00700000000000
00E00000000000
01C00000000000
01800000000000
03000000000000
06000000000000
06000000000000
0C000000000000
0C000000000000
18000000000000
18000000000000
30000000000000
30000000000000
20000000000000
60000000000000
60000000000000
60000000000000
40000000000000
C0000000000000
C0000000000000
C0000000000000
C0000000000000
C0000000000000
C0000000000000
C000000000000C
C000000000000C
C000000000000C
4000000000000C
4000000000000C
6000000000000C
6000000000000C
6000000000000C
3000000000000C
3000000000000C
3000000000000C
1800000000000C
1800000000000C
0C00000000000C
0C00000000000C
0600000000000C
0700000000000C
0300000000000C
0180000000000C
00C0000000000C
0060000000000C
0030000000000C
001C000000001C
000E0000000038
000780000000E0
0001E0000001C0
0000F800000F00
00001F00007C00
000007FE7FF000
0000007FFF0000
00000000000000
00000000000000
00000000000000
00000000000000
00000000000000
00000000000000
00000000000000
00000000000000
00000000000000
00000000000000
00000000000000
00000007000000
00000007800000
0000000F800000
00000007800000
00000003800000
00000003000000
00000003000000
00000003000000
00000003000000
00000006000000
00000006000000
00000006000000
ENDCHAR
STARTCHAR 0123
ENCODING 291
SWIDTH 675 0
DWIDTH 60 0
BBX 45 85 5 -18
BITMAP
000001800000
000001800000
000001800000
000003000000
000003000000
000003000000
000003000000
000007000000
000006000000
000007800000
000007800000
000007800000
000007800000
000000000000
000000000000
000000000000
000000000000
000000000000
000000000000
000000000000
000000000000
0000FFF80018
0007FDFF0018
001E0007C018
00780000E018
00E000003818
01C000001C18
030000000E18
060000000318
0C0000000318
180000000198
1800000000D8
300000000058
300000000078
600000000038
600000000038
400000000038
C00000000018
C00000000018
C00000000018
C00000000018
C00000000018
C00000000018
C00000000018
C00000000018
C00000000018
C00000000018
C00000000018
C00000000018
400000000038
600000000038
600000000038
300000000078
300000000058
1800000000D8
180000000198
0C0000000198
060000000318
030000000618
018000000C18
00E000003818
00700000F018
001E0003C018
0007E03F0018
0001FFFC0018
000000000018
000000000018
000000000018
000000000018
000000000010
000000000030
000000000030
000000000030
000000000060
000000000060
0000000000C0
0C00000000C0
0E0000000180
070000000300
03C000000600
00F000001C00
003E00007800
000FF007E000
0001FFFF0000
000003000000
ENDCHAR
STARTCHAR 0124
ENCODING 292
SWIDTH 810 0
DWIDTH 72 0
BBX 49 77 12 0
BITMAP
000003C0000000
000007E0000000
00000E38000000
00001C1C000000
0000380E000000
00006007000000
0000C003800000
00038001C00000
00070000600000
000E0000300000
00000000000000
00000000000000
00000000000000
00000000000000
00000000000000
C0000000000180
C0000000000180
C0000000000180
C0000000000180
C0000000000180
C0000000000180
C0000000000180
C0000000000180
C0000000000180
C0000000000180
C0000000000180
C0000000000180
C0000000000180
C0000000000180
C0000000000180
C0000000000180
C0000000000180
C0000000000180
C0000000000180
C0000000000180
C0000000000180
C0000000000180
C0000000000180
C0000000000180
C0000000000180
C0000000000180
C0000000000180
C0000000000180
C0000000000180
C0000000000180
FFFFFFFFFFFF80
C0000000000180
C0000000000180
C0000000000180
C0000000000180
C0000000000180
C0000000000180
C0000000000180
C0000000000180
C0000000000180
C0000000000180
C0000000000180
C0000000000180
C0000000000180
C0000000000180
C0000000000180
C0000000000180
C0000000000180
C0000000000180
C0000000000180
C0000000000180
C0000000000180
C0000000000180
C0000000000180
C0000000000180
C0000000000180
C0000000000180
C0000000000180
C0000000000180
C0000000000180
C0000000000180
C0000000000180
ENDCHAR
STARTCHAR 0125
ENCODING 293
SWIDTH 663 0
DWIDTH 59 0
BBX 51 81 -1 0
BITMAP
003C0000000000
007E0000000000
00E70000000000
01C38000000000
0381C000000000
07006000000000
0C003800000000
18001C00000000
70000E00000000
E0000700000000
00000000000000
00000000000000
00000000000000
00000000000000
00000000000000
00180000000000
00180000000000
00180000000000
00180000000000
00180000000000
00180000000000
00180000000000
00180000000000
00180000000000
00180000000000
00180000000000
00180000000000
00180000000000
00180000000000
00180000000000
00180000000000
00180000000000
00180000000000
00180000000000
00180000000000
0018003FFC0000
001801FF7F8000
0018078001E000
00180E00007000
00183800001C00
00187000000C00
0018C000000600
0018C000000300
00198000000300
001B0000000180
001A0000000180
001E00000000C0
001E00000000C0
001C00000000C0
001C0000000040
001C0000000040
00180000000060
00180000000060
00180000000060
00180000000060
00180000000060
00180000000060
00180000000060
00180000000060
00180000000060
00180000000060
00180000000060
00180000000060
00180000000060
00180000000060
00180000000060
00180000000060
00180000000060
00180000000060
00180000000060
00180000000060
00180000000060
00180000000060
00180000000060
00180000000060
00180000000060
00180000000060
00180000000060
00180000000060
00180000000060
00180000000060
ENDCHAR
STARTCHAR 0126
ENCODING 294
SWIDTH 810 0
DWIDTH 72 0
BBX 69 62 2 0
BITMAP
003000000000006000
003000000000006000
003000000000006000
003000000000006000
003000000000006000
003000000000006000
003000000000006000
003000000000006000
003000000000006000
003000000000006000
003000000000006000
003000000000006000
003000000000006000
FFFFFFFFFFFFFFFFF8
FFFFFFFFFFFFFFFFF8
003000000000006000
003000000000006000
003000000000006000
003000000000006000
003000000000006000
003000000000006000
003000000000006000
003000000000006000
003000000000006000
003000000000006000
003000000000006000
003000000000006000
003000000000006000
003000000000006000
003000000000006000
003FFFFFFFFFFFE000
003000000000006000
003000000000006000
003000000000006000
003000000000006000
003000000000006000
003000000000006000
003000000000006000
003000000000006000
003000000000006000
003000000000006000
003000000000006000
003000000000006000
003000000000006000
003000000000006000
003000000000006000
003000000000006000
003000000000006000
003000000000006000
003000000000006000
003000000000006000
003000000000006000
003000000000006000
003000000000006000
003000000000006000
003000000000006000
003000000000006000
003000000000006000
003000000000006000
003000000000006000
003000000000006000
003000000000006000
ENDCHAR
STARTCHAR 0127
ENCODING 295
SWIDTH 663 0
DWIDTH 59 0
BBX 50 66 0 0
BITMAP
00300000000000
00300000000000
00300000000000
00300000000000
00300000000000
00300000000000
00300000000000
00300000000000
00300000000000
FFFFFFFFC00000
FFFFFFFFC00000
00300000000000
00300000000000
00300000000000
00300000000000
00300000000000
00300000000000
00300000000000
00300000000000
00300000000000
0030007FF80000
003003FEFF0000
00300F0003C000
00301C0000E000
00307000003800
0030E000001800
00318000000C00
00318000000600
00330000000600
00360000000300
00340000000300
003C0000000180
003C0000000180
00380000000180
00380000000080
00380000000080
003000000000C0
003000000000C0
003000000000C0
003000000000C0
003000000000C0
003000000000C0
003000000000C0
003000000000C0
003000000000C0
003000000000C0
003000000000C0
003000000000C0
003000000000C0
003000000000C0
003000000000C0
003000000000C0
003000000000C0
003000000000C0
003000000000C0
003000000000C0
003000000000C0
003000000000C0
003000000000C0
003000000000C0
003000000000C0
003000000000C0
003000000000C0
003000000000C0
003000000000C0
003000000000C0
ENDCHAR
STARTCHAR 0128
ENCODING 296
SWIDTH 281 0
DWIDTH 25 0
BBX 24 76 1 0
BITMAP
1F8003
3FE003
607002
403806
C01C06
C00E1C
8003F8
0000E0
000000
000000
000000
000000
000000
000000
001800
001800
001800
001800
001800
001800
001800
001800
001800
001800
001800
001800
001800
001800
001800
001800
001800
001800
001800
001800
001800
001800
001800
001800
001800
001800
001800
001800
001800
001800
001800
001800
001800
001800
001800
001800
001800
001800
001800
001800
001800
001800
001800
001800
001800
001800
001800
001800
001800
001800
001800
001800
001800
001800
001800
001800
001800
001800
001800
001800
001800
001800
ENDCHAR
STARTCHAR 0129
ENCODING 297
SWIDTH 247 0
DWIDTH 22 0
BBX 20 63 1 0
BITMAP
0E0000
3F8030
71C030
60E030
407060
C03860
C01FC0
C00F80
000000
000000
000000
000000
000000
000000
000000
000000
000000
006000
006000
006000
006000
006000
006000
006000
006000
006000
006000
006000
006000
006000
006000
006000
006000
006000
006000
006000
006000
006000
006000
006000
006000
006000
006000
006000
006000
006000
006000
006000
006000
006000
006000
006000
006000
006000
006000
006000
006000
006000
006000
006000
006000
006000
006000
ENDCHAR
STARTCHAR 012A
ENCODING 298
SWIDTH 281 0
DWIDTH 25 0
BBX 20 73 3 0
BITMAP
FFFFF0
FFFFF0
000000
000000
000000
000000
000000
000000
000000
000000
000000
006000
006000
006000
006000
006000
006000
006000
006000
006000
006000
006000
006000
006000
006000
006000
006000
006000
006000
006000
006000
006000
006000
006000
006000
006000
006000
006000
006000
006000
006000
006000
006000
006000
006000
006000
006000
006000
006000
006000
006000
006000
006000
006000
006000
006000
006000
006000
006000
006000
006000
006000
006000
006000
006000
006000
006000
006000
006000
006000
006000
006000
006000
ENDCHAR
STARTCHAR 012B
ENCODING 299
SWIDTH 247 0
DWIDTH 22 0
BBX 20 60 1 0
BITMAP
FFFFF0
FFFFF0
000000
000000
000000
000000
000000
000000
000000
000000
000000
000000
000000
000000
006000
006000
006000
006000
006000
006000
006000
006000
006000
006000
006000
006000
006000
006000
006000
006000
006000
006000
006000
006000
006000
006000
006000
006000
006000
006000
006000
006000
006000
006000
006000
006000
006000
006000
006000
006000
006000
006000
006000
006000
006000
006000
006000
006000
006000
006000
ENDCHAR
STARTCHAR 012C
ENCODING 300
SWIDTH 281 0
DWIDTH 25 0
BBX 23 77 1 0
BITMAP
C00002
C00002
C00006
600006
60000C
30001C
180038
0E00F0
07FFC0
00FE00
000000
000000
000000
000000
000000
001800
001800
001800
001800
001800
001800
001800
001800
001800
001800
001800
001800
001800
001800
001800
001800
001800
001800
001800
001800
001800
001800
001800
001800
001800
001800
001800
001800
001800
001800
001800
001800
001800
001800
001800
001800
001800
001800
001800
001800
001800
001800
001800
001800
001800
001800
001800
001800
001800
001800
001800
001800
001800
001800
001800
001800
001800
001800
001800
001800
001800
001800
ENDCHAR
STARTCHAR 012D
ENCODING 301
SWIDTH 247 0
DWIDTH 22 0
BBX 19 64 2 0
BITMAP
800060
800060
800040
C000C0
C000C0
600180
700180
380700
1F1E00
07F800
000000
000000
000000
000000
000000
000000
000000
000000
00C000
00C000
00C000
00C000
00C000
00C000
00C000
00C000
00C000
00C000
00C000
00C000
00C000
00C000
00C000
00C000
00C000
00C000
00C000
00C000
00C000
00C000
00C000
00C000
00C000
00C000
00C000
00C000
00C000
00C000
00C000
00C000
00C000
00C000
00C000
00C000
00C000
00C000
00C000
00C000
00C000
00C000
00C000
00C000
00C000
00C000
ENDCHAR
STARTCHAR 012E
ENCODING 302
SWIDTH 281 0
DWIDTH 25 0
BBX 10 81 7 -19
BITMAP
0600
0600
0600
0600
0600
0600
0600
0600
0600
0600
0600
0600
0600
0600
0600
0600
0600
0600
0600
0600
0600
0600
0600
0600
0600
0600
0600
0600
0600
0600
0600
0600
0600
0600
0600
0600
0600
0600
0600
0600
0600
0600
0600
0600
0600
0600
0600
0600
0600
0600
0600
0600
0600
0600
0600
0600
0600
0600
0600
0600
0600
0600
0C00
1800
1800
3000
2000
6000
4000
4000
C000
C000
C000
C000
C000
C000
C000
6000
70C0
3FC0
0F00
ENDCHAR
STARTCHAR 012F
ENCODING 303
SWIDTH 247 0
DWIDTH 22 0
BBX 11 82 5 -19
BITMAP
0F00
0F00
0F00
0F00
0000
0000
0000
0000
0000
0000
0000
0000
0000
0000
0000
0000
0000
0600
0600
0600
0600
0600
0600
0600
0600
0600
0600
0600
0600
0600
0600
0600
0600
0600
0600
0600
0600
0600
0600
0600
0600
0600
0600
0600
0600
0600
0600
0600
0600
0600
0600
0600
0600
0600
0600
0600
0600
0600
0600
0600
0600
0600
0600
0E00
0C00
1800
3000
3000
2000
6000
6000
4000
4000
C000
C000
C000
C000
6000
6000
3060
3FC0
0F80
ENDCHAR
STARTCHAR 0130
ENCODING 304
SWIDTH 281 0
DWIDTH 25 0
BBX 5 75 10 0
BITMAP
70
78
F8
78
30
00
00
00
00
00
00
00
00
30
30
30
30
30
30
30
30
30
30
30
30
30
30
30
30
30
30
30
30
30
30
30
30
30
30
30
30
30
30
30
30
30
30
30
30
30
30
30
30
30
30
30
30
30
30
30
30
30
30
30
30
30
30
30
30
30
30
30
30
30
30
ENDCHAR
STARTCHAR 0131
ENCODING 305
SWIDTH 247 0
DWIDTH 22 0
BBX 2 46 10 0
BITMAP
C0
C0
C0
C0
C0
C0
C0
C0
C0
C0
C0
C0
C0
C0
C0
C0
C0
C0
C0
C0
C0
C0
C0
C0
C0
C0
C0
C0
C0
C0
C0
C0
C0
C0
C0
C0
C0
C0
C0
C0
C0
C0
C0
C0
C0
C0
ENDCHAR
ENDFONT
